<mxfile host="Electron" agent="Mozilla/5.0 (X11; Linux x86_64) AppleWebKit/537.36 (KHTML, like Gecko) draw.io/26.1.1 Chrome/132.0.6834.210 Electron/34.3.3 Safari/537.36" version="26.1.1">
  <diagram name="LPF Board" id="B-j036tHILslb2G_n7PN">
    <mxGraphModel dx="575" dy="332" grid="1" gridSize="10" guides="1" tooltips="1" connect="1" arrows="1" fold="1" page="1" pageScale="1" pageWidth="1654" pageHeight="2336" math="0" shadow="0">
      <root>
        <mxCell id="0" />
        <mxCell id="1" parent="0" />
        <mxCell id="MPSzHl6AMQkyP7CY1vwX-232" value="" style="group;flipV=1;" vertex="1" connectable="0" parent="1">
          <mxGeometry x="470" y="800" width="80" height="70" as="geometry" />
        </mxCell>
        <mxCell id="MPSzHl6AMQkyP7CY1vwX-233" value="&lt;div&gt;&lt;span style=&quot;background-color: light-dark(#ffffff, var(--ge-dark-color, #121212)); color: light-dark(rgb(0, 0, 0), rgb(255, 255, 255));&quot;&gt;XVTR&lt;/span&gt;&lt;/div&gt;&lt;div&gt;&lt;span style=&quot;background-color: light-dark(#ffffff, var(--ge-dark-color, #121212)); color: light-dark(rgb(0, 0, 0), rgb(255, 255, 255));&quot;&gt;&lt;br&gt;&lt;/span&gt;&lt;/div&gt;&lt;div&gt;&lt;span style=&quot;background-color: light-dark(#ffffff, var(--ge-dark-color, #121212)); color: light-dark(rgb(0, 0, 0), rgb(255, 255, 255));&quot;&gt;&lt;br&gt;&lt;/span&gt;&lt;/div&gt;&lt;div&gt;&lt;span style=&quot;background-color: light-dark(#ffffff, var(--ge-dark-color, #121212)); color: light-dark(rgb(0, 0, 0), rgb(255, 255, 255));&quot;&gt;&lt;br&gt;&lt;/span&gt;&lt;/div&gt;" style="rounded=1;whiteSpace=wrap;html=1;fontFamily=Helvetica;fontSize=11;fontColor=default;labelBackgroundColor=default;labelPosition=center;verticalLabelPosition=middle;align=center;verticalAlign=middle;" vertex="1" parent="MPSzHl6AMQkyP7CY1vwX-232">
          <mxGeometry width="80" height="70" as="geometry" />
        </mxCell>
        <mxCell id="MPSzHl6AMQkyP7CY1vwX-234" value="" style="ellipse;whiteSpace=wrap;html=1;aspect=fixed;" vertex="1" parent="MPSzHl6AMQkyP7CY1vwX-232">
          <mxGeometry x="40" y="60.33166666666674" width="4.374999999999999" height="4.374999999999999" as="geometry" />
        </mxCell>
        <mxCell id="MPSzHl6AMQkyP7CY1vwX-235" value="" style="ellipse;whiteSpace=wrap;html=1;aspect=fixed;" vertex="1" parent="MPSzHl6AMQkyP7CY1vwX-232">
          <mxGeometry x="40" y="30.00166666666675" width="4.374999999999999" height="4.374999999999999" as="geometry" />
        </mxCell>
        <mxCell id="MPSzHl6AMQkyP7CY1vwX-236" value="" style="ellipse;whiteSpace=wrap;html=1;aspect=fixed;" vertex="1" parent="MPSzHl6AMQkyP7CY1vwX-232">
          <mxGeometry x="10" y="41.671666666666745" width="4.374999999999999" height="4.374999999999999" as="geometry" />
        </mxCell>
        <mxCell id="MPSzHl6AMQkyP7CY1vwX-237" value="" style="endArrow=none;html=1;rounded=0;entryX=1;entryY=0.5;entryDx=0;entryDy=0;exitX=0;exitY=0;exitDx=0;exitDy=0;" edge="1" parent="MPSzHl6AMQkyP7CY1vwX-232" source="MPSzHl6AMQkyP7CY1vwX-234" target="MPSzHl6AMQkyP7CY1vwX-236">
          <mxGeometry width="50" height="50" relative="1" as="geometry">
            <mxPoint x="-20" y="29.996666666666748" as="sourcePoint" />
            <mxPoint x="30" y="88.33000000000007" as="targetPoint" />
          </mxGeometry>
        </mxCell>
        <mxCell id="MPSzHl6AMQkyP7CY1vwX-238" value="" style="endArrow=none;html=1;rounded=0;entryX=1;entryY=0.5;entryDx=0;entryDy=0;exitX=0;exitY=1;exitDx=0;exitDy=0;dashed=1;" edge="1" parent="MPSzHl6AMQkyP7CY1vwX-232" source="MPSzHl6AMQkyP7CY1vwX-235" target="MPSzHl6AMQkyP7CY1vwX-236">
          <mxGeometry width="50" height="50" relative="1" as="geometry">
            <mxPoint x="34" y="48.66333333333341" as="sourcePoint" />
            <mxPoint x="61" y="32.33000000000008" as="targetPoint" />
          </mxGeometry>
        </mxCell>
        <mxCell id="MPSzHl6AMQkyP7CY1vwX-239" value="1" style="text;html=1;align=center;verticalAlign=middle;whiteSpace=wrap;rounded=0;fontSize=8;" vertex="1" parent="MPSzHl6AMQkyP7CY1vwX-232">
          <mxGeometry x="37.19" y="49.66333333333341" width="10" height="11.666666666666666" as="geometry" />
        </mxCell>
        <mxCell id="MPSzHl6AMQkyP7CY1vwX-240" value="0" style="text;html=1;align=center;verticalAlign=middle;whiteSpace=wrap;rounded=0;fontSize=8;" vertex="1" parent="MPSzHl6AMQkyP7CY1vwX-232">
          <mxGeometry x="37.19" y="34.37666666666675" width="10" height="11.666666666666666" as="geometry" />
        </mxCell>
        <mxCell id="nqcRDhzoilnJjKWwHqof-358" style="edgeStyle=orthogonalEdgeStyle;rounded=0;orthogonalLoop=1;jettySize=auto;html=1;exitX=1;exitY=0.5;exitDx=0;exitDy=0;entryX=0;entryY=0.5;entryDx=0;entryDy=0;" parent="1" source="nqcRDhzoilnJjKWwHqof-225" target="nqcRDhzoilnJjKWwHqof-357" edge="1">
          <mxGeometry relative="1" as="geometry" />
        </mxCell>
        <mxCell id="nqcRDhzoilnJjKWwHqof-225" value="bool TXBPF_state" style="text;html=1;align=center;verticalAlign=middle;whiteSpace=wrap;rounded=0;fontFamily=Courier New;fontStyle=1;fillColor=none;strokeColor=default;" parent="1" vertex="1">
          <mxGeometry x="280" y="700" width="120" height="30" as="geometry" />
        </mxCell>
        <mxCell id="nqcRDhzoilnJjKWwHqof-360" style="edgeStyle=orthogonalEdgeStyle;rounded=0;orthogonalLoop=1;jettySize=auto;html=1;exitX=1;exitY=0.5;exitDx=0;exitDy=0;entryX=0;entryY=0.5;entryDx=0;entryDy=0;" parent="1" source="nqcRDhzoilnJjKWwHqof-234" target="nqcRDhzoilnJjKWwHqof-359" edge="1">
          <mxGeometry relative="1" as="geometry" />
        </mxCell>
        <mxCell id="nqcRDhzoilnJjKWwHqof-234" value="bool RXBPF_state" style="text;html=1;align=center;verticalAlign=middle;whiteSpace=wrap;rounded=0;fontFamily=Courier New;fontStyle=1;strokeColor=default;" parent="1" vertex="1">
          <mxGeometry x="280" y="750" width="120" height="30" as="geometry" />
        </mxCell>
        <mxCell id="nqcRDhzoilnJjKWwHqof-289" value="BPF control functions" style="swimlane;fontStyle=0;childLayout=stackLayout;horizontal=1;startSize=30;horizontalStack=0;resizeParent=1;resizeParentMax=0;resizeLast=0;collapsible=1;marginBottom=0;whiteSpace=wrap;html=1;" parent="1" vertex="1">
          <mxGeometry x="30" y="670" width="200" height="130" as="geometry" />
        </mxCell>
        <mxCell id="nqcRDhzoilnJjKWwHqof-290" value="TXSelectBPF()" style="text;strokeColor=none;fillColor=none;align=left;verticalAlign=middle;spacingLeft=4;spacingRight=4;overflow=hidden;points=[[0,0.5],[1,0.5]];portConstraint=eastwest;rotatable=0;whiteSpace=wrap;html=1;fontFamily=Courier New;fontSize=10;fontStyle=1" parent="nqcRDhzoilnJjKWwHqof-289" vertex="1">
          <mxGeometry y="30" width="200" height="20" as="geometry" />
        </mxCell>
        <mxCell id="nqcRDhzoilnJjKWwHqof-292" value="&lt;span style=&quot;font-family: &amp;quot;Courier New&amp;quot;; font-size: 10px; font-weight: 700;&quot;&gt;TXBypassBPF()&lt;/span&gt;" style="text;strokeColor=none;fillColor=none;align=left;verticalAlign=middle;spacingLeft=4;spacingRight=4;overflow=hidden;points=[[0,0.5],[1,0.5]];portConstraint=eastwest;rotatable=0;whiteSpace=wrap;html=1;" parent="nqcRDhzoilnJjKWwHqof-289" vertex="1">
          <mxGeometry y="50" width="200" height="20" as="geometry" />
        </mxCell>
        <mxCell id="nqcRDhzoilnJjKWwHqof-293" value="&lt;span style=&quot;font-family: &amp;quot;Courier New&amp;quot;; font-size: 10px; font-weight: 700;&quot;&gt;RXSelectBPF()&lt;/span&gt;" style="text;strokeColor=none;fillColor=none;align=left;verticalAlign=middle;spacingLeft=4;spacingRight=4;overflow=hidden;points=[[0,0.5],[1,0.5]];portConstraint=eastwest;rotatable=0;whiteSpace=wrap;html=1;" parent="nqcRDhzoilnJjKWwHqof-289" vertex="1">
          <mxGeometry y="70" width="200" height="20" as="geometry" />
        </mxCell>
        <mxCell id="nqcRDhzoilnJjKWwHqof-294" value="&lt;span style=&quot;font-family: &amp;quot;Courier New&amp;quot;; font-size: 10px; font-weight: 700;&quot;&gt;RXBypassBPF()&lt;/span&gt;" style="text;strokeColor=none;fillColor=none;align=left;verticalAlign=middle;spacingLeft=4;spacingRight=4;overflow=hidden;points=[[0,0.5],[1,0.5]];portConstraint=eastwest;rotatable=0;whiteSpace=wrap;html=1;" parent="nqcRDhzoilnJjKWwHqof-289" vertex="1">
          <mxGeometry y="90" width="200" height="20" as="geometry" />
        </mxCell>
        <mxCell id="nqcRDhzoilnJjKWwHqof-309" value="&lt;span style=&quot;font-family: &amp;quot;Courier New&amp;quot;; font-size: 10px; font-weight: 700;&quot;&gt;InitBPFPathControl()&lt;/span&gt;" style="text;strokeColor=none;fillColor=none;align=left;verticalAlign=middle;spacingLeft=4;spacingRight=4;overflow=hidden;points=[[0,0.5],[1,0.5]];portConstraint=eastwest;rotatable=0;whiteSpace=wrap;html=1;" parent="nqcRDhzoilnJjKWwHqof-289" vertex="1">
          <mxGeometry y="110" width="200" height="20" as="geometry" />
        </mxCell>
        <mxCell id="nqcRDhzoilnJjKWwHqof-299" value="HI" style="rounded=0;orthogonalLoop=1;jettySize=auto;html=1;exitX=1;exitY=0.5;exitDx=0;exitDy=0;entryX=0;entryY=0.25;entryDx=0;entryDy=0;" parent="1" source="nqcRDhzoilnJjKWwHqof-290" target="nqcRDhzoilnJjKWwHqof-225" edge="1">
          <mxGeometry relative="1" as="geometry" />
        </mxCell>
        <mxCell id="nqcRDhzoilnJjKWwHqof-300" value="LO" style="rounded=0;orthogonalLoop=1;jettySize=auto;html=1;exitX=0;exitY=0.75;exitDx=0;exitDy=0;entryX=1;entryY=0.5;entryDx=0;entryDy=0;startArrow=classic;startFill=1;endArrow=none;" parent="1" source="nqcRDhzoilnJjKWwHqof-225" target="nqcRDhzoilnJjKWwHqof-292" edge="1">
          <mxGeometry relative="1" as="geometry" />
        </mxCell>
        <mxCell id="nqcRDhzoilnJjKWwHqof-301" value="HI" style="rounded=0;orthogonalLoop=1;jettySize=auto;html=1;exitX=1;exitY=0.5;exitDx=0;exitDy=0;entryX=0;entryY=0.25;entryDx=0;entryDy=0;" parent="1" source="nqcRDhzoilnJjKWwHqof-293" target="nqcRDhzoilnJjKWwHqof-234" edge="1">
          <mxGeometry relative="1" as="geometry" />
        </mxCell>
        <mxCell id="nqcRDhzoilnJjKWwHqof-302" value="LO" style="rounded=0;orthogonalLoop=1;jettySize=auto;html=1;exitX=0;exitY=0.75;exitDx=0;exitDy=0;entryX=1;entryY=0.5;entryDx=0;entryDy=0;startArrow=classic;startFill=1;endArrow=none;strokeColor=default;align=center;verticalAlign=middle;fontFamily=Helvetica;fontSize=11;fontColor=default;labelBackgroundColor=default;" parent="1" source="nqcRDhzoilnJjKWwHqof-234" target="nqcRDhzoilnJjKWwHqof-294" edge="1">
          <mxGeometry relative="1" as="geometry" />
        </mxCell>
        <mxCell id="nqcRDhzoilnJjKWwHqof-311" value="" style="group" parent="1" vertex="1" connectable="0">
          <mxGeometry x="1220" y="370" width="210" height="170" as="geometry" />
        </mxCell>
        <mxCell id="nqcRDhzoilnJjKWwHqof-310" value="Teensy to LPF Board Interface" style="rounded=1;whiteSpace=wrap;html=1;labelPosition=center;verticalLabelPosition=top;align=center;verticalAlign=bottom;" parent="nqcRDhzoilnJjKWwHqof-311" vertex="1">
          <mxGeometry y="20" width="210" height="150" as="geometry" />
        </mxCell>
        <mxCell id="nqcRDhzoilnJjKWwHqof-252" value="26" style="rounded=0;whiteSpace=wrap;html=1;" parent="nqcRDhzoilnJjKWwHqof-311" vertex="1">
          <mxGeometry x="90" y="60" width="20" height="20" as="geometry" />
        </mxCell>
        <mxCell id="nqcRDhzoilnJjKWwHqof-256" value="27" style="rounded=0;whiteSpace=wrap;html=1;" parent="nqcRDhzoilnJjKWwHqof-311" vertex="1">
          <mxGeometry x="90" y="80" width="20" height="20" as="geometry" />
        </mxCell>
        <mxCell id="nqcRDhzoilnJjKWwHqof-257" value="GPIO&lt;div&gt;pin&lt;/div&gt;" style="text;html=1;align=center;verticalAlign=middle;whiteSpace=wrap;rounded=0;fontFamily=Helvetica;fontStyle=1" parent="nqcRDhzoilnJjKWwHqof-311" vertex="1">
          <mxGeometry x="72.5" y="32" width="50" height="20" as="geometry" />
        </mxCell>
        <mxCell id="nqcRDhzoilnJjKWwHqof-258" value="22" style="rounded=0;whiteSpace=wrap;html=1;" parent="nqcRDhzoilnJjKWwHqof-311" vertex="1">
          <mxGeometry x="90" y="100" width="20" height="20" as="geometry" />
        </mxCell>
        <mxCell id="nqcRDhzoilnJjKWwHqof-261" value="For" style="text;html=1;align=left;verticalAlign=middle;whiteSpace=wrap;rounded=0;direction=west;horizontal=1;" parent="nqcRDhzoilnJjKWwHqof-311" vertex="1">
          <mxGeometry x="133.25" y="60" width="60" height="20" as="geometry" />
        </mxCell>
        <mxCell id="nqcRDhzoilnJjKWwHqof-262" value="Ref" style="text;html=1;align=left;verticalAlign=middle;whiteSpace=wrap;rounded=0;direction=west;horizontal=1;fontFamily=Helvetica;fontSize=12;fontColor=default;" parent="nqcRDhzoilnJjKWwHqof-311" vertex="1">
          <mxGeometry x="133.25" y="80" width="60" height="20" as="geometry" />
        </mxCell>
        <mxCell id="nqcRDhzoilnJjKWwHqof-263" value="RXTX" style="text;html=1;align=left;verticalAlign=middle;whiteSpace=wrap;rounded=0;direction=west;horizontal=1;" parent="nqcRDhzoilnJjKWwHqof-311" vertex="1">
          <mxGeometry x="133.25" y="100" width="60" height="20" as="geometry" />
        </mxCell>
        <mxCell id="nqcRDhzoilnJjKWwHqof-275" value="25" style="rounded=0;whiteSpace=wrap;html=1;" parent="nqcRDhzoilnJjKWwHqof-311" vertex="1">
          <mxGeometry x="90" y="120" width="20" height="20" as="geometry" />
        </mxCell>
        <mxCell id="nqcRDhzoilnJjKWwHqof-276" value="24" style="rounded=0;whiteSpace=wrap;html=1;" parent="nqcRDhzoilnJjKWwHqof-311" vertex="1">
          <mxGeometry x="90" y="140" width="20" height="20" as="geometry" />
        </mxCell>
        <mxCell id="nqcRDhzoilnJjKWwHqof-277" value="SDA2" style="text;html=1;align=left;verticalAlign=middle;whiteSpace=wrap;rounded=0;direction=west;horizontal=1;" parent="nqcRDhzoilnJjKWwHqof-311" vertex="1">
          <mxGeometry x="133.25" y="120" width="60" height="20" as="geometry" />
        </mxCell>
        <mxCell id="nqcRDhzoilnJjKWwHqof-278" value="SCL2" style="text;html=1;align=left;verticalAlign=middle;whiteSpace=wrap;rounded=0;direction=west;horizontal=1;" parent="nqcRDhzoilnJjKWwHqof-311" vertex="1">
          <mxGeometry x="133.25" y="140" width="60" height="20" as="geometry" />
        </mxCell>
        <mxCell id="nqcRDhzoilnJjKWwHqof-279" value="18" style="rounded=0;whiteSpace=wrap;html=1;strokeColor=default;align=center;verticalAlign=middle;fontFamily=Helvetica;fontSize=12;fontColor=#B3B3B3;fillColor=default;" parent="nqcRDhzoilnJjKWwHqof-311" vertex="1">
          <mxGeometry x="30" y="60" width="20" height="20" as="geometry" />
        </mxCell>
        <mxCell id="nqcRDhzoilnJjKWwHqof-281" value="19" style="rounded=0;whiteSpace=wrap;html=1;strokeColor=default;align=center;verticalAlign=middle;fontFamily=Helvetica;fontSize=12;fontColor=#B3B3B3;fillColor=default;" parent="nqcRDhzoilnJjKWwHqof-311" vertex="1">
          <mxGeometry x="30" y="80" width="20" height="20" as="geometry" />
        </mxCell>
        <mxCell id="nqcRDhzoilnJjKWwHqof-282" value="44" style="rounded=0;whiteSpace=wrap;html=1;strokeColor=default;align=center;verticalAlign=middle;fontFamily=Helvetica;fontSize=12;fontColor=#B3B3B3;fillColor=default;" parent="nqcRDhzoilnJjKWwHqof-311" vertex="1">
          <mxGeometry x="30" y="100" width="20" height="20" as="geometry" />
        </mxCell>
        <mxCell id="nqcRDhzoilnJjKWwHqof-283" value="17" style="rounded=0;whiteSpace=wrap;html=1;strokeColor=default;align=center;verticalAlign=middle;fontFamily=Helvetica;fontSize=12;fontColor=#B3B3B3;fillColor=default;" parent="nqcRDhzoilnJjKWwHqof-311" vertex="1">
          <mxGeometry x="30" y="120" width="20" height="20" as="geometry" />
        </mxCell>
        <mxCell id="nqcRDhzoilnJjKWwHqof-284" value="16" style="rounded=0;whiteSpace=wrap;html=1;strokeColor=default;align=center;verticalAlign=middle;fontFamily=Helvetica;fontSize=12;fontColor=#B3B3B3;fillColor=default;" parent="nqcRDhzoilnJjKWwHqof-311" vertex="1">
          <mxGeometry x="30" y="140" width="20" height="20" as="geometry" />
        </mxCell>
        <mxCell id="nqcRDhzoilnJjKWwHqof-285" value="Physical&lt;div&gt;pin&lt;/div&gt;" style="text;html=1;align=center;verticalAlign=middle;whiteSpace=wrap;rounded=0;fontFamily=Helvetica;fontStyle=1" parent="nqcRDhzoilnJjKWwHqof-311" vertex="1">
          <mxGeometry x="12.5" y="32" width="50" height="20" as="geometry" />
        </mxCell>
        <mxCell id="nqcRDhzoilnJjKWwHqof-286" value="Function" style="text;html=1;align=left;verticalAlign=middle;whiteSpace=wrap;rounded=0;fontFamily=Helvetica;fontStyle=1" parent="nqcRDhzoilnJjKWwHqof-311" vertex="1">
          <mxGeometry x="127.5" y="40" width="70" height="20" as="geometry" />
        </mxCell>
        <mxCell id="nqcRDhzoilnJjKWwHqof-357" value="TX BPF" style="rounded=1;whiteSpace=wrap;html=1;fontFamily=Helvetica;fontSize=11;fontColor=default;labelBackgroundColor=default;" parent="1" vertex="1">
          <mxGeometry x="470" y="695" width="110" height="40" as="geometry" />
        </mxCell>
        <mxCell id="nqcRDhzoilnJjKWwHqof-359" value="RX BPF" style="rounded=1;whiteSpace=wrap;html=1;fontFamily=Helvetica;fontSize=11;fontColor=default;labelBackgroundColor=default;" parent="1" vertex="1">
          <mxGeometry x="470" y="745" width="110" height="40" as="geometry" />
        </mxCell>
        <mxCell id="nqcRDhzoilnJjKWwHqof-400" value="HI=TX&lt;div&gt;LO=RX&lt;/div&gt;" style="edgeStyle=orthogonalEdgeStyle;rounded=0;orthogonalLoop=1;jettySize=auto;html=1;exitX=1;exitY=0.5;exitDx=0;exitDy=0;entryX=0;entryY=0.5;entryDx=0;entryDy=0;" parent="1" source="nqcRDhzoilnJjKWwHqof-399" target="MPSzHl6AMQkyP7CY1vwX-312" edge="1">
          <mxGeometry relative="1" as="geometry">
            <mxPoint x="509.5" y="1570" as="targetPoint" />
          </mxGeometry>
        </mxCell>
        <mxCell id="nqcRDhzoilnJjKWwHqof-399" value="bool rxtxState" style="text;html=1;align=center;verticalAlign=middle;whiteSpace=wrap;rounded=0;fontFamily=Courier New;fontStyle=1;strokeColor=default;" parent="1" vertex="1">
          <mxGeometry x="280" y="1580" width="100" height="30" as="geometry" />
        </mxCell>
        <mxCell id="nqcRDhzoilnJjKWwHqof-401" value="RX/TX Control" style="swimlane;fontStyle=0;childLayout=stackLayout;horizontal=1;startSize=30;horizontalStack=0;resizeParent=1;resizeParentMax=0;resizeLast=0;collapsible=1;marginBottom=0;whiteSpace=wrap;html=1;" parent="1" vertex="1">
          <mxGeometry x="30" y="1540" width="200" height="90" as="geometry" />
        </mxCell>
        <mxCell id="nqcRDhzoilnJjKWwHqof-402" value="SelectTXMode()" style="text;strokeColor=none;fillColor=none;align=left;verticalAlign=middle;spacingLeft=4;spacingRight=4;overflow=hidden;points=[[0,0.5],[1,0.5]];portConstraint=eastwest;rotatable=0;whiteSpace=wrap;html=1;fontFamily=Courier New;fontSize=10;fontStyle=1" parent="nqcRDhzoilnJjKWwHqof-401" vertex="1">
          <mxGeometry y="30" width="200" height="20" as="geometry" />
        </mxCell>
        <mxCell id="nqcRDhzoilnJjKWwHqof-403" value="&lt;span style=&quot;font-family: &amp;quot;Courier New&amp;quot;; font-size: 10px; font-weight: 700;&quot;&gt;SelectRXMode()&lt;/span&gt;" style="text;strokeColor=none;fillColor=none;align=left;verticalAlign=middle;spacingLeft=4;spacingRight=4;overflow=hidden;points=[[0,0.5],[1,0.5]];portConstraint=eastwest;rotatable=0;whiteSpace=wrap;html=1;" parent="nqcRDhzoilnJjKWwHqof-401" vertex="1">
          <mxGeometry y="50" width="200" height="20" as="geometry" />
        </mxCell>
        <mxCell id="nqcRDhzoilnJjKWwHqof-408" value="&lt;span style=&quot;font-family: &amp;quot;Courier New&amp;quot;; font-size: 10px; font-weight: 700;&quot;&gt;InitRXTX()&lt;/span&gt;" style="text;strokeColor=none;fillColor=none;align=left;verticalAlign=middle;spacingLeft=4;spacingRight=4;overflow=hidden;points=[[0,0.5],[1,0.5]];portConstraint=eastwest;rotatable=0;whiteSpace=wrap;html=1;" parent="nqcRDhzoilnJjKWwHqof-401" vertex="1">
          <mxGeometry y="70" width="200" height="20" as="geometry" />
        </mxCell>
        <mxCell id="nqcRDhzoilnJjKWwHqof-409" value="HI" style="rounded=0;orthogonalLoop=1;jettySize=auto;html=1;exitX=1;exitY=0.5;exitDx=0;exitDy=0;entryX=0;entryY=0.25;entryDx=0;entryDy=0;" parent="1" source="nqcRDhzoilnJjKWwHqof-402" target="nqcRDhzoilnJjKWwHqof-399" edge="1">
          <mxGeometry relative="1" as="geometry" />
        </mxCell>
        <mxCell id="nqcRDhzoilnJjKWwHqof-410" value="LO" style="rounded=0;orthogonalLoop=1;jettySize=auto;html=1;exitX=1;exitY=0.5;exitDx=0;exitDy=0;entryX=0;entryY=0.75;entryDx=0;entryDy=0;" parent="1" source="nqcRDhzoilnJjKWwHqof-403" target="nqcRDhzoilnJjKWwHqof-399" edge="1">
          <mxGeometry relative="1" as="geometry" />
        </mxCell>
        <mxCell id="nqcRDhzoilnJjKWwHqof-411" value="XVTR control functions" style="swimlane;fontStyle=0;childLayout=stackLayout;horizontal=1;startSize=30;horizontalStack=0;resizeParent=1;resizeParentMax=0;resizeLast=0;collapsible=1;marginBottom=0;whiteSpace=wrap;html=1;" parent="1" vertex="1">
          <mxGeometry x="30" y="837" width="200" height="90" as="geometry" />
        </mxCell>
        <mxCell id="nqcRDhzoilnJjKWwHqof-412" value="SelectXVTR()" style="text;strokeColor=none;fillColor=none;align=left;verticalAlign=middle;spacingLeft=4;spacingRight=4;overflow=hidden;points=[[0,0.5],[1,0.5]];portConstraint=eastwest;rotatable=0;whiteSpace=wrap;html=1;fontFamily=Courier New;fontSize=10;fontStyle=1" parent="nqcRDhzoilnJjKWwHqof-411" vertex="1">
          <mxGeometry y="30" width="200" height="20" as="geometry" />
        </mxCell>
        <mxCell id="nqcRDhzoilnJjKWwHqof-413" value="&lt;span style=&quot;font-family: &amp;quot;Courier New&amp;quot;; font-size: 10px; font-weight: 700;&quot;&gt;BypassXVTR()&lt;/span&gt;" style="text;strokeColor=none;fillColor=none;align=left;verticalAlign=middle;spacingLeft=4;spacingRight=4;overflow=hidden;points=[[0,0.5],[1,0.5]];portConstraint=eastwest;rotatable=0;whiteSpace=wrap;html=1;" parent="nqcRDhzoilnJjKWwHqof-411" vertex="1">
          <mxGeometry y="50" width="200" height="20" as="geometry" />
        </mxCell>
        <mxCell id="nqcRDhzoilnJjKWwHqof-414" value="&lt;span style=&quot;font-family: &amp;quot;Courier New&amp;quot;; font-size: 10px; font-weight: 700;&quot;&gt;InitXVTRControl()&lt;/span&gt;" style="text;strokeColor=none;fillColor=none;align=left;verticalAlign=middle;spacingLeft=4;spacingRight=4;overflow=hidden;points=[[0,0.5],[1,0.5]];portConstraint=eastwest;rotatable=0;whiteSpace=wrap;html=1;" parent="nqcRDhzoilnJjKWwHqof-411" vertex="1">
          <mxGeometry y="70" width="200" height="20" as="geometry" />
        </mxCell>
        <mxCell id="nqcRDhzoilnJjKWwHqof-426" value="HI=Bypass&lt;div&gt;LO=XVTR&lt;/div&gt;" style="edgeStyle=orthogonalEdgeStyle;rounded=0;orthogonalLoop=1;jettySize=auto;html=1;exitX=1;exitY=0.5;exitDx=0;exitDy=0;entryX=0.5;entryY=1;entryDx=0;entryDy=0;" parent="1" source="nqcRDhzoilnJjKWwHqof-415" target="MPSzHl6AMQkyP7CY1vwX-233" edge="1">
          <mxGeometry relative="1" as="geometry">
            <mxPoint x="510" y="870.0000000000002" as="targetPoint" />
          </mxGeometry>
        </mxCell>
        <mxCell id="nqcRDhzoilnJjKWwHqof-415" value="bool XVTR_state" style="text;html=1;align=center;verticalAlign=middle;whiteSpace=wrap;rounded=0;fontFamily=Courier New;fontStyle=1;strokeColor=default;" parent="1" vertex="1">
          <mxGeometry x="280" y="877" width="120" height="30" as="geometry" />
        </mxCell>
        <mxCell id="nqcRDhzoilnJjKWwHqof-427" value="LO" style="rounded=0;orthogonalLoop=1;jettySize=auto;html=1;exitX=1;exitY=0.5;exitDx=0;exitDy=0;entryX=0;entryY=0.25;entryDx=0;entryDy=0;" parent="1" source="nqcRDhzoilnJjKWwHqof-412" target="nqcRDhzoilnJjKWwHqof-415" edge="1">
          <mxGeometry relative="1" as="geometry" />
        </mxCell>
        <mxCell id="nqcRDhzoilnJjKWwHqof-428" value="HI" style="rounded=0;orthogonalLoop=1;jettySize=auto;html=1;exitX=1;exitY=0.5;exitDx=0;exitDy=0;entryX=0;entryY=0.75;entryDx=0;entryDy=0;" parent="1" source="nqcRDhzoilnJjKWwHqof-413" target="nqcRDhzoilnJjKWwHqof-415" edge="1">
          <mxGeometry relative="1" as="geometry" />
        </mxCell>
        <mxCell id="nqcRDhzoilnJjKWwHqof-479" value="State Diagram" style="shape=table;startSize=30;container=1;collapsible=0;childLayout=tableLayout;strokeColor=default;fontSize=16;" parent="1" vertex="1">
          <mxGeometry x="1111" y="627" width="319" height="266" as="geometry" />
        </mxCell>
        <mxCell id="nqcRDhzoilnJjKWwHqof-480" value="" style="shape=tableRow;horizontal=0;startSize=0;swimlaneHead=0;swimlaneBody=0;strokeColor=inherit;top=0;left=0;bottom=0;right=0;collapsible=0;dropTarget=0;fillColor=none;points=[[0,0.5],[1,0.5]];portConstraint=eastwest;fontSize=16;" parent="nqcRDhzoilnJjKWwHqof-479" vertex="1">
          <mxGeometry y="30" width="319" height="40" as="geometry" />
        </mxCell>
        <mxCell id="nqcRDhzoilnJjKWwHqof-481" value="Variable" style="shape=partialRectangle;html=1;whiteSpace=wrap;connectable=0;strokeColor=inherit;overflow=hidden;fillColor=none;top=0;left=0;bottom=0;right=0;pointerEvents=1;fontSize=16;fontStyle=1" parent="nqcRDhzoilnJjKWwHqof-480" vertex="1">
          <mxGeometry width="159" height="40" as="geometry">
            <mxRectangle width="159" height="40" as="alternateBounds" />
          </mxGeometry>
        </mxCell>
        <mxCell id="nqcRDhzoilnJjKWwHqof-482" value="Receive" style="shape=partialRectangle;html=1;whiteSpace=wrap;connectable=0;strokeColor=inherit;overflow=hidden;fillColor=none;top=0;left=0;bottom=0;right=0;pointerEvents=1;fontSize=16;fontStyle=1" parent="nqcRDhzoilnJjKWwHqof-480" vertex="1">
          <mxGeometry x="159" width="80" height="40" as="geometry">
            <mxRectangle width="80" height="40" as="alternateBounds" />
          </mxGeometry>
        </mxCell>
        <mxCell id="nqcRDhzoilnJjKWwHqof-483" value="Transmit" style="shape=partialRectangle;html=1;whiteSpace=wrap;connectable=0;strokeColor=inherit;overflow=hidden;fillColor=none;top=0;left=0;bottom=0;right=0;pointerEvents=1;fontSize=16;fontStyle=1" parent="nqcRDhzoilnJjKWwHqof-480" vertex="1">
          <mxGeometry x="239" width="80" height="40" as="geometry">
            <mxRectangle width="80" height="40" as="alternateBounds" />
          </mxGeometry>
        </mxCell>
        <mxCell id="nqcRDhzoilnJjKWwHqof-484" value="" style="shape=tableRow;horizontal=0;startSize=0;swimlaneHead=0;swimlaneBody=0;strokeColor=inherit;top=0;left=0;bottom=0;right=0;collapsible=0;dropTarget=0;fillColor=none;points=[[0,0.5],[1,0.5]];portConstraint=eastwest;fontSize=16;" parent="nqcRDhzoilnJjKWwHqof-479" vertex="1">
          <mxGeometry y="70" width="319" height="28" as="geometry" />
        </mxCell>
        <mxCell id="nqcRDhzoilnJjKWwHqof-485" value="TXBPF_state" style="shape=partialRectangle;html=1;whiteSpace=wrap;connectable=0;strokeColor=inherit;overflow=hidden;fillColor=none;top=0;left=0;bottom=0;right=0;pointerEvents=1;fontSize=12;fontFamily=Courier New;fontStyle=1" parent="nqcRDhzoilnJjKWwHqof-484" vertex="1">
          <mxGeometry width="159" height="28" as="geometry">
            <mxRectangle width="159" height="28" as="alternateBounds" />
          </mxGeometry>
        </mxCell>
        <mxCell id="nqcRDhzoilnJjKWwHqof-486" value="LO" style="shape=partialRectangle;html=1;whiteSpace=wrap;connectable=0;strokeColor=inherit;overflow=hidden;fillColor=none;top=0;left=0;bottom=0;right=0;pointerEvents=1;fontSize=16;" parent="nqcRDhzoilnJjKWwHqof-484" vertex="1">
          <mxGeometry x="159" width="80" height="28" as="geometry">
            <mxRectangle width="80" height="28" as="alternateBounds" />
          </mxGeometry>
        </mxCell>
        <mxCell id="nqcRDhzoilnJjKWwHqof-487" value="HI" style="shape=partialRectangle;html=1;whiteSpace=wrap;connectable=0;strokeColor=inherit;overflow=hidden;fillColor=none;top=0;left=0;bottom=0;right=0;pointerEvents=1;fontSize=16;" parent="nqcRDhzoilnJjKWwHqof-484" vertex="1">
          <mxGeometry x="239" width="80" height="28" as="geometry">
            <mxRectangle width="80" height="28" as="alternateBounds" />
          </mxGeometry>
        </mxCell>
        <mxCell id="nqcRDhzoilnJjKWwHqof-525" value="" style="shape=tableRow;horizontal=0;startSize=0;swimlaneHead=0;swimlaneBody=0;strokeColor=inherit;top=0;left=0;bottom=0;right=0;collapsible=0;dropTarget=0;fillColor=none;points=[[0,0.5],[1,0.5]];portConstraint=eastwest;fontSize=16;" parent="nqcRDhzoilnJjKWwHqof-479" vertex="1">
          <mxGeometry y="98" width="319" height="28" as="geometry" />
        </mxCell>
        <mxCell id="nqcRDhzoilnJjKWwHqof-526" value="RXBPF_state" style="shape=partialRectangle;html=1;whiteSpace=wrap;connectable=0;strokeColor=inherit;overflow=hidden;fillColor=none;top=0;left=0;bottom=0;right=0;pointerEvents=1;fontSize=12;fontFamily=Courier New;fontStyle=1" parent="nqcRDhzoilnJjKWwHqof-525" vertex="1">
          <mxGeometry width="159" height="28" as="geometry">
            <mxRectangle width="159" height="28" as="alternateBounds" />
          </mxGeometry>
        </mxCell>
        <mxCell id="nqcRDhzoilnJjKWwHqof-527" value="HI" style="shape=partialRectangle;html=1;whiteSpace=wrap;connectable=0;strokeColor=inherit;overflow=hidden;fillColor=none;top=0;left=0;bottom=0;right=0;pointerEvents=1;fontSize=16;" parent="nqcRDhzoilnJjKWwHqof-525" vertex="1">
          <mxGeometry x="159" width="80" height="28" as="geometry">
            <mxRectangle width="80" height="28" as="alternateBounds" />
          </mxGeometry>
        </mxCell>
        <mxCell id="nqcRDhzoilnJjKWwHqof-528" value="LO" style="shape=partialRectangle;html=1;whiteSpace=wrap;connectable=0;strokeColor=inherit;overflow=hidden;fillColor=none;top=0;left=0;bottom=0;right=0;pointerEvents=1;fontSize=16;" parent="nqcRDhzoilnJjKWwHqof-525" vertex="1">
          <mxGeometry x="239" width="80" height="28" as="geometry">
            <mxRectangle width="80" height="28" as="alternateBounds" />
          </mxGeometry>
        </mxCell>
        <mxCell id="nqcRDhzoilnJjKWwHqof-530" value="" style="shape=tableRow;horizontal=0;startSize=0;swimlaneHead=0;swimlaneBody=0;strokeColor=inherit;top=0;left=0;bottom=0;right=0;collapsible=0;dropTarget=0;fillColor=none;points=[[0,0.5],[1,0.5]];portConstraint=eastwest;fontSize=16;" parent="nqcRDhzoilnJjKWwHqof-479" vertex="1">
          <mxGeometry y="126" width="319" height="28" as="geometry" />
        </mxCell>
        <mxCell id="nqcRDhzoilnJjKWwHqof-531" value="XVTR_state" style="shape=partialRectangle;html=1;whiteSpace=wrap;connectable=0;strokeColor=inherit;overflow=hidden;fillColor=none;top=0;left=0;bottom=0;right=0;pointerEvents=1;fontSize=12;fontFamily=Courier New;fontStyle=1" parent="nqcRDhzoilnJjKWwHqof-530" vertex="1">
          <mxGeometry width="159" height="28" as="geometry">
            <mxRectangle width="159" height="28" as="alternateBounds" />
          </mxGeometry>
        </mxCell>
        <mxCell id="nqcRDhzoilnJjKWwHqof-532" value="HI" style="shape=partialRectangle;html=1;whiteSpace=wrap;connectable=0;strokeColor=inherit;overflow=hidden;fillColor=none;top=0;left=0;bottom=0;right=0;pointerEvents=1;fontSize=16;" parent="nqcRDhzoilnJjKWwHqof-530" vertex="1">
          <mxGeometry x="159" width="80" height="28" as="geometry">
            <mxRectangle width="80" height="28" as="alternateBounds" />
          </mxGeometry>
        </mxCell>
        <mxCell id="nqcRDhzoilnJjKWwHqof-533" value="HI" style="shape=partialRectangle;html=1;whiteSpace=wrap;connectable=0;strokeColor=inherit;overflow=hidden;fillColor=none;top=0;left=0;bottom=0;right=0;pointerEvents=1;fontSize=16;" parent="nqcRDhzoilnJjKWwHqof-530" vertex="1">
          <mxGeometry x="239" width="80" height="28" as="geometry">
            <mxRectangle width="80" height="28" as="alternateBounds" />
          </mxGeometry>
        </mxCell>
        <mxCell id="nqcRDhzoilnJjKWwHqof-535" value="" style="shape=tableRow;horizontal=0;startSize=0;swimlaneHead=0;swimlaneBody=0;strokeColor=inherit;top=0;left=0;bottom=0;right=0;collapsible=0;dropTarget=0;fillColor=none;points=[[0,0.5],[1,0.5]];portConstraint=eastwest;fontSize=16;" parent="nqcRDhzoilnJjKWwHqof-479" vertex="1">
          <mxGeometry y="154" width="319" height="28" as="geometry" />
        </mxCell>
        <mxCell id="nqcRDhzoilnJjKWwHqof-536" value="100W_state" style="shape=partialRectangle;html=1;whiteSpace=wrap;connectable=0;strokeColor=inherit;overflow=hidden;fillColor=none;top=0;left=0;bottom=0;right=0;pointerEvents=1;fontSize=12;fontFamily=Courier New;fontStyle=1" parent="nqcRDhzoilnJjKWwHqof-535" vertex="1">
          <mxGeometry width="159" height="28" as="geometry">
            <mxRectangle width="159" height="28" as="alternateBounds" />
          </mxGeometry>
        </mxCell>
        <mxCell id="nqcRDhzoilnJjKWwHqof-537" value="LO" style="shape=partialRectangle;html=1;whiteSpace=wrap;connectable=0;strokeColor=inherit;overflow=hidden;fillColor=none;top=0;left=0;bottom=0;right=0;pointerEvents=1;fontSize=16;" parent="nqcRDhzoilnJjKWwHqof-535" vertex="1">
          <mxGeometry x="159" width="80" height="28" as="geometry">
            <mxRectangle width="80" height="28" as="alternateBounds" />
          </mxGeometry>
        </mxCell>
        <mxCell id="nqcRDhzoilnJjKWwHqof-538" value="LO" style="shape=partialRectangle;html=1;whiteSpace=wrap;connectable=0;strokeColor=inherit;overflow=hidden;fillColor=none;top=0;left=0;bottom=0;right=0;pointerEvents=1;fontSize=16;" parent="nqcRDhzoilnJjKWwHqof-535" vertex="1">
          <mxGeometry x="239" width="80" height="28" as="geometry">
            <mxRectangle width="80" height="28" as="alternateBounds" />
          </mxGeometry>
        </mxCell>
        <mxCell id="nqcRDhzoilnJjKWwHqof-540" value="" style="shape=tableRow;horizontal=0;startSize=0;swimlaneHead=0;swimlaneBody=0;strokeColor=inherit;top=0;left=0;bottom=0;right=0;collapsible=0;dropTarget=0;fillColor=none;points=[[0,0.5],[1,0.5]];portConstraint=eastwest;fontSize=16;" parent="nqcRDhzoilnJjKWwHqof-479" vertex="1">
          <mxGeometry y="182" width="319" height="28" as="geometry" />
        </mxCell>
        <mxCell id="nqcRDhzoilnJjKWwHqof-541" value="band" style="shape=partialRectangle;html=1;whiteSpace=wrap;connectable=0;strokeColor=inherit;overflow=hidden;fillColor=none;top=0;left=0;bottom=0;right=0;pointerEvents=1;fontSize=12;fontFamily=Courier New;fontStyle=1" parent="nqcRDhzoilnJjKWwHqof-540" vertex="1">
          <mxGeometry width="159" height="28" as="geometry">
            <mxRectangle width="159" height="28" as="alternateBounds" />
          </mxGeometry>
        </mxCell>
        <mxCell id="nqcRDhzoilnJjKWwHqof-542" value="set" style="shape=partialRectangle;html=1;whiteSpace=wrap;connectable=0;strokeColor=inherit;overflow=hidden;fillColor=none;top=0;left=0;bottom=0;right=0;pointerEvents=1;fontSize=16;" parent="nqcRDhzoilnJjKWwHqof-540" vertex="1">
          <mxGeometry x="159" width="80" height="28" as="geometry">
            <mxRectangle width="80" height="28" as="alternateBounds" />
          </mxGeometry>
        </mxCell>
        <mxCell id="nqcRDhzoilnJjKWwHqof-543" value="set" style="shape=partialRectangle;html=1;whiteSpace=wrap;connectable=0;strokeColor=inherit;overflow=hidden;fillColor=none;top=0;left=0;bottom=0;right=0;pointerEvents=1;fontSize=16;" parent="nqcRDhzoilnJjKWwHqof-540" vertex="1">
          <mxGeometry x="239" width="80" height="28" as="geometry">
            <mxRectangle width="80" height="28" as="alternateBounds" />
          </mxGeometry>
        </mxCell>
        <mxCell id="nqcRDhzoilnJjKWwHqof-545" value="" style="shape=tableRow;horizontal=0;startSize=0;swimlaneHead=0;swimlaneBody=0;strokeColor=inherit;top=0;left=0;bottom=0;right=0;collapsible=0;dropTarget=0;fillColor=none;points=[[0,0.5],[1,0.5]];portConstraint=eastwest;fontSize=16;" parent="nqcRDhzoilnJjKWwHqof-479" vertex="1">
          <mxGeometry y="210" width="319" height="28" as="geometry" />
        </mxCell>
        <mxCell id="nqcRDhzoilnJjKWwHqof-546" value="antenna" style="shape=partialRectangle;html=1;whiteSpace=wrap;connectable=0;strokeColor=inherit;overflow=hidden;fillColor=none;top=0;left=0;bottom=0;right=0;pointerEvents=1;fontSize=12;fontFamily=Courier New;fontStyle=1" parent="nqcRDhzoilnJjKWwHqof-545" vertex="1">
          <mxGeometry width="159" height="28" as="geometry">
            <mxRectangle width="159" height="28" as="alternateBounds" />
          </mxGeometry>
        </mxCell>
        <mxCell id="nqcRDhzoilnJjKWwHqof-547" value="set" style="shape=partialRectangle;html=1;whiteSpace=wrap;connectable=0;strokeColor=inherit;overflow=hidden;fillColor=none;top=0;left=0;bottom=0;right=0;pointerEvents=1;fontSize=16;" parent="nqcRDhzoilnJjKWwHqof-545" vertex="1">
          <mxGeometry x="159" width="80" height="28" as="geometry">
            <mxRectangle width="80" height="28" as="alternateBounds" />
          </mxGeometry>
        </mxCell>
        <mxCell id="nqcRDhzoilnJjKWwHqof-548" value="set" style="shape=partialRectangle;html=1;whiteSpace=wrap;connectable=0;strokeColor=inherit;overflow=hidden;fillColor=none;top=0;left=0;bottom=0;right=0;pointerEvents=1;fontSize=16;" parent="nqcRDhzoilnJjKWwHqof-545" vertex="1">
          <mxGeometry x="239" width="80" height="28" as="geometry">
            <mxRectangle width="80" height="28" as="alternateBounds" />
          </mxGeometry>
        </mxCell>
        <mxCell id="nqcRDhzoilnJjKWwHqof-565" value="" style="shape=tableRow;horizontal=0;startSize=0;swimlaneHead=0;swimlaneBody=0;strokeColor=inherit;top=0;left=0;bottom=0;right=0;collapsible=0;dropTarget=0;fillColor=none;points=[[0,0.5],[1,0.5]];portConstraint=eastwest;fontSize=16;" parent="nqcRDhzoilnJjKWwHqof-479" vertex="1">
          <mxGeometry y="238" width="319" height="28" as="geometry" />
        </mxCell>
        <mxCell id="nqcRDhzoilnJjKWwHqof-566" value="rxtxState" style="shape=partialRectangle;html=1;whiteSpace=wrap;connectable=0;strokeColor=inherit;overflow=hidden;fillColor=none;top=0;left=0;bottom=0;right=0;pointerEvents=1;fontSize=12;fontFamily=Courier New;fontStyle=1" parent="nqcRDhzoilnJjKWwHqof-565" vertex="1">
          <mxGeometry width="159" height="28" as="geometry">
            <mxRectangle width="159" height="28" as="alternateBounds" />
          </mxGeometry>
        </mxCell>
        <mxCell id="nqcRDhzoilnJjKWwHqof-567" value="LO" style="shape=partialRectangle;html=1;whiteSpace=wrap;connectable=0;strokeColor=inherit;overflow=hidden;fillColor=none;top=0;left=0;bottom=0;right=0;pointerEvents=1;fontSize=16;" parent="nqcRDhzoilnJjKWwHqof-565" vertex="1">
          <mxGeometry x="159" width="80" height="28" as="geometry">
            <mxRectangle width="80" height="28" as="alternateBounds" />
          </mxGeometry>
        </mxCell>
        <mxCell id="nqcRDhzoilnJjKWwHqof-568" value="HI" style="shape=partialRectangle;html=1;whiteSpace=wrap;connectable=0;strokeColor=inherit;overflow=hidden;fillColor=none;top=0;left=0;bottom=0;right=0;pointerEvents=1;fontSize=16;" parent="nqcRDhzoilnJjKWwHqof-565" vertex="1">
          <mxGeometry x="239" width="80" height="28" as="geometry">
            <mxRectangle width="80" height="28" as="alternateBounds" />
          </mxGeometry>
        </mxCell>
        <mxCell id="MPSzHl6AMQkyP7CY1vwX-208" style="edgeStyle=orthogonalEdgeStyle;rounded=0;orthogonalLoop=1;jettySize=auto;html=1;exitX=0;exitY=0.5;exitDx=0;exitDy=0;entryX=0.5;entryY=1;entryDx=0;entryDy=0;strokeColor=light-dark(#787878, #ededed);strokeWidth=2;align=center;verticalAlign=middle;fontFamily=Helvetica;fontSize=11;fontColor=default;labelBackgroundColor=default;startArrow=none;startFill=0;endArrow=block;endFill=0;" edge="1" parent="1" source="nqcRDhzoilnJjKWwHqof-41" target="MPSzHl6AMQkyP7CY1vwX-12">
          <mxGeometry relative="1" as="geometry" />
        </mxCell>
        <mxCell id="MPSzHl6AMQkyP7CY1vwX-209" style="edgeStyle=orthogonalEdgeStyle;rounded=0;orthogonalLoop=1;jettySize=auto;html=1;exitX=0;exitY=0.25;exitDx=0;exitDy=0;entryX=0.75;entryY=1;entryDx=0;entryDy=0;strokeColor=light-dark(#787878, #ededed);strokeWidth=2;align=center;verticalAlign=middle;fontFamily=Helvetica;fontSize=11;fontColor=default;labelBackgroundColor=default;startArrow=none;startFill=0;endArrow=block;endFill=0;" edge="1" parent="1" source="nqcRDhzoilnJjKWwHqof-41" target="MPSzHl6AMQkyP7CY1vwX-29">
          <mxGeometry relative="1" as="geometry" />
        </mxCell>
        <mxCell id="MPSzHl6AMQkyP7CY1vwX-210" style="edgeStyle=orthogonalEdgeStyle;rounded=0;orthogonalLoop=1;jettySize=auto;html=1;exitX=0;exitY=0.25;exitDx=0;exitDy=0;entryX=0.75;entryY=1;entryDx=0;entryDy=0;strokeColor=light-dark(#787878, #ededed);strokeWidth=2;align=center;verticalAlign=middle;fontFamily=Helvetica;fontSize=11;fontColor=default;labelBackgroundColor=default;startArrow=none;startFill=0;endArrow=block;endFill=0;" edge="1" parent="1" source="nqcRDhzoilnJjKWwHqof-41" target="MPSzHl6AMQkyP7CY1vwX-46">
          <mxGeometry relative="1" as="geometry" />
        </mxCell>
        <mxCell id="MPSzHl6AMQkyP7CY1vwX-211" value="GPA/1: HI=BPF select" style="edgeLabel;html=1;align=center;verticalAlign=middle;resizable=0;points=[];" vertex="1" connectable="0" parent="MPSzHl6AMQkyP7CY1vwX-210">
          <mxGeometry x="-0.6484" y="-1" relative="1" as="geometry">
            <mxPoint x="5" y="1" as="offset" />
          </mxGeometry>
        </mxCell>
        <mxCell id="MPSzHl6AMQkyP7CY1vwX-214" style="edgeStyle=orthogonalEdgeStyle;rounded=0;orthogonalLoop=1;jettySize=auto;html=1;exitX=0.5;exitY=0;exitDx=0;exitDy=0;entryX=0.25;entryY=1;entryDx=0;entryDy=0;strokeColor=light-dark(#787878, #ededed);strokeWidth=2;align=center;verticalAlign=middle;fontFamily=Helvetica;fontSize=11;fontColor=default;labelBackgroundColor=default;startArrow=none;startFill=0;endArrow=block;endFill=0;" edge="1" parent="1" source="nqcRDhzoilnJjKWwHqof-41" target="MPSzHl6AMQkyP7CY1vwX-191">
          <mxGeometry relative="1" as="geometry">
            <Array as="points">
              <mxPoint x="571" y="460" />
              <mxPoint x="571" y="370" />
              <mxPoint x="840" y="370" />
              <mxPoint x="840" y="310" />
              <mxPoint x="990" y="310" />
            </Array>
          </mxGeometry>
        </mxCell>
        <mxCell id="MPSzHl6AMQkyP7CY1vwX-222" style="edgeStyle=orthogonalEdgeStyle;rounded=0;orthogonalLoop=1;jettySize=auto;html=1;exitX=0.75;exitY=0;exitDx=0;exitDy=0;entryX=0.5;entryY=1;entryDx=0;entryDy=0;strokeColor=light-dark(#787878, #ededed);strokeWidth=2;align=center;verticalAlign=middle;fontFamily=Helvetica;fontSize=11;fontColor=default;labelBackgroundColor=default;startArrow=none;startFill=0;endArrow=block;endFill=0;" edge="1" parent="1" source="nqcRDhzoilnJjKWwHqof-41" target="MPSzHl6AMQkyP7CY1vwX-219">
          <mxGeometry relative="1" as="geometry" />
        </mxCell>
        <mxCell id="MPSzHl6AMQkyP7CY1vwX-223" value="GPB/0-GPB/3&lt;div&gt;band code&lt;/div&gt;" style="edgeLabel;html=1;align=center;verticalAlign=middle;resizable=0;points=[];" vertex="1" connectable="0" parent="MPSzHl6AMQkyP7CY1vwX-222">
          <mxGeometry x="-0.8185" relative="1" as="geometry">
            <mxPoint x="14" as="offset" />
          </mxGeometry>
        </mxCell>
        <mxCell id="MPSzHl6AMQkyP7CY1vwX-224" style="edgeStyle=orthogonalEdgeStyle;rounded=0;orthogonalLoop=1;jettySize=auto;html=1;exitX=0.5;exitY=1;exitDx=0;exitDy=0;entryX=0;entryY=0.75;entryDx=0;entryDy=0;strokeColor=light-dark(#787878, #ededed);strokeWidth=2;align=center;verticalAlign=middle;fontFamily=Helvetica;fontSize=11;fontColor=default;labelBackgroundColor=default;startFill=0;endArrow=block;startArrow=none;endFill=0;" edge="1" parent="1" source="nqcRDhzoilnJjKWwHqof-41" target="MPSzHl6AMQkyP7CY1vwX-114">
          <mxGeometry relative="1" as="geometry">
            <Array as="points">
              <mxPoint x="570" y="540" />
              <mxPoint x="1200" y="540" />
              <mxPoint x="1200" y="312" />
            </Array>
          </mxGeometry>
        </mxCell>
        <mxCell id="MPSzHl6AMQkyP7CY1vwX-225" value="GPB/4-GBP/5 antenna select&amp;nbsp;" style="edgeLabel;html=1;align=center;verticalAlign=middle;resizable=0;points=[];" vertex="1" connectable="0" parent="MPSzHl6AMQkyP7CY1vwX-224">
          <mxGeometry x="-0.9073" y="2" relative="1" as="geometry">
            <mxPoint x="14" as="offset" />
          </mxGeometry>
        </mxCell>
        <mxCell id="nqcRDhzoilnJjKWwHqof-41" value="I2C to&amp;nbsp;&lt;div&gt;GPIO&lt;/div&gt;" style="rounded=0;whiteSpace=wrap;html=1;" parent="1" vertex="1">
          <mxGeometry x="523.75" y="460" width="92.5" height="60" as="geometry" />
        </mxCell>
        <mxCell id="nqcRDhzoilnJjKWwHqof-61" value="HI=TX&lt;div&gt;LO=RX&lt;/div&gt;" style="edgeStyle=orthogonalEdgeStyle;shape=connector;rounded=0;orthogonalLoop=1;jettySize=auto;html=1;exitX=1;exitY=0.5;exitDx=0;exitDy=0;entryX=0.5;entryY=1;entryDx=0;entryDy=0;strokeColor=light-dark(#787878, #ededed);align=center;verticalAlign=middle;fontFamily=Helvetica;fontSize=11;fontColor=default;labelBackgroundColor=default;startFill=0;endArrow=block;strokeWidth=2;endFill=0;" parent="1" source="nqcRDhzoilnJjKWwHqof-271" target="MPSzHl6AMQkyP7CY1vwX-67" edge="1">
          <mxGeometry x="-0.6178" relative="1" as="geometry">
            <mxPoint x="432.5" y="560" as="targetPoint" />
            <mxPoint as="offset" />
          </mxGeometry>
        </mxCell>
        <mxCell id="nqcRDhzoilnJjKWwHqof-70" style="rounded=0;orthogonalLoop=1;jettySize=auto;html=1;exitX=1;exitY=0.5;exitDx=0;exitDy=0;entryX=0;entryY=0.75;entryDx=0;entryDy=0;endArrow=none;startFill=0;strokeWidth=2;strokeColor=default;align=center;verticalAlign=middle;fontFamily=Helvetica;fontSize=11;fontColor=default;labelBackgroundColor=default;edgeStyle=orthogonalEdgeStyle;" parent="1" source="nqcRDhzoilnJjKWwHqof-66" target="MPSzHl6AMQkyP7CY1vwX-2" edge="1">
          <mxGeometry relative="1" as="geometry" />
        </mxCell>
        <mxCell id="nqcRDhzoilnJjKWwHqof-66" value="TX RF" style="ellipse;whiteSpace=wrap;html=1;aspect=fixed;fontFamily=Helvetica;fontSize=11;labelBackgroundColor=default;labelPosition=left;verticalLabelPosition=middle;align=right;verticalAlign=middle;strokeWidth=2;fillColor=#dae8fc;strokeColor=#6c8ebf;" parent="1" vertex="1">
          <mxGeometry x="120" y="280" width="20" height="20" as="geometry" />
        </mxCell>
        <mxCell id="nqcRDhzoilnJjKWwHqof-125" value="" style="group" parent="1" vertex="1" connectable="0">
          <mxGeometry x="700" y="450" width="120" height="60" as="geometry" />
        </mxCell>
        <mxCell id="nqcRDhzoilnJjKWwHqof-124" value="" style="rounded=0;whiteSpace=wrap;html=1;" parent="nqcRDhzoilnJjKWwHqof-125" vertex="1">
          <mxGeometry width="120" height="60" as="geometry" />
        </mxCell>
        <mxCell id="nqcRDhzoilnJjKWwHqof-123" value="&lt;span style=&quot;color: rgb(0, 0, 0); font-family: Helvetica; font-size: 12px; font-style: normal; font-variant-ligatures: normal; font-variant-caps: normal; font-weight: 400; letter-spacing: normal; orphans: 2; text-align: center; text-indent: 0px; text-transform: none; widows: 2; word-spacing: 0px; -webkit-text-stroke-width: 0px; white-space: normal; background-color: rgb(251, 251, 251); text-decoration-thickness: initial; text-decoration-style: initial; text-decoration-color: initial; display: inline !important; float: none;&quot;&gt;Teensy GPIO&lt;/span&gt;" style="rounded=0;whiteSpace=wrap;html=1;" parent="nqcRDhzoilnJjKWwHqof-125" vertex="1">
          <mxGeometry x="10" y="10" width="100" height="40" as="geometry" />
        </mxCell>
        <mxCell id="nqcRDhzoilnJjKWwHqof-271" value="22" style="rounded=0;whiteSpace=wrap;html=1;fontSize=8;" parent="nqcRDhzoilnJjKWwHqof-125" vertex="1">
          <mxGeometry x="110" y="40" width="10" height="10" as="geometry" />
        </mxCell>
        <mxCell id="nqcRDhzoilnJjKWwHqof-273" value="24" style="rounded=0;whiteSpace=wrap;html=1;fontSize=8;" parent="nqcRDhzoilnJjKWwHqof-125" vertex="1">
          <mxGeometry y="30" width="10" height="10" as="geometry" />
        </mxCell>
        <mxCell id="nqcRDhzoilnJjKWwHqof-274" value="25" style="rounded=0;whiteSpace=wrap;html=1;fontSize=8;" parent="nqcRDhzoilnJjKWwHqof-125" vertex="1">
          <mxGeometry y="40" width="10" height="10" as="geometry" />
        </mxCell>
        <mxCell id="MPSzHl6AMQkyP7CY1vwX-215" value="26" style="rounded=0;whiteSpace=wrap;html=1;fontSize=8;" vertex="1" parent="nqcRDhzoilnJjKWwHqof-125">
          <mxGeometry x="110" y="10" width="10" height="10" as="geometry" />
        </mxCell>
        <mxCell id="MPSzHl6AMQkyP7CY1vwX-216" value="27" style="rounded=0;whiteSpace=wrap;html=1;fontSize=8;" vertex="1" parent="nqcRDhzoilnJjKWwHqof-125">
          <mxGeometry x="110" y="20" width="10" height="10" as="geometry" />
        </mxCell>
        <mxCell id="nqcRDhzoilnJjKWwHqof-143" value="" style="group" parent="1" vertex="1" connectable="0">
          <mxGeometry x="100" y="360" width="80" height="120" as="geometry" />
        </mxCell>
        <mxCell id="nqcRDhzoilnJjKWwHqof-142" value="Legend&lt;div&gt;&lt;br&gt;&lt;/div&gt;&lt;div&gt;&lt;br&gt;&lt;/div&gt;&lt;div&gt;&lt;br&gt;&lt;/div&gt;&lt;div&gt;&lt;br&gt;&lt;/div&gt;&lt;div&gt;&lt;br&gt;&lt;/div&gt;&lt;div&gt;&lt;br&gt;&lt;/div&gt;&lt;div&gt;&lt;br&gt;&lt;/div&gt;" style="rounded=0;whiteSpace=wrap;html=1;" parent="nqcRDhzoilnJjKWwHqof-143" vertex="1">
          <mxGeometry width="80" height="120" as="geometry" />
        </mxCell>
        <mxCell id="nqcRDhzoilnJjKWwHqof-133" value="&lt;font style=&quot;font-size: 8px;&quot;&gt;RF IO&lt;/font&gt;" style="ellipse;whiteSpace=wrap;html=1;aspect=fixed;fontFamily=Helvetica;fontSize=11;labelBackgroundColor=default;labelPosition=right;verticalLabelPosition=middle;align=left;verticalAlign=middle;strokeWidth=2;fillColor=#dae8fc;strokeColor=#6c8ebf;" parent="nqcRDhzoilnJjKWwHqof-143" vertex="1">
          <mxGeometry x="20" y="30" width="20" height="20" as="geometry" />
        </mxCell>
        <mxCell id="nqcRDhzoilnJjKWwHqof-136" value="&lt;font style=&quot;font-size: 8px;&quot;&gt;IF IO&lt;/font&gt;" style="ellipse;whiteSpace=wrap;html=1;aspect=fixed;fontFamily=Helvetica;fontSize=11;labelBackgroundColor=default;labelPosition=right;verticalLabelPosition=middle;align=left;verticalAlign=middle;strokeWidth=2;fillColor=#f8cecc;strokeColor=#b85450;" parent="nqcRDhzoilnJjKWwHqof-143" vertex="1">
          <mxGeometry x="20" y="60" width="20" height="20" as="geometry" />
        </mxCell>
        <mxCell id="nqcRDhzoilnJjKWwHqof-140" value="&lt;font style=&quot;font-size: 8px;&quot;&gt;RF&lt;/font&gt;" style="edgeStyle=orthogonalEdgeStyle;rounded=0;orthogonalLoop=1;jettySize=auto;html=1;exitX=1;exitY=0.5;exitDx=0;exitDy=0;endArrow=none;startFill=0;strokeWidth=2;" parent="nqcRDhzoilnJjKWwHqof-143" edge="1">
          <mxGeometry x="1" y="10" relative="1" as="geometry">
            <mxPoint x="20" y="89.92000000000007" as="sourcePoint" />
            <mxPoint x="50" y="89.92000000000007" as="targetPoint" />
            <mxPoint x="10" y="10" as="offset" />
          </mxGeometry>
        </mxCell>
        <mxCell id="nqcRDhzoilnJjKWwHqof-141" value="&lt;div&gt;&lt;font style=&quot;font-size: 8px;&quot;&gt;Digital&lt;/font&gt;&lt;/div&gt;" style="shape=connector;rounded=0;orthogonalLoop=1;jettySize=auto;html=1;strokeColor=light-dark(#787878, #ededed);align=center;verticalAlign=middle;fontFamily=Helvetica;fontSize=11;fontColor=default;labelBackgroundColor=default;startFill=0;endArrow=block;strokeWidth=2;endFill=0;" parent="nqcRDhzoilnJjKWwHqof-143" edge="1">
          <mxGeometry x="1" y="10" relative="1" as="geometry">
            <mxPoint x="20" y="109.83999999999992" as="sourcePoint" />
            <mxPoint x="51" y="109.83999999999992" as="targetPoint" />
            <mxPoint x="10" y="10" as="offset" />
          </mxGeometry>
        </mxCell>
        <mxCell id="MPSzHl6AMQkyP7CY1vwX-1" value="" style="group" vertex="1" connectable="0" parent="1">
          <mxGeometry x="170" y="240" width="80" height="70" as="geometry" />
        </mxCell>
        <mxCell id="MPSzHl6AMQkyP7CY1vwX-2" value="&lt;div&gt;&lt;span style=&quot;background-color: light-dark(#ffffff, var(--ge-dark-color, #121212)); color: light-dark(rgb(0, 0, 0), rgb(255, 255, 255));&quot;&gt;TX BPF&lt;/span&gt;&lt;/div&gt;&lt;div&gt;&lt;span style=&quot;background-color: light-dark(#ffffff, var(--ge-dark-color, #121212)); color: light-dark(rgb(0, 0, 0), rgb(255, 255, 255));&quot;&gt;&lt;br&gt;&lt;/span&gt;&lt;/div&gt;&lt;div&gt;&lt;span style=&quot;background-color: light-dark(#ffffff, var(--ge-dark-color, #121212)); color: light-dark(rgb(0, 0, 0), rgb(255, 255, 255));&quot;&gt;&lt;br&gt;&lt;/span&gt;&lt;/div&gt;&lt;div&gt;&lt;span style=&quot;background-color: light-dark(#ffffff, var(--ge-dark-color, #121212)); color: light-dark(rgb(0, 0, 0), rgb(255, 255, 255));&quot;&gt;&lt;br&gt;&lt;/span&gt;&lt;/div&gt;" style="rounded=1;whiteSpace=wrap;html=1;fontFamily=Helvetica;fontSize=11;fontColor=default;labelBackgroundColor=default;labelPosition=center;verticalLabelPosition=middle;align=center;verticalAlign=middle;" vertex="1" parent="MPSzHl6AMQkyP7CY1vwX-1">
          <mxGeometry width="80" height="70" as="geometry" />
        </mxCell>
        <mxCell id="MPSzHl6AMQkyP7CY1vwX-3" value="" style="ellipse;whiteSpace=wrap;html=1;aspect=fixed;" vertex="1" parent="MPSzHl6AMQkyP7CY1vwX-1">
          <mxGeometry x="40" y="23.623333333333257" width="4.374999999999999" height="4.374999999999999" as="geometry" />
        </mxCell>
        <mxCell id="MPSzHl6AMQkyP7CY1vwX-4" value="" style="ellipse;whiteSpace=wrap;html=1;aspect=fixed;" vertex="1" parent="MPSzHl6AMQkyP7CY1vwX-1">
          <mxGeometry x="40" y="53.95333333333325" width="4.374999999999999" height="4.374999999999999" as="geometry" />
        </mxCell>
        <mxCell id="MPSzHl6AMQkyP7CY1vwX-5" value="" style="ellipse;whiteSpace=wrap;html=1;aspect=fixed;" vertex="1" parent="MPSzHl6AMQkyP7CY1vwX-1">
          <mxGeometry x="10" y="42.28333333333325" width="4.374999999999999" height="4.374999999999999" as="geometry" />
        </mxCell>
        <mxCell id="MPSzHl6AMQkyP7CY1vwX-6" value="" style="endArrow=none;html=1;rounded=0;entryX=1;entryY=0.5;entryDx=0;entryDy=0;exitX=0;exitY=1;exitDx=0;exitDy=0;" edge="1" parent="MPSzHl6AMQkyP7CY1vwX-1" source="MPSzHl6AMQkyP7CY1vwX-3" target="MPSzHl6AMQkyP7CY1vwX-5">
          <mxGeometry width="50" height="50" relative="1" as="geometry">
            <mxPoint x="-20" y="58.33333333333325" as="sourcePoint" />
            <mxPoint x="30" y="-7.460698725481052e-14" as="targetPoint" />
          </mxGeometry>
        </mxCell>
        <mxCell id="MPSzHl6AMQkyP7CY1vwX-7" value="" style="endArrow=none;html=1;rounded=0;entryX=1;entryY=0.5;entryDx=0;entryDy=0;exitX=0;exitY=0;exitDx=0;exitDy=0;dashed=1;" edge="1" parent="MPSzHl6AMQkyP7CY1vwX-1" source="MPSzHl6AMQkyP7CY1vwX-4" target="MPSzHl6AMQkyP7CY1vwX-5">
          <mxGeometry width="50" height="50" relative="1" as="geometry">
            <mxPoint x="34" y="39.666666666666586" as="sourcePoint" />
            <mxPoint x="61" y="55.99999999999992" as="targetPoint" />
          </mxGeometry>
        </mxCell>
        <mxCell id="MPSzHl6AMQkyP7CY1vwX-8" value="1" style="text;html=1;align=center;verticalAlign=middle;whiteSpace=wrap;rounded=0;fontSize=8;" vertex="1" parent="MPSzHl6AMQkyP7CY1vwX-1">
          <mxGeometry x="37.19" y="26.999999999999922" width="10" height="11.666666666666666" as="geometry" />
        </mxCell>
        <mxCell id="MPSzHl6AMQkyP7CY1vwX-9" value="0" style="text;html=1;align=center;verticalAlign=middle;whiteSpace=wrap;rounded=0;fontSize=8;" vertex="1" parent="MPSzHl6AMQkyP7CY1vwX-1">
          <mxGeometry x="37.19" y="42.286666666666584" width="10" height="11.666666666666666" as="geometry" />
        </mxCell>
        <mxCell id="MPSzHl6AMQkyP7CY1vwX-11" value="" style="group" vertex="1" connectable="0" parent="1">
          <mxGeometry x="360" y="240" width="80" height="70" as="geometry" />
        </mxCell>
        <mxCell id="MPSzHl6AMQkyP7CY1vwX-12" value="&lt;div&gt;&lt;span style=&quot;background-color: light-dark(#ffffff, var(--ge-dark-color, #121212)); color: light-dark(rgb(0, 0, 0), rgb(255, 255, 255));&quot;&gt;TX BPF&lt;/span&gt;&lt;/div&gt;&lt;div&gt;&lt;span style=&quot;background-color: light-dark(#ffffff, var(--ge-dark-color, #121212)); color: light-dark(rgb(0, 0, 0), rgb(255, 255, 255));&quot;&gt;&lt;br&gt;&lt;/span&gt;&lt;/div&gt;&lt;div&gt;&lt;span style=&quot;background-color: light-dark(#ffffff, var(--ge-dark-color, #121212)); color: light-dark(rgb(0, 0, 0), rgb(255, 255, 255));&quot;&gt;&lt;br&gt;&lt;/span&gt;&lt;/div&gt;&lt;div&gt;&lt;span style=&quot;background-color: light-dark(#ffffff, var(--ge-dark-color, #121212)); color: light-dark(rgb(0, 0, 0), rgb(255, 255, 255));&quot;&gt;&lt;br&gt;&lt;/span&gt;&lt;/div&gt;" style="rounded=1;whiteSpace=wrap;html=1;fontFamily=Helvetica;fontSize=11;fontColor=default;labelBackgroundColor=default;labelPosition=center;verticalLabelPosition=middle;align=center;verticalAlign=middle;" vertex="1" parent="MPSzHl6AMQkyP7CY1vwX-11">
          <mxGeometry width="80" height="70" as="geometry" />
        </mxCell>
        <mxCell id="MPSzHl6AMQkyP7CY1vwX-18" value="1" style="text;html=1;align=center;verticalAlign=middle;whiteSpace=wrap;rounded=0;fontSize=8;" vertex="1" parent="MPSzHl6AMQkyP7CY1vwX-11">
          <mxGeometry x="9.999999999999998" y="27.999999999999922" width="10" height="11.666666666666666" as="geometry" />
        </mxCell>
        <mxCell id="MPSzHl6AMQkyP7CY1vwX-19" value="0" style="text;html=1;align=center;verticalAlign=middle;whiteSpace=wrap;rounded=0;fontSize=8;" vertex="1" parent="MPSzHl6AMQkyP7CY1vwX-11">
          <mxGeometry x="9.999999999999998" y="42.286666666666584" width="10" height="11.666666666666666" as="geometry" />
        </mxCell>
        <mxCell id="MPSzHl6AMQkyP7CY1vwX-13" value="" style="ellipse;whiteSpace=wrap;html=1;aspect=fixed;" vertex="1" parent="MPSzHl6AMQkyP7CY1vwX-11">
          <mxGeometry x="12.81" y="23.623333333333257" width="4.374999999999999" height="4.374999999999999" as="geometry" />
        </mxCell>
        <mxCell id="MPSzHl6AMQkyP7CY1vwX-14" value="" style="ellipse;whiteSpace=wrap;html=1;aspect=fixed;" vertex="1" parent="MPSzHl6AMQkyP7CY1vwX-11">
          <mxGeometry x="12.81" y="53.95333333333325" width="4.374999999999999" height="4.374999999999999" as="geometry" />
        </mxCell>
        <mxCell id="MPSzHl6AMQkyP7CY1vwX-15" value="" style="ellipse;whiteSpace=wrap;html=1;aspect=fixed;" vertex="1" parent="MPSzHl6AMQkyP7CY1vwX-11">
          <mxGeometry x="42.81" y="42.28333333333325" width="4.374999999999999" height="4.374999999999999" as="geometry" />
        </mxCell>
        <mxCell id="MPSzHl6AMQkyP7CY1vwX-16" value="" style="endArrow=none;html=1;rounded=0;entryX=0;entryY=0.5;entryDx=0;entryDy=0;exitX=1;exitY=1;exitDx=0;exitDy=0;" edge="1" parent="MPSzHl6AMQkyP7CY1vwX-11" source="MPSzHl6AMQkyP7CY1vwX-13" target="MPSzHl6AMQkyP7CY1vwX-15">
          <mxGeometry width="50" height="50" relative="1" as="geometry">
            <mxPoint x="77.185" y="58.33333333333325" as="sourcePoint" />
            <mxPoint x="27.185" y="-7.460698725481052e-14" as="targetPoint" />
          </mxGeometry>
        </mxCell>
        <mxCell id="MPSzHl6AMQkyP7CY1vwX-21" value="" style="endArrow=none;html=1;rounded=0;exitX=1;exitY=0;exitDx=0;exitDy=0;dashed=1;entryX=0;entryY=0.5;entryDx=0;entryDy=0;" edge="1" parent="MPSzHl6AMQkyP7CY1vwX-11" source="MPSzHl6AMQkyP7CY1vwX-14" target="MPSzHl6AMQkyP7CY1vwX-15">
          <mxGeometry width="50" height="50" relative="1" as="geometry">
            <mxPoint x="403.81" y="65" as="sourcePoint" />
            <mxPoint x="42.81" y="40" as="targetPoint" />
          </mxGeometry>
        </mxCell>
        <mxCell id="MPSzHl6AMQkyP7CY1vwX-22" style="edgeStyle=orthogonalEdgeStyle;rounded=0;orthogonalLoop=1;jettySize=auto;html=1;exitX=1;exitY=0.75;exitDx=0;exitDy=0;entryX=0;entryY=0.75;entryDx=0;entryDy=0;strokeColor=default;strokeWidth=2;align=center;verticalAlign=middle;fontFamily=Helvetica;fontSize=11;fontColor=default;labelBackgroundColor=default;startFill=0;endArrow=none;" edge="1" parent="1" source="MPSzHl6AMQkyP7CY1vwX-2" target="MPSzHl6AMQkyP7CY1vwX-12">
          <mxGeometry relative="1" as="geometry" />
        </mxCell>
        <mxCell id="MPSzHl6AMQkyP7CY1vwX-23" value="" style="ellipse;whiteSpace=wrap;html=1;aspect=fixed;fontFamily=Helvetica;fontSize=11;labelBackgroundColor=none;labelPosition=right;verticalLabelPosition=middle;align=center;verticalAlign=middle;strokeWidth=2;fillColor=#f8cecc;strokeColor=#b85450;" vertex="1" parent="1">
          <mxGeometry x="280" y="210" width="20" height="20" as="geometry" />
        </mxCell>
        <mxCell id="MPSzHl6AMQkyP7CY1vwX-27" style="edgeStyle=orthogonalEdgeStyle;rounded=0;orthogonalLoop=1;jettySize=auto;html=1;exitX=0.5;exitY=1;exitDx=0;exitDy=0;entryX=0;entryY=0.25;entryDx=0;entryDy=0;strokeColor=default;strokeWidth=2;align=center;verticalAlign=middle;fontFamily=Helvetica;fontSize=11;fontColor=default;labelBackgroundColor=default;startFill=0;endArrow=none;" edge="1" parent="1" source="MPSzHl6AMQkyP7CY1vwX-25" target="MPSzHl6AMQkyP7CY1vwX-12">
          <mxGeometry relative="1" as="geometry" />
        </mxCell>
        <mxCell id="MPSzHl6AMQkyP7CY1vwX-25" value="&amp;nbsp;BPF" style="ellipse;whiteSpace=wrap;html=1;aspect=fixed;fontFamily=Helvetica;fontSize=11;labelBackgroundColor=none;labelPosition=right;verticalLabelPosition=middle;align=center;verticalAlign=middle;strokeWidth=2;fillColor=#f8cecc;strokeColor=#b85450;" vertex="1" parent="1">
          <mxGeometry x="310" y="210" width="20" height="20" as="geometry" />
        </mxCell>
        <mxCell id="MPSzHl6AMQkyP7CY1vwX-26" style="edgeStyle=orthogonalEdgeStyle;rounded=0;orthogonalLoop=1;jettySize=auto;html=1;exitX=1;exitY=0.25;exitDx=0;exitDy=0;entryX=0.5;entryY=1;entryDx=0;entryDy=0;strokeColor=default;strokeWidth=2;align=center;verticalAlign=middle;fontFamily=Helvetica;fontSize=11;fontColor=default;labelBackgroundColor=default;startFill=0;endArrow=none;" edge="1" parent="1" source="MPSzHl6AMQkyP7CY1vwX-2" target="MPSzHl6AMQkyP7CY1vwX-23">
          <mxGeometry relative="1" as="geometry" />
        </mxCell>
        <mxCell id="MPSzHl6AMQkyP7CY1vwX-28" value="" style="group;flipV=1;" vertex="1" connectable="0" parent="1">
          <mxGeometry x="170" y="130" width="80" height="70" as="geometry" />
        </mxCell>
        <mxCell id="MPSzHl6AMQkyP7CY1vwX-29" value="&lt;div&gt;&lt;span style=&quot;background-color: light-dark(#ffffff, var(--ge-dark-color, #121212)); color: light-dark(rgb(0, 0, 0), rgb(255, 255, 255));&quot;&gt;RX BPF&lt;/span&gt;&lt;/div&gt;&lt;div&gt;&lt;span style=&quot;background-color: light-dark(#ffffff, var(--ge-dark-color, #121212)); color: light-dark(rgb(0, 0, 0), rgb(255, 255, 255));&quot;&gt;&lt;br&gt;&lt;/span&gt;&lt;/div&gt;&lt;div&gt;&lt;span style=&quot;background-color: light-dark(#ffffff, var(--ge-dark-color, #121212)); color: light-dark(rgb(0, 0, 0), rgb(255, 255, 255));&quot;&gt;&lt;br&gt;&lt;/span&gt;&lt;/div&gt;&lt;div&gt;&lt;span style=&quot;background-color: light-dark(#ffffff, var(--ge-dark-color, #121212)); color: light-dark(rgb(0, 0, 0), rgb(255, 255, 255));&quot;&gt;&lt;br&gt;&lt;/span&gt;&lt;/div&gt;" style="rounded=1;whiteSpace=wrap;html=1;fontFamily=Helvetica;fontSize=11;fontColor=default;labelBackgroundColor=default;labelPosition=center;verticalLabelPosition=middle;align=center;verticalAlign=middle;" vertex="1" parent="MPSzHl6AMQkyP7CY1vwX-28">
          <mxGeometry width="80" height="70" as="geometry" />
        </mxCell>
        <mxCell id="MPSzHl6AMQkyP7CY1vwX-30" value="" style="ellipse;whiteSpace=wrap;html=1;aspect=fixed;" vertex="1" parent="MPSzHl6AMQkyP7CY1vwX-28">
          <mxGeometry x="40" y="60.33166666666674" width="4.374999999999999" height="4.374999999999999" as="geometry" />
        </mxCell>
        <mxCell id="MPSzHl6AMQkyP7CY1vwX-31" value="" style="ellipse;whiteSpace=wrap;html=1;aspect=fixed;" vertex="1" parent="MPSzHl6AMQkyP7CY1vwX-28">
          <mxGeometry x="40" y="30.00166666666675" width="4.374999999999999" height="4.374999999999999" as="geometry" />
        </mxCell>
        <mxCell id="MPSzHl6AMQkyP7CY1vwX-32" value="" style="ellipse;whiteSpace=wrap;html=1;aspect=fixed;" vertex="1" parent="MPSzHl6AMQkyP7CY1vwX-28">
          <mxGeometry x="10" y="41.671666666666745" width="4.374999999999999" height="4.374999999999999" as="geometry" />
        </mxCell>
        <mxCell id="MPSzHl6AMQkyP7CY1vwX-33" value="" style="endArrow=none;html=1;rounded=0;entryX=1;entryY=0.5;entryDx=0;entryDy=0;exitX=0;exitY=0;exitDx=0;exitDy=0;" edge="1" parent="MPSzHl6AMQkyP7CY1vwX-28" source="MPSzHl6AMQkyP7CY1vwX-30" target="MPSzHl6AMQkyP7CY1vwX-32">
          <mxGeometry width="50" height="50" relative="1" as="geometry">
            <mxPoint x="-20" y="29.996666666666748" as="sourcePoint" />
            <mxPoint x="30" y="88.33000000000007" as="targetPoint" />
          </mxGeometry>
        </mxCell>
        <mxCell id="MPSzHl6AMQkyP7CY1vwX-34" value="" style="endArrow=none;html=1;rounded=0;entryX=1;entryY=0.5;entryDx=0;entryDy=0;exitX=0;exitY=1;exitDx=0;exitDy=0;dashed=1;" edge="1" parent="MPSzHl6AMQkyP7CY1vwX-28" source="MPSzHl6AMQkyP7CY1vwX-31" target="MPSzHl6AMQkyP7CY1vwX-32">
          <mxGeometry width="50" height="50" relative="1" as="geometry">
            <mxPoint x="34" y="48.66333333333341" as="sourcePoint" />
            <mxPoint x="61" y="32.33000000000008" as="targetPoint" />
          </mxGeometry>
        </mxCell>
        <mxCell id="MPSzHl6AMQkyP7CY1vwX-35" value="1" style="text;html=1;align=center;verticalAlign=middle;whiteSpace=wrap;rounded=0;fontSize=8;" vertex="1" parent="MPSzHl6AMQkyP7CY1vwX-28">
          <mxGeometry x="37.19" y="49.66333333333341" width="10" height="11.666666666666666" as="geometry" />
        </mxCell>
        <mxCell id="MPSzHl6AMQkyP7CY1vwX-36" value="0" style="text;html=1;align=center;verticalAlign=middle;whiteSpace=wrap;rounded=0;fontSize=8;" vertex="1" parent="MPSzHl6AMQkyP7CY1vwX-28">
          <mxGeometry x="37.19" y="34.37666666666675" width="10" height="11.666666666666666" as="geometry" />
        </mxCell>
        <mxCell id="MPSzHl6AMQkyP7CY1vwX-43" style="edgeStyle=orthogonalEdgeStyle;rounded=0;orthogonalLoop=1;jettySize=auto;html=1;exitX=1;exitY=0.5;exitDx=0;exitDy=0;entryX=0;entryY=0.75;entryDx=0;entryDy=0;strokeColor=default;strokeWidth=2;align=center;verticalAlign=middle;fontFamily=Helvetica;fontSize=11;fontColor=default;labelBackgroundColor=default;startFill=0;endArrow=none;" edge="1" parent="1" source="MPSzHl6AMQkyP7CY1vwX-38" target="MPSzHl6AMQkyP7CY1vwX-29">
          <mxGeometry relative="1" as="geometry" />
        </mxCell>
        <mxCell id="MPSzHl6AMQkyP7CY1vwX-38" value="RX RF" style="ellipse;whiteSpace=wrap;html=1;aspect=fixed;fontFamily=Helvetica;fontSize=11;labelBackgroundColor=default;labelPosition=left;verticalLabelPosition=middle;align=right;verticalAlign=middle;strokeWidth=2;fillColor=#dae8fc;strokeColor=#6c8ebf;" vertex="1" parent="1">
          <mxGeometry x="120" y="170" width="20" height="20" as="geometry" />
        </mxCell>
        <mxCell id="MPSzHl6AMQkyP7CY1vwX-44" style="edgeStyle=orthogonalEdgeStyle;rounded=0;orthogonalLoop=1;jettySize=auto;html=1;exitX=1;exitY=0.75;exitDx=0;exitDy=0;entryX=0.5;entryY=0;entryDx=0;entryDy=0;strokeColor=default;strokeWidth=2;align=center;verticalAlign=middle;fontFamily=Helvetica;fontSize=11;fontColor=default;labelBackgroundColor=default;startFill=0;endArrow=none;" edge="1" parent="1" source="MPSzHl6AMQkyP7CY1vwX-29" target="MPSzHl6AMQkyP7CY1vwX-23">
          <mxGeometry relative="1" as="geometry" />
        </mxCell>
        <mxCell id="MPSzHl6AMQkyP7CY1vwX-45" value="" style="group;flipV=1;" vertex="1" connectable="0" parent="1">
          <mxGeometry x="360" y="130" width="80" height="70" as="geometry" />
        </mxCell>
        <mxCell id="MPSzHl6AMQkyP7CY1vwX-46" value="&lt;div&gt;&lt;span style=&quot;background-color: light-dark(#ffffff, var(--ge-dark-color, #121212)); color: light-dark(rgb(0, 0, 0), rgb(255, 255, 255));&quot;&gt;RX BPF&lt;/span&gt;&lt;/div&gt;&lt;div&gt;&lt;span style=&quot;background-color: light-dark(#ffffff, var(--ge-dark-color, #121212)); color: light-dark(rgb(0, 0, 0), rgb(255, 255, 255));&quot;&gt;&lt;br&gt;&lt;/span&gt;&lt;/div&gt;&lt;div&gt;&lt;span style=&quot;background-color: light-dark(#ffffff, var(--ge-dark-color, #121212)); color: light-dark(rgb(0, 0, 0), rgb(255, 255, 255));&quot;&gt;&lt;br&gt;&lt;/span&gt;&lt;/div&gt;&lt;div&gt;&lt;span style=&quot;background-color: light-dark(#ffffff, var(--ge-dark-color, #121212)); color: light-dark(rgb(0, 0, 0), rgb(255, 255, 255));&quot;&gt;&lt;br&gt;&lt;/span&gt;&lt;/div&gt;" style="rounded=1;whiteSpace=wrap;html=1;fontFamily=Helvetica;fontSize=11;fontColor=default;labelBackgroundColor=default;labelPosition=center;verticalLabelPosition=middle;align=center;verticalAlign=middle;" vertex="1" parent="MPSzHl6AMQkyP7CY1vwX-45">
          <mxGeometry width="80" height="70" as="geometry" />
        </mxCell>
        <mxCell id="MPSzHl6AMQkyP7CY1vwX-47" value="1" style="text;html=1;align=center;verticalAlign=middle;whiteSpace=wrap;rounded=0;fontSize=8;" vertex="1" parent="MPSzHl6AMQkyP7CY1vwX-45">
          <mxGeometry x="10" y="48.66" width="10" height="9.67" as="geometry" />
        </mxCell>
        <mxCell id="MPSzHl6AMQkyP7CY1vwX-48" value="0" style="text;html=1;align=center;verticalAlign=middle;whiteSpace=wrap;rounded=0;fontSize=8;" vertex="1" parent="MPSzHl6AMQkyP7CY1vwX-45">
          <mxGeometry x="9.999999999999998" y="34.37666666666675" width="10" height="11.666666666666666" as="geometry" />
        </mxCell>
        <mxCell id="MPSzHl6AMQkyP7CY1vwX-49" value="" style="ellipse;whiteSpace=wrap;html=1;aspect=fixed;" vertex="1" parent="MPSzHl6AMQkyP7CY1vwX-45">
          <mxGeometry x="12.81" y="60.33166666666674" width="4.374999999999999" height="4.374999999999999" as="geometry" />
        </mxCell>
        <mxCell id="MPSzHl6AMQkyP7CY1vwX-50" value="" style="ellipse;whiteSpace=wrap;html=1;aspect=fixed;" vertex="1" parent="MPSzHl6AMQkyP7CY1vwX-45">
          <mxGeometry x="12.81" y="30.00166666666675" width="4.374999999999999" height="4.374999999999999" as="geometry" />
        </mxCell>
        <mxCell id="MPSzHl6AMQkyP7CY1vwX-51" value="" style="ellipse;whiteSpace=wrap;html=1;aspect=fixed;" vertex="1" parent="MPSzHl6AMQkyP7CY1vwX-45">
          <mxGeometry x="42.81" y="41.671666666666745" width="4.374999999999999" height="4.374999999999999" as="geometry" />
        </mxCell>
        <mxCell id="MPSzHl6AMQkyP7CY1vwX-52" value="" style="endArrow=none;html=1;rounded=0;entryX=0;entryY=0.5;entryDx=0;entryDy=0;exitX=1;exitY=0;exitDx=0;exitDy=0;" edge="1" parent="MPSzHl6AMQkyP7CY1vwX-45" source="MPSzHl6AMQkyP7CY1vwX-49" target="MPSzHl6AMQkyP7CY1vwX-51">
          <mxGeometry width="50" height="50" relative="1" as="geometry">
            <mxPoint x="77.185" y="29.996666666666748" as="sourcePoint" />
            <mxPoint x="27.185" y="88.33000000000007" as="targetPoint" />
          </mxGeometry>
        </mxCell>
        <mxCell id="MPSzHl6AMQkyP7CY1vwX-53" value="" style="endArrow=none;html=1;rounded=0;exitX=1;exitY=1;exitDx=0;exitDy=0;dashed=1;entryX=0;entryY=0.5;entryDx=0;entryDy=0;" edge="1" parent="MPSzHl6AMQkyP7CY1vwX-45" source="MPSzHl6AMQkyP7CY1vwX-50" target="MPSzHl6AMQkyP7CY1vwX-51">
          <mxGeometry width="50" height="50" relative="1" as="geometry">
            <mxPoint x="403.81" y="23.33" as="sourcePoint" />
            <mxPoint x="42.81" y="48.33" as="targetPoint" />
          </mxGeometry>
        </mxCell>
        <mxCell id="MPSzHl6AMQkyP7CY1vwX-54" style="edgeStyle=orthogonalEdgeStyle;rounded=0;orthogonalLoop=1;jettySize=auto;html=1;exitX=1;exitY=0.25;exitDx=0;exitDy=0;entryX=0;entryY=0.25;entryDx=0;entryDy=0;strokeColor=default;strokeWidth=2;align=center;verticalAlign=middle;fontFamily=Helvetica;fontSize=11;fontColor=default;labelBackgroundColor=default;startFill=0;endArrow=none;" edge="1" parent="1" source="MPSzHl6AMQkyP7CY1vwX-29" target="MPSzHl6AMQkyP7CY1vwX-46">
          <mxGeometry relative="1" as="geometry" />
        </mxCell>
        <mxCell id="MPSzHl6AMQkyP7CY1vwX-55" style="edgeStyle=orthogonalEdgeStyle;rounded=0;orthogonalLoop=1;jettySize=auto;html=1;exitX=0;exitY=0.75;exitDx=0;exitDy=0;entryX=0.5;entryY=0;entryDx=0;entryDy=0;strokeColor=default;strokeWidth=2;align=center;verticalAlign=middle;fontFamily=Helvetica;fontSize=11;fontColor=default;labelBackgroundColor=default;startFill=0;endArrow=none;" edge="1" parent="1" source="MPSzHl6AMQkyP7CY1vwX-46" target="MPSzHl6AMQkyP7CY1vwX-25">
          <mxGeometry relative="1" as="geometry" />
        </mxCell>
        <mxCell id="MPSzHl6AMQkyP7CY1vwX-76" style="edgeStyle=orthogonalEdgeStyle;rounded=0;orthogonalLoop=1;jettySize=auto;html=1;exitX=1;exitY=0.5;exitDx=0;exitDy=0;entryX=0;entryY=0.25;entryDx=0;entryDy=0;strokeColor=default;strokeWidth=2;align=center;verticalAlign=middle;fontFamily=Helvetica;fontSize=11;fontColor=default;labelBackgroundColor=default;startFill=0;endArrow=none;" edge="1" parent="1" source="MPSzHl6AMQkyP7CY1vwX-56" target="MPSzHl6AMQkyP7CY1vwX-67">
          <mxGeometry relative="1" as="geometry" />
        </mxCell>
        <mxCell id="MPSzHl6AMQkyP7CY1vwX-56" value="HPF" style="rounded=1;whiteSpace=wrap;html=1;fontFamily=Helvetica;fontSize=11;fontColor=default;labelBackgroundColor=default;dashed=1;dashPattern=8 8;" vertex="1" parent="1">
          <mxGeometry x="480" y="145" width="80" height="40" as="geometry" />
        </mxCell>
        <mxCell id="MPSzHl6AMQkyP7CY1vwX-66" value="" style="group;flipV=1;" vertex="1" connectable="0" parent="1">
          <mxGeometry x="1130" y="150" width="80" height="70" as="geometry" />
        </mxCell>
        <mxCell id="MPSzHl6AMQkyP7CY1vwX-67" value="&lt;div&gt;TR Switch&lt;/div&gt;&lt;div&gt;&lt;span style=&quot;background-color: light-dark(#ffffff, var(--ge-dark-color, #121212)); color: light-dark(rgb(0, 0, 0), rgb(255, 255, 255));&quot;&gt;&lt;br&gt;&lt;/span&gt;&lt;/div&gt;&lt;div&gt;&lt;span style=&quot;background-color: light-dark(#ffffff, var(--ge-dark-color, #121212)); color: light-dark(rgb(0, 0, 0), rgb(255, 255, 255));&quot;&gt;&lt;br&gt;&lt;/span&gt;&lt;/div&gt;&lt;div&gt;&lt;span style=&quot;background-color: light-dark(#ffffff, var(--ge-dark-color, #121212)); color: light-dark(rgb(0, 0, 0), rgb(255, 255, 255));&quot;&gt;&lt;br&gt;&lt;/span&gt;&lt;/div&gt;" style="rounded=1;whiteSpace=wrap;html=1;fontFamily=Helvetica;fontSize=11;fontColor=default;labelBackgroundColor=default;labelPosition=center;verticalLabelPosition=middle;align=center;verticalAlign=middle;" vertex="1" parent="MPSzHl6AMQkyP7CY1vwX-66">
          <mxGeometry y="5.21" width="80" height="70" as="geometry" />
        </mxCell>
        <mxCell id="MPSzHl6AMQkyP7CY1vwX-68" value="1" style="text;html=1;align=center;verticalAlign=middle;whiteSpace=wrap;rounded=0;fontSize=8;" vertex="1" parent="MPSzHl6AMQkyP7CY1vwX-66">
          <mxGeometry x="10" y="48.66" width="10" height="9.67" as="geometry" />
        </mxCell>
        <mxCell id="MPSzHl6AMQkyP7CY1vwX-69" value="0" style="text;html=1;align=center;verticalAlign=middle;whiteSpace=wrap;rounded=0;fontSize=8;" vertex="1" parent="MPSzHl6AMQkyP7CY1vwX-66">
          <mxGeometry x="9.999999999999998" y="34.37666666666675" width="10" height="11.666666666666666" as="geometry" />
        </mxCell>
        <mxCell id="MPSzHl6AMQkyP7CY1vwX-70" value="" style="ellipse;whiteSpace=wrap;html=1;aspect=fixed;" vertex="1" parent="MPSzHl6AMQkyP7CY1vwX-66">
          <mxGeometry x="12.81" y="60.33166666666674" width="4.374999999999999" height="4.374999999999999" as="geometry" />
        </mxCell>
        <mxCell id="MPSzHl6AMQkyP7CY1vwX-71" value="" style="ellipse;whiteSpace=wrap;html=1;aspect=fixed;" vertex="1" parent="MPSzHl6AMQkyP7CY1vwX-66">
          <mxGeometry x="12.81" y="30.00166666666675" width="4.374999999999999" height="4.374999999999999" as="geometry" />
        </mxCell>
        <mxCell id="MPSzHl6AMQkyP7CY1vwX-72" value="" style="ellipse;whiteSpace=wrap;html=1;aspect=fixed;" vertex="1" parent="MPSzHl6AMQkyP7CY1vwX-66">
          <mxGeometry x="42.81" y="41.671666666666745" width="4.374999999999999" height="4.374999999999999" as="geometry" />
        </mxCell>
        <mxCell id="MPSzHl6AMQkyP7CY1vwX-73" value="" style="endArrow=none;html=1;rounded=0;entryX=0;entryY=0.5;entryDx=0;entryDy=0;exitX=1;exitY=0;exitDx=0;exitDy=0;" edge="1" parent="MPSzHl6AMQkyP7CY1vwX-66" source="MPSzHl6AMQkyP7CY1vwX-70" target="MPSzHl6AMQkyP7CY1vwX-72">
          <mxGeometry width="50" height="50" relative="1" as="geometry">
            <mxPoint x="77.185" y="29.996666666666748" as="sourcePoint" />
            <mxPoint x="27.185" y="88.33000000000007" as="targetPoint" />
          </mxGeometry>
        </mxCell>
        <mxCell id="MPSzHl6AMQkyP7CY1vwX-74" value="" style="endArrow=none;html=1;rounded=0;exitX=1;exitY=1;exitDx=0;exitDy=0;dashed=1;entryX=0;entryY=0.5;entryDx=0;entryDy=0;" edge="1" parent="MPSzHl6AMQkyP7CY1vwX-66" source="MPSzHl6AMQkyP7CY1vwX-71" target="MPSzHl6AMQkyP7CY1vwX-72">
          <mxGeometry width="50" height="50" relative="1" as="geometry">
            <mxPoint x="403.81" y="23.33" as="sourcePoint" />
            <mxPoint x="42.81" y="48.33" as="targetPoint" />
          </mxGeometry>
        </mxCell>
        <mxCell id="MPSzHl6AMQkyP7CY1vwX-75" style="edgeStyle=orthogonalEdgeStyle;rounded=0;orthogonalLoop=1;jettySize=auto;html=1;exitX=1;exitY=0.5;exitDx=0;exitDy=0;entryX=0;entryY=0.5;entryDx=0;entryDy=0;strokeColor=default;strokeWidth=2;align=center;verticalAlign=middle;fontFamily=Helvetica;fontSize=11;fontColor=default;labelBackgroundColor=default;startFill=0;endArrow=none;" edge="1" parent="1" source="MPSzHl6AMQkyP7CY1vwX-46" target="MPSzHl6AMQkyP7CY1vwX-56">
          <mxGeometry relative="1" as="geometry" />
        </mxCell>
        <mxCell id="MPSzHl6AMQkyP7CY1vwX-86" value="" style="group" vertex="1" connectable="0" parent="1">
          <mxGeometry x="1320" y="20" width="80" height="70" as="geometry" />
        </mxCell>
        <mxCell id="MPSzHl6AMQkyP7CY1vwX-87" value="&lt;div&gt;ANT1&lt;/div&gt;&lt;div&gt;&lt;span style=&quot;background-color: light-dark(#ffffff, var(--ge-dark-color, #121212)); color: light-dark(rgb(0, 0, 0), rgb(255, 255, 255));&quot;&gt;&lt;br&gt;&lt;/span&gt;&lt;/div&gt;&lt;div&gt;&lt;span style=&quot;background-color: light-dark(#ffffff, var(--ge-dark-color, #121212)); color: light-dark(rgb(0, 0, 0), rgb(255, 255, 255));&quot;&gt;&lt;br&gt;&lt;/span&gt;&lt;/div&gt;&lt;div&gt;&lt;span style=&quot;background-color: light-dark(#ffffff, var(--ge-dark-color, #121212)); color: light-dark(rgb(0, 0, 0), rgb(255, 255, 255));&quot;&gt;&lt;br&gt;&lt;/span&gt;&lt;/div&gt;" style="rounded=1;whiteSpace=wrap;html=1;fontFamily=Helvetica;fontSize=11;fontColor=default;labelBackgroundColor=default;labelPosition=center;verticalLabelPosition=middle;align=center;verticalAlign=middle;" vertex="1" parent="MPSzHl6AMQkyP7CY1vwX-86">
          <mxGeometry width="80" height="70" as="geometry" />
        </mxCell>
        <mxCell id="MPSzHl6AMQkyP7CY1vwX-88" value="" style="ellipse;whiteSpace=wrap;html=1;aspect=fixed;" vertex="1" parent="MPSzHl6AMQkyP7CY1vwX-86">
          <mxGeometry x="40" y="23.623333333333257" width="4.374999999999999" height="4.374999999999999" as="geometry" />
        </mxCell>
        <mxCell id="MPSzHl6AMQkyP7CY1vwX-89" value="" style="ellipse;whiteSpace=wrap;html=1;aspect=fixed;" vertex="1" parent="MPSzHl6AMQkyP7CY1vwX-86">
          <mxGeometry x="40" y="53.95333333333325" width="4.374999999999999" height="4.374999999999999" as="geometry" />
        </mxCell>
        <mxCell id="MPSzHl6AMQkyP7CY1vwX-90" value="" style="ellipse;whiteSpace=wrap;html=1;aspect=fixed;" vertex="1" parent="MPSzHl6AMQkyP7CY1vwX-86">
          <mxGeometry x="10" y="42.28333333333325" width="4.374999999999999" height="4.374999999999999" as="geometry" />
        </mxCell>
        <mxCell id="MPSzHl6AMQkyP7CY1vwX-91" value="" style="endArrow=none;html=1;rounded=0;entryX=1;entryY=0.5;entryDx=0;entryDy=0;exitX=0;exitY=1;exitDx=0;exitDy=0;" edge="1" parent="MPSzHl6AMQkyP7CY1vwX-86" source="MPSzHl6AMQkyP7CY1vwX-88" target="MPSzHl6AMQkyP7CY1vwX-90">
          <mxGeometry width="50" height="50" relative="1" as="geometry">
            <mxPoint x="-20" y="58.33333333333325" as="sourcePoint" />
            <mxPoint x="30" y="-7.460698725481052e-14" as="targetPoint" />
          </mxGeometry>
        </mxCell>
        <mxCell id="MPSzHl6AMQkyP7CY1vwX-92" value="" style="endArrow=none;html=1;rounded=0;entryX=1;entryY=0.5;entryDx=0;entryDy=0;exitX=0;exitY=0;exitDx=0;exitDy=0;dashed=1;" edge="1" parent="MPSzHl6AMQkyP7CY1vwX-86" source="MPSzHl6AMQkyP7CY1vwX-89" target="MPSzHl6AMQkyP7CY1vwX-90">
          <mxGeometry width="50" height="50" relative="1" as="geometry">
            <mxPoint x="34" y="39.666666666666586" as="sourcePoint" />
            <mxPoint x="61" y="55.99999999999992" as="targetPoint" />
          </mxGeometry>
        </mxCell>
        <mxCell id="MPSzHl6AMQkyP7CY1vwX-93" value="1" style="text;html=1;align=center;verticalAlign=middle;whiteSpace=wrap;rounded=0;fontSize=8;" vertex="1" parent="MPSzHl6AMQkyP7CY1vwX-86">
          <mxGeometry x="37.19" y="26.999999999999922" width="10" height="11.666666666666666" as="geometry" />
        </mxCell>
        <mxCell id="MPSzHl6AMQkyP7CY1vwX-94" value="0" style="text;html=1;align=center;verticalAlign=middle;whiteSpace=wrap;rounded=0;fontSize=8;" vertex="1" parent="MPSzHl6AMQkyP7CY1vwX-86">
          <mxGeometry x="37.19" y="42.286666666666584" width="10" height="11.666666666666666" as="geometry" />
        </mxCell>
        <mxCell id="MPSzHl6AMQkyP7CY1vwX-95" value="" style="group" vertex="1" connectable="0" parent="1">
          <mxGeometry x="1320" y="100" width="80" height="70" as="geometry" />
        </mxCell>
        <mxCell id="MPSzHl6AMQkyP7CY1vwX-96" value="&lt;div&gt;ANT2&lt;/div&gt;&lt;div&gt;&lt;span style=&quot;background-color: light-dark(#ffffff, var(--ge-dark-color, #121212)); color: light-dark(rgb(0, 0, 0), rgb(255, 255, 255));&quot;&gt;&lt;br&gt;&lt;/span&gt;&lt;/div&gt;&lt;div&gt;&lt;span style=&quot;background-color: light-dark(#ffffff, var(--ge-dark-color, #121212)); color: light-dark(rgb(0, 0, 0), rgb(255, 255, 255));&quot;&gt;&lt;br&gt;&lt;/span&gt;&lt;/div&gt;&lt;div&gt;&lt;span style=&quot;background-color: light-dark(#ffffff, var(--ge-dark-color, #121212)); color: light-dark(rgb(0, 0, 0), rgb(255, 255, 255));&quot;&gt;&lt;br&gt;&lt;/span&gt;&lt;/div&gt;" style="rounded=1;whiteSpace=wrap;html=1;fontFamily=Helvetica;fontSize=11;fontColor=default;labelBackgroundColor=default;labelPosition=center;verticalLabelPosition=middle;align=center;verticalAlign=middle;" vertex="1" parent="MPSzHl6AMQkyP7CY1vwX-95">
          <mxGeometry width="80" height="70" as="geometry" />
        </mxCell>
        <mxCell id="MPSzHl6AMQkyP7CY1vwX-97" value="" style="ellipse;whiteSpace=wrap;html=1;aspect=fixed;" vertex="1" parent="MPSzHl6AMQkyP7CY1vwX-95">
          <mxGeometry x="40" y="23.623333333333257" width="4.374999999999999" height="4.374999999999999" as="geometry" />
        </mxCell>
        <mxCell id="MPSzHl6AMQkyP7CY1vwX-98" value="" style="ellipse;whiteSpace=wrap;html=1;aspect=fixed;" vertex="1" parent="MPSzHl6AMQkyP7CY1vwX-95">
          <mxGeometry x="40" y="53.95333333333325" width="4.374999999999999" height="4.374999999999999" as="geometry" />
        </mxCell>
        <mxCell id="MPSzHl6AMQkyP7CY1vwX-99" value="" style="ellipse;whiteSpace=wrap;html=1;aspect=fixed;" vertex="1" parent="MPSzHl6AMQkyP7CY1vwX-95">
          <mxGeometry x="10" y="42.28333333333325" width="4.374999999999999" height="4.374999999999999" as="geometry" />
        </mxCell>
        <mxCell id="MPSzHl6AMQkyP7CY1vwX-100" value="" style="endArrow=none;html=1;rounded=0;entryX=1;entryY=0.5;entryDx=0;entryDy=0;exitX=0;exitY=1;exitDx=0;exitDy=0;" edge="1" parent="MPSzHl6AMQkyP7CY1vwX-95" source="MPSzHl6AMQkyP7CY1vwX-97" target="MPSzHl6AMQkyP7CY1vwX-99">
          <mxGeometry width="50" height="50" relative="1" as="geometry">
            <mxPoint x="-20" y="58.33333333333325" as="sourcePoint" />
            <mxPoint x="30" y="-7.460698725481052e-14" as="targetPoint" />
          </mxGeometry>
        </mxCell>
        <mxCell id="MPSzHl6AMQkyP7CY1vwX-101" value="" style="endArrow=none;html=1;rounded=0;entryX=1;entryY=0.5;entryDx=0;entryDy=0;exitX=0;exitY=0;exitDx=0;exitDy=0;dashed=1;" edge="1" parent="MPSzHl6AMQkyP7CY1vwX-95" source="MPSzHl6AMQkyP7CY1vwX-98" target="MPSzHl6AMQkyP7CY1vwX-99">
          <mxGeometry width="50" height="50" relative="1" as="geometry">
            <mxPoint x="34" y="39.666666666666586" as="sourcePoint" />
            <mxPoint x="61" y="55.99999999999992" as="targetPoint" />
          </mxGeometry>
        </mxCell>
        <mxCell id="MPSzHl6AMQkyP7CY1vwX-102" value="1" style="text;html=1;align=center;verticalAlign=middle;whiteSpace=wrap;rounded=0;fontSize=8;" vertex="1" parent="MPSzHl6AMQkyP7CY1vwX-95">
          <mxGeometry x="37.19" y="26.999999999999922" width="10" height="11.666666666666666" as="geometry" />
        </mxCell>
        <mxCell id="MPSzHl6AMQkyP7CY1vwX-103" value="0" style="text;html=1;align=center;verticalAlign=middle;whiteSpace=wrap;rounded=0;fontSize=8;" vertex="1" parent="MPSzHl6AMQkyP7CY1vwX-95">
          <mxGeometry x="37.19" y="42.286666666666584" width="10" height="11.666666666666666" as="geometry" />
        </mxCell>
        <mxCell id="MPSzHl6AMQkyP7CY1vwX-104" value="" style="group" vertex="1" connectable="0" parent="1">
          <mxGeometry x="1320" y="180" width="80" height="70" as="geometry" />
        </mxCell>
        <mxCell id="MPSzHl6AMQkyP7CY1vwX-105" value="&lt;div&gt;ANT3&lt;/div&gt;&lt;div&gt;&lt;span style=&quot;background-color: light-dark(#ffffff, var(--ge-dark-color, #121212)); color: light-dark(rgb(0, 0, 0), rgb(255, 255, 255));&quot;&gt;&lt;br&gt;&lt;/span&gt;&lt;/div&gt;&lt;div&gt;&lt;span style=&quot;background-color: light-dark(#ffffff, var(--ge-dark-color, #121212)); color: light-dark(rgb(0, 0, 0), rgb(255, 255, 255));&quot;&gt;&lt;br&gt;&lt;/span&gt;&lt;/div&gt;&lt;div&gt;&lt;span style=&quot;background-color: light-dark(#ffffff, var(--ge-dark-color, #121212)); color: light-dark(rgb(0, 0, 0), rgb(255, 255, 255));&quot;&gt;&lt;br&gt;&lt;/span&gt;&lt;/div&gt;" style="rounded=1;whiteSpace=wrap;html=1;fontFamily=Helvetica;fontSize=11;fontColor=default;labelBackgroundColor=default;labelPosition=center;verticalLabelPosition=middle;align=center;verticalAlign=middle;" vertex="1" parent="MPSzHl6AMQkyP7CY1vwX-104">
          <mxGeometry width="80" height="70" as="geometry" />
        </mxCell>
        <mxCell id="MPSzHl6AMQkyP7CY1vwX-106" value="" style="ellipse;whiteSpace=wrap;html=1;aspect=fixed;" vertex="1" parent="MPSzHl6AMQkyP7CY1vwX-104">
          <mxGeometry x="40" y="23.623333333333257" width="4.374999999999999" height="4.374999999999999" as="geometry" />
        </mxCell>
        <mxCell id="MPSzHl6AMQkyP7CY1vwX-107" value="" style="ellipse;whiteSpace=wrap;html=1;aspect=fixed;" vertex="1" parent="MPSzHl6AMQkyP7CY1vwX-104">
          <mxGeometry x="40" y="53.95333333333325" width="4.374999999999999" height="4.374999999999999" as="geometry" />
        </mxCell>
        <mxCell id="MPSzHl6AMQkyP7CY1vwX-108" value="" style="ellipse;whiteSpace=wrap;html=1;aspect=fixed;" vertex="1" parent="MPSzHl6AMQkyP7CY1vwX-104">
          <mxGeometry x="10" y="42.28333333333325" width="4.374999999999999" height="4.374999999999999" as="geometry" />
        </mxCell>
        <mxCell id="MPSzHl6AMQkyP7CY1vwX-109" value="" style="endArrow=none;html=1;rounded=0;entryX=1;entryY=0.5;entryDx=0;entryDy=0;exitX=0;exitY=1;exitDx=0;exitDy=0;" edge="1" parent="MPSzHl6AMQkyP7CY1vwX-104" source="MPSzHl6AMQkyP7CY1vwX-106" target="MPSzHl6AMQkyP7CY1vwX-108">
          <mxGeometry width="50" height="50" relative="1" as="geometry">
            <mxPoint x="-20" y="58.33333333333325" as="sourcePoint" />
            <mxPoint x="30" y="-7.460698725481052e-14" as="targetPoint" />
          </mxGeometry>
        </mxCell>
        <mxCell id="MPSzHl6AMQkyP7CY1vwX-110" value="" style="endArrow=none;html=1;rounded=0;entryX=1;entryY=0.5;entryDx=0;entryDy=0;exitX=0;exitY=0;exitDx=0;exitDy=0;dashed=1;" edge="1" parent="MPSzHl6AMQkyP7CY1vwX-104" source="MPSzHl6AMQkyP7CY1vwX-107" target="MPSzHl6AMQkyP7CY1vwX-108">
          <mxGeometry width="50" height="50" relative="1" as="geometry">
            <mxPoint x="34" y="39.666666666666586" as="sourcePoint" />
            <mxPoint x="61" y="55.99999999999992" as="targetPoint" />
          </mxGeometry>
        </mxCell>
        <mxCell id="MPSzHl6AMQkyP7CY1vwX-111" value="1" style="text;html=1;align=center;verticalAlign=middle;whiteSpace=wrap;rounded=0;fontSize=8;" vertex="1" parent="MPSzHl6AMQkyP7CY1vwX-104">
          <mxGeometry x="37.19" y="26.999999999999922" width="10" height="11.666666666666666" as="geometry" />
        </mxCell>
        <mxCell id="MPSzHl6AMQkyP7CY1vwX-112" value="0" style="text;html=1;align=center;verticalAlign=middle;whiteSpace=wrap;rounded=0;fontSize=8;" vertex="1" parent="MPSzHl6AMQkyP7CY1vwX-104">
          <mxGeometry x="37.19" y="42.286666666666584" width="10" height="11.666666666666666" as="geometry" />
        </mxCell>
        <mxCell id="MPSzHl6AMQkyP7CY1vwX-113" value="" style="group" vertex="1" connectable="0" parent="1">
          <mxGeometry x="1320" y="260" width="80" height="70" as="geometry" />
        </mxCell>
        <mxCell id="MPSzHl6AMQkyP7CY1vwX-114" value="&lt;div&gt;ANT4&lt;/div&gt;&lt;div&gt;&lt;span style=&quot;background-color: light-dark(#ffffff, var(--ge-dark-color, #121212)); color: light-dark(rgb(0, 0, 0), rgb(255, 255, 255));&quot;&gt;&lt;br&gt;&lt;/span&gt;&lt;/div&gt;&lt;div&gt;&lt;span style=&quot;background-color: light-dark(#ffffff, var(--ge-dark-color, #121212)); color: light-dark(rgb(0, 0, 0), rgb(255, 255, 255));&quot;&gt;&lt;br&gt;&lt;/span&gt;&lt;/div&gt;&lt;div&gt;&lt;span style=&quot;background-color: light-dark(#ffffff, var(--ge-dark-color, #121212)); color: light-dark(rgb(0, 0, 0), rgb(255, 255, 255));&quot;&gt;&lt;br&gt;&lt;/span&gt;&lt;/div&gt;" style="rounded=1;whiteSpace=wrap;html=1;fontFamily=Helvetica;fontSize=11;fontColor=default;labelBackgroundColor=default;labelPosition=center;verticalLabelPosition=middle;align=center;verticalAlign=middle;" vertex="1" parent="MPSzHl6AMQkyP7CY1vwX-113">
          <mxGeometry width="80" height="70" as="geometry" />
        </mxCell>
        <mxCell id="MPSzHl6AMQkyP7CY1vwX-115" value="" style="ellipse;whiteSpace=wrap;html=1;aspect=fixed;" vertex="1" parent="MPSzHl6AMQkyP7CY1vwX-113">
          <mxGeometry x="40" y="23.623333333333257" width="4.374999999999999" height="4.374999999999999" as="geometry" />
        </mxCell>
        <mxCell id="MPSzHl6AMQkyP7CY1vwX-116" value="" style="ellipse;whiteSpace=wrap;html=1;aspect=fixed;" vertex="1" parent="MPSzHl6AMQkyP7CY1vwX-113">
          <mxGeometry x="40" y="53.95333333333325" width="4.374999999999999" height="4.374999999999999" as="geometry" />
        </mxCell>
        <mxCell id="MPSzHl6AMQkyP7CY1vwX-117" value="" style="ellipse;whiteSpace=wrap;html=1;aspect=fixed;" vertex="1" parent="MPSzHl6AMQkyP7CY1vwX-113">
          <mxGeometry x="10" y="42.28333333333325" width="4.374999999999999" height="4.374999999999999" as="geometry" />
        </mxCell>
        <mxCell id="MPSzHl6AMQkyP7CY1vwX-118" value="" style="endArrow=none;html=1;rounded=0;entryX=1;entryY=0.5;entryDx=0;entryDy=0;exitX=0;exitY=1;exitDx=0;exitDy=0;" edge="1" parent="MPSzHl6AMQkyP7CY1vwX-113" source="MPSzHl6AMQkyP7CY1vwX-115" target="MPSzHl6AMQkyP7CY1vwX-117">
          <mxGeometry width="50" height="50" relative="1" as="geometry">
            <mxPoint x="-20" y="58.33333333333325" as="sourcePoint" />
            <mxPoint x="30" y="-7.460698725481052e-14" as="targetPoint" />
          </mxGeometry>
        </mxCell>
        <mxCell id="MPSzHl6AMQkyP7CY1vwX-119" value="" style="endArrow=none;html=1;rounded=0;entryX=1;entryY=0.5;entryDx=0;entryDy=0;exitX=0;exitY=0;exitDx=0;exitDy=0;dashed=1;" edge="1" parent="MPSzHl6AMQkyP7CY1vwX-113" source="MPSzHl6AMQkyP7CY1vwX-116" target="MPSzHl6AMQkyP7CY1vwX-117">
          <mxGeometry width="50" height="50" relative="1" as="geometry">
            <mxPoint x="34" y="39.666666666666586" as="sourcePoint" />
            <mxPoint x="61" y="55.99999999999992" as="targetPoint" />
          </mxGeometry>
        </mxCell>
        <mxCell id="MPSzHl6AMQkyP7CY1vwX-120" value="1" style="text;html=1;align=center;verticalAlign=middle;whiteSpace=wrap;rounded=0;fontSize=8;" vertex="1" parent="MPSzHl6AMQkyP7CY1vwX-113">
          <mxGeometry x="37.19" y="26.999999999999922" width="10" height="11.666666666666666" as="geometry" />
        </mxCell>
        <mxCell id="MPSzHl6AMQkyP7CY1vwX-121" value="0" style="text;html=1;align=center;verticalAlign=middle;whiteSpace=wrap;rounded=0;fontSize=8;" vertex="1" parent="MPSzHl6AMQkyP7CY1vwX-113">
          <mxGeometry x="37.19" y="42.286666666666584" width="10" height="11.666666666666666" as="geometry" />
        </mxCell>
        <mxCell id="MPSzHl6AMQkyP7CY1vwX-122" style="edgeStyle=orthogonalEdgeStyle;rounded=0;orthogonalLoop=1;jettySize=auto;html=1;exitX=1;exitY=0.5;exitDx=0;exitDy=0;entryX=0;entryY=0.5;entryDx=0;entryDy=0;strokeColor=default;strokeWidth=2;align=center;verticalAlign=middle;fontFamily=Helvetica;fontSize=11;fontColor=default;labelBackgroundColor=default;startFill=0;endArrow=none;" edge="1" parent="1" source="MPSzHl6AMQkyP7CY1vwX-67" target="MPSzHl6AMQkyP7CY1vwX-87">
          <mxGeometry relative="1" as="geometry" />
        </mxCell>
        <mxCell id="MPSzHl6AMQkyP7CY1vwX-123" style="edgeStyle=orthogonalEdgeStyle;rounded=0;orthogonalLoop=1;jettySize=auto;html=1;exitX=1;exitY=0.5;exitDx=0;exitDy=0;entryX=0;entryY=0.5;entryDx=0;entryDy=0;strokeColor=default;strokeWidth=2;align=center;verticalAlign=middle;fontFamily=Helvetica;fontSize=11;fontColor=default;labelBackgroundColor=default;startFill=0;endArrow=none;" edge="1" parent="1" source="MPSzHl6AMQkyP7CY1vwX-67" target="MPSzHl6AMQkyP7CY1vwX-96">
          <mxGeometry relative="1" as="geometry" />
        </mxCell>
        <mxCell id="MPSzHl6AMQkyP7CY1vwX-124" style="edgeStyle=orthogonalEdgeStyle;rounded=0;orthogonalLoop=1;jettySize=auto;html=1;exitX=1;exitY=0.5;exitDx=0;exitDy=0;entryX=0;entryY=0.5;entryDx=0;entryDy=0;strokeColor=default;strokeWidth=2;align=center;verticalAlign=middle;fontFamily=Helvetica;fontSize=11;fontColor=default;labelBackgroundColor=default;startFill=0;endArrow=none;" edge="1" parent="1" source="MPSzHl6AMQkyP7CY1vwX-67" target="MPSzHl6AMQkyP7CY1vwX-105">
          <mxGeometry relative="1" as="geometry" />
        </mxCell>
        <mxCell id="MPSzHl6AMQkyP7CY1vwX-125" style="edgeStyle=orthogonalEdgeStyle;rounded=0;orthogonalLoop=1;jettySize=auto;html=1;exitX=1;exitY=0.5;exitDx=0;exitDy=0;entryX=0;entryY=0.5;entryDx=0;entryDy=0;strokeColor=default;strokeWidth=2;align=center;verticalAlign=middle;fontFamily=Helvetica;fontSize=11;fontColor=default;labelBackgroundColor=default;startFill=0;endArrow=none;" edge="1" parent="1" source="MPSzHl6AMQkyP7CY1vwX-67" target="MPSzHl6AMQkyP7CY1vwX-114">
          <mxGeometry relative="1" as="geometry" />
        </mxCell>
        <mxCell id="MPSzHl6AMQkyP7CY1vwX-126" value="" style="ellipse;whiteSpace=wrap;html=1;aspect=fixed;fontFamily=Helvetica;fontSize=11;labelBackgroundColor=default;labelPosition=right;verticalLabelPosition=middle;align=left;verticalAlign=middle;strokeWidth=2;fillColor=#dae8fc;strokeColor=#6c8ebf;" vertex="1" parent="1">
          <mxGeometry x="1430" y="30" width="20" height="20" as="geometry" />
        </mxCell>
        <mxCell id="MPSzHl6AMQkyP7CY1vwX-127" value="" style="ellipse;whiteSpace=wrap;html=1;aspect=fixed;fontFamily=Helvetica;fontSize=11;labelBackgroundColor=default;labelPosition=right;verticalLabelPosition=middle;align=left;verticalAlign=middle;strokeWidth=2;fillColor=#dae8fc;strokeColor=#6c8ebf;" vertex="1" parent="1">
          <mxGeometry x="1430" y="110" width="20" height="20" as="geometry" />
        </mxCell>
        <mxCell id="MPSzHl6AMQkyP7CY1vwX-128" value="" style="ellipse;whiteSpace=wrap;html=1;aspect=fixed;fontFamily=Helvetica;fontSize=11;labelBackgroundColor=default;labelPosition=right;verticalLabelPosition=middle;align=left;verticalAlign=middle;strokeWidth=2;fillColor=#dae8fc;strokeColor=#6c8ebf;" vertex="1" parent="1">
          <mxGeometry x="1430" y="190" width="20" height="20" as="geometry" />
        </mxCell>
        <mxCell id="MPSzHl6AMQkyP7CY1vwX-129" value="" style="ellipse;whiteSpace=wrap;html=1;aspect=fixed;fontFamily=Helvetica;fontSize=11;labelBackgroundColor=default;labelPosition=right;verticalLabelPosition=middle;align=left;verticalAlign=middle;strokeWidth=2;fillColor=#dae8fc;strokeColor=#6c8ebf;" vertex="1" parent="1">
          <mxGeometry x="1430" y="270" width="20" height="20" as="geometry" />
        </mxCell>
        <mxCell id="MPSzHl6AMQkyP7CY1vwX-130" style="edgeStyle=orthogonalEdgeStyle;rounded=0;orthogonalLoop=1;jettySize=auto;html=1;exitX=1;exitY=0.25;exitDx=0;exitDy=0;entryX=0;entryY=0.5;entryDx=0;entryDy=0;strokeColor=default;strokeWidth=2;align=center;verticalAlign=middle;fontFamily=Helvetica;fontSize=11;fontColor=default;labelBackgroundColor=default;startFill=0;endArrow=none;" edge="1" parent="1" source="MPSzHl6AMQkyP7CY1vwX-87" target="MPSzHl6AMQkyP7CY1vwX-126">
          <mxGeometry relative="1" as="geometry" />
        </mxCell>
        <mxCell id="MPSzHl6AMQkyP7CY1vwX-131" style="edgeStyle=orthogonalEdgeStyle;rounded=0;orthogonalLoop=1;jettySize=auto;html=1;exitX=1;exitY=0.25;exitDx=0;exitDy=0;entryX=0;entryY=0.5;entryDx=0;entryDy=0;strokeColor=default;strokeWidth=2;align=center;verticalAlign=middle;fontFamily=Helvetica;fontSize=11;fontColor=default;labelBackgroundColor=default;startFill=0;endArrow=none;" edge="1" parent="1" source="MPSzHl6AMQkyP7CY1vwX-96" target="MPSzHl6AMQkyP7CY1vwX-127">
          <mxGeometry relative="1" as="geometry" />
        </mxCell>
        <mxCell id="MPSzHl6AMQkyP7CY1vwX-132" style="edgeStyle=orthogonalEdgeStyle;rounded=0;orthogonalLoop=1;jettySize=auto;html=1;exitX=1;exitY=0.25;exitDx=0;exitDy=0;entryX=0;entryY=0.5;entryDx=0;entryDy=0;strokeColor=default;strokeWidth=2;align=center;verticalAlign=middle;fontFamily=Helvetica;fontSize=11;fontColor=default;labelBackgroundColor=default;startFill=0;endArrow=none;" edge="1" parent="1" source="MPSzHl6AMQkyP7CY1vwX-105" target="MPSzHl6AMQkyP7CY1vwX-128">
          <mxGeometry relative="1" as="geometry" />
        </mxCell>
        <mxCell id="MPSzHl6AMQkyP7CY1vwX-133" style="edgeStyle=orthogonalEdgeStyle;rounded=0;orthogonalLoop=1;jettySize=auto;html=1;exitX=1;exitY=0.25;exitDx=0;exitDy=0;entryX=0;entryY=0.5;entryDx=0;entryDy=0;strokeColor=default;strokeWidth=2;align=center;verticalAlign=middle;fontFamily=Helvetica;fontSize=11;fontColor=default;labelBackgroundColor=default;startFill=0;endArrow=none;" edge="1" parent="1" source="MPSzHl6AMQkyP7CY1vwX-114" target="MPSzHl6AMQkyP7CY1vwX-129">
          <mxGeometry relative="1" as="geometry" />
        </mxCell>
        <mxCell id="MPSzHl6AMQkyP7CY1vwX-138" style="edgeStyle=orthogonalEdgeStyle;rounded=0;orthogonalLoop=1;jettySize=auto;html=1;exitX=0.5;exitY=0;exitDx=0;exitDy=0;entryX=0.5;entryY=0;entryDx=0;entryDy=0;curved=1;strokeColor=default;strokeWidth=2;align=center;verticalAlign=middle;fontFamily=Helvetica;fontSize=11;fontColor=default;labelBackgroundColor=default;startFill=0;endArrow=none;" edge="1" parent="1" source="MPSzHl6AMQkyP7CY1vwX-134" target="MPSzHl6AMQkyP7CY1vwX-135">
          <mxGeometry relative="1" as="geometry">
            <Array as="points">
              <mxPoint x="470" y="250" />
              <mxPoint x="500" y="250" />
            </Array>
          </mxGeometry>
        </mxCell>
        <mxCell id="MPSzHl6AMQkyP7CY1vwX-134" value="ATTN" style="ellipse;whiteSpace=wrap;html=1;aspect=fixed;fontFamily=Helvetica;fontSize=11;labelBackgroundColor=none;labelPosition=right;verticalLabelPosition=bottom;align=left;verticalAlign=top;strokeWidth=2;fillColor=#f8cecc;strokeColor=#b85450;" vertex="1" parent="1">
          <mxGeometry x="460" y="265" width="20" height="20" as="geometry" />
        </mxCell>
        <mxCell id="MPSzHl6AMQkyP7CY1vwX-152" style="edgeStyle=orthogonalEdgeStyle;rounded=0;orthogonalLoop=1;jettySize=auto;html=1;exitX=1;exitY=0.5;exitDx=0;exitDy=0;entryX=0;entryY=0.5;entryDx=0;entryDy=0;strokeColor=default;strokeWidth=2;align=center;verticalAlign=middle;fontFamily=Helvetica;fontSize=11;fontColor=default;labelBackgroundColor=default;startFill=0;endArrow=none;" edge="1" parent="1" source="MPSzHl6AMQkyP7CY1vwX-135" target="MPSzHl6AMQkyP7CY1vwX-140">
          <mxGeometry relative="1" as="geometry" />
        </mxCell>
        <mxCell id="MPSzHl6AMQkyP7CY1vwX-135" value="" style="ellipse;whiteSpace=wrap;html=1;aspect=fixed;fontFamily=Helvetica;fontSize=11;labelBackgroundColor=none;labelPosition=right;verticalLabelPosition=middle;align=center;verticalAlign=middle;strokeWidth=2;fillColor=#f8cecc;strokeColor=#b85450;" vertex="1" parent="1">
          <mxGeometry x="490" y="265" width="20" height="20" as="geometry" />
        </mxCell>
        <mxCell id="MPSzHl6AMQkyP7CY1vwX-136" style="edgeStyle=orthogonalEdgeStyle;rounded=0;orthogonalLoop=1;jettySize=auto;html=1;exitX=1;exitY=0.5;exitDx=0;exitDy=0;entryX=0;entryY=0.5;entryDx=0;entryDy=0;strokeColor=default;strokeWidth=2;align=center;verticalAlign=middle;fontFamily=Helvetica;fontSize=11;fontColor=default;labelBackgroundColor=default;startFill=0;endArrow=none;" edge="1" parent="1" source="MPSzHl6AMQkyP7CY1vwX-12" target="MPSzHl6AMQkyP7CY1vwX-134">
          <mxGeometry relative="1" as="geometry" />
        </mxCell>
        <mxCell id="MPSzHl6AMQkyP7CY1vwX-139" value="" style="group;flipV=1;" vertex="1" connectable="0" parent="1">
          <mxGeometry x="530" y="240" width="80" height="70" as="geometry" />
        </mxCell>
        <mxCell id="MPSzHl6AMQkyP7CY1vwX-140" value="&lt;div&gt;&lt;span style=&quot;background-color: light-dark(#ffffff, var(--ge-dark-color, #121212)); color: light-dark(rgb(0, 0, 0), rgb(255, 255, 255));&quot;&gt;XVTR&lt;/span&gt;&lt;/div&gt;&lt;div&gt;&lt;span style=&quot;background-color: light-dark(#ffffff, var(--ge-dark-color, #121212)); color: light-dark(rgb(0, 0, 0), rgb(255, 255, 255));&quot;&gt;&lt;br&gt;&lt;/span&gt;&lt;/div&gt;&lt;div&gt;&lt;span style=&quot;background-color: light-dark(#ffffff, var(--ge-dark-color, #121212)); color: light-dark(rgb(0, 0, 0), rgb(255, 255, 255));&quot;&gt;&lt;br&gt;&lt;/span&gt;&lt;/div&gt;&lt;div&gt;&lt;span style=&quot;background-color: light-dark(#ffffff, var(--ge-dark-color, #121212)); color: light-dark(rgb(0, 0, 0), rgb(255, 255, 255));&quot;&gt;&lt;br&gt;&lt;/span&gt;&lt;/div&gt;" style="rounded=1;whiteSpace=wrap;html=1;fontFamily=Helvetica;fontSize=11;fontColor=default;labelBackgroundColor=default;labelPosition=center;verticalLabelPosition=middle;align=center;verticalAlign=middle;" vertex="1" parent="MPSzHl6AMQkyP7CY1vwX-139">
          <mxGeometry width="80" height="70" as="geometry" />
        </mxCell>
        <mxCell id="MPSzHl6AMQkyP7CY1vwX-141" value="" style="ellipse;whiteSpace=wrap;html=1;aspect=fixed;" vertex="1" parent="MPSzHl6AMQkyP7CY1vwX-139">
          <mxGeometry x="40" y="60.33166666666674" width="4.374999999999999" height="4.374999999999999" as="geometry" />
        </mxCell>
        <mxCell id="MPSzHl6AMQkyP7CY1vwX-142" value="" style="ellipse;whiteSpace=wrap;html=1;aspect=fixed;" vertex="1" parent="MPSzHl6AMQkyP7CY1vwX-139">
          <mxGeometry x="40" y="30.00166666666675" width="4.374999999999999" height="4.374999999999999" as="geometry" />
        </mxCell>
        <mxCell id="MPSzHl6AMQkyP7CY1vwX-143" value="" style="ellipse;whiteSpace=wrap;html=1;aspect=fixed;" vertex="1" parent="MPSzHl6AMQkyP7CY1vwX-139">
          <mxGeometry x="10" y="41.671666666666745" width="4.374999999999999" height="4.374999999999999" as="geometry" />
        </mxCell>
        <mxCell id="MPSzHl6AMQkyP7CY1vwX-144" value="" style="endArrow=none;html=1;rounded=0;entryX=1;entryY=0.5;entryDx=0;entryDy=0;exitX=0;exitY=0;exitDx=0;exitDy=0;" edge="1" parent="MPSzHl6AMQkyP7CY1vwX-139" source="MPSzHl6AMQkyP7CY1vwX-141" target="MPSzHl6AMQkyP7CY1vwX-143">
          <mxGeometry width="50" height="50" relative="1" as="geometry">
            <mxPoint x="-20" y="29.996666666666748" as="sourcePoint" />
            <mxPoint x="30" y="88.33000000000007" as="targetPoint" />
          </mxGeometry>
        </mxCell>
        <mxCell id="MPSzHl6AMQkyP7CY1vwX-145" value="" style="endArrow=none;html=1;rounded=0;entryX=1;entryY=0.5;entryDx=0;entryDy=0;exitX=0;exitY=1;exitDx=0;exitDy=0;dashed=1;" edge="1" parent="MPSzHl6AMQkyP7CY1vwX-139" source="MPSzHl6AMQkyP7CY1vwX-142" target="MPSzHl6AMQkyP7CY1vwX-143">
          <mxGeometry width="50" height="50" relative="1" as="geometry">
            <mxPoint x="34" y="48.66333333333341" as="sourcePoint" />
            <mxPoint x="61" y="32.33000000000008" as="targetPoint" />
          </mxGeometry>
        </mxCell>
        <mxCell id="MPSzHl6AMQkyP7CY1vwX-146" value="1" style="text;html=1;align=center;verticalAlign=middle;whiteSpace=wrap;rounded=0;fontSize=8;" vertex="1" parent="MPSzHl6AMQkyP7CY1vwX-139">
          <mxGeometry x="37.19" y="49.66333333333341" width="10" height="11.666666666666666" as="geometry" />
        </mxCell>
        <mxCell id="MPSzHl6AMQkyP7CY1vwX-147" value="0" style="text;html=1;align=center;verticalAlign=middle;whiteSpace=wrap;rounded=0;fontSize=8;" vertex="1" parent="MPSzHl6AMQkyP7CY1vwX-139">
          <mxGeometry x="37.19" y="34.37666666666675" width="10" height="11.666666666666666" as="geometry" />
        </mxCell>
        <mxCell id="MPSzHl6AMQkyP7CY1vwX-148" value="XVTR" style="ellipse;whiteSpace=wrap;html=1;aspect=fixed;fontFamily=Helvetica;fontSize=11;labelBackgroundColor=default;labelPosition=right;verticalLabelPosition=top;align=left;verticalAlign=bottom;strokeWidth=2;fillColor=#f8cecc;strokeColor=#b85450;" vertex="1" parent="1">
          <mxGeometry x="643" y="250" width="20" height="20" as="geometry" />
        </mxCell>
        <mxCell id="MPSzHl6AMQkyP7CY1vwX-155" style="edgeStyle=orthogonalEdgeStyle;rounded=0;orthogonalLoop=1;jettySize=auto;html=1;exitX=1;exitY=0.5;exitDx=0;exitDy=0;entryX=0;entryY=0.5;entryDx=0;entryDy=0;strokeColor=default;strokeWidth=2;align=center;verticalAlign=middle;fontFamily=Helvetica;fontSize=11;fontColor=default;labelBackgroundColor=default;startFill=0;endArrow=none;" edge="1" parent="1" source="MPSzHl6AMQkyP7CY1vwX-149" target="MPSzHl6AMQkyP7CY1vwX-153">
          <mxGeometry relative="1" as="geometry" />
        </mxCell>
        <mxCell id="MPSzHl6AMQkyP7CY1vwX-149" value="" style="ellipse;whiteSpace=wrap;html=1;aspect=fixed;fontFamily=Helvetica;fontSize=11;labelBackgroundColor=none;labelPosition=right;verticalLabelPosition=middle;align=center;verticalAlign=middle;strokeWidth=2;fillColor=#f8cecc;strokeColor=#b85450;" vertex="1" parent="1">
          <mxGeometry x="673" y="250" width="20" height="20" as="geometry" />
        </mxCell>
        <mxCell id="MPSzHl6AMQkyP7CY1vwX-150" style="edgeStyle=orthogonalEdgeStyle;rounded=0;orthogonalLoop=1;jettySize=auto;html=1;exitX=1;exitY=0.25;exitDx=0;exitDy=0;entryX=0;entryY=0.5;entryDx=0;entryDy=0;strokeColor=default;strokeWidth=2;align=center;verticalAlign=middle;fontFamily=Helvetica;fontSize=11;fontColor=default;labelBackgroundColor=default;startFill=0;endArrow=none;" edge="1" parent="1" source="MPSzHl6AMQkyP7CY1vwX-140" target="MPSzHl6AMQkyP7CY1vwX-148">
          <mxGeometry relative="1" as="geometry" />
        </mxCell>
        <mxCell id="MPSzHl6AMQkyP7CY1vwX-151" style="edgeStyle=orthogonalEdgeStyle;rounded=0;orthogonalLoop=1;jettySize=auto;html=1;exitX=1;exitY=0.75;exitDx=0;exitDy=0;entryX=0.5;entryY=1;entryDx=0;entryDy=0;strokeColor=default;strokeWidth=2;align=center;verticalAlign=middle;fontFamily=Helvetica;fontSize=11;fontColor=default;labelBackgroundColor=default;startFill=0;endArrow=none;" edge="1" parent="1" source="MPSzHl6AMQkyP7CY1vwX-140" target="MPSzHl6AMQkyP7CY1vwX-149">
          <mxGeometry relative="1" as="geometry" />
        </mxCell>
        <mxCell id="MPSzHl6AMQkyP7CY1vwX-153" value="20W PA" style="ellipse;whiteSpace=wrap;html=1;aspect=fixed;fontFamily=Helvetica;fontSize=11;labelBackgroundColor=none;labelPosition=right;verticalLabelPosition=bottom;align=left;verticalAlign=top;strokeWidth=2;fillColor=#f8cecc;strokeColor=#b85450;" vertex="1" parent="1">
          <mxGeometry x="713" y="250" width="20" height="20" as="geometry" />
        </mxCell>
        <mxCell id="MPSzHl6AMQkyP7CY1vwX-154" value="" style="ellipse;whiteSpace=wrap;html=1;aspect=fixed;fontFamily=Helvetica;fontSize=11;labelBackgroundColor=none;labelPosition=right;verticalLabelPosition=middle;align=center;verticalAlign=middle;strokeWidth=2;fillColor=#f8cecc;strokeColor=#b85450;" vertex="1" parent="1">
          <mxGeometry x="743" y="250" width="20" height="20" as="geometry" />
        </mxCell>
        <mxCell id="MPSzHl6AMQkyP7CY1vwX-159" value="" style="group" vertex="1" connectable="0" parent="1">
          <mxGeometry x="800" y="220" width="80" height="70" as="geometry" />
        </mxCell>
        <mxCell id="MPSzHl6AMQkyP7CY1vwX-160" value="&lt;div&gt;&lt;span style=&quot;background-color: light-dark(#ffffff, var(--ge-dark-color, #121212)); color: light-dark(rgb(0, 0, 0), rgb(255, 255, 255));&quot;&gt;100W PA&lt;/span&gt;&lt;/div&gt;&lt;div&gt;&lt;span style=&quot;background-color: light-dark(#ffffff, var(--ge-dark-color, #121212)); color: light-dark(rgb(0, 0, 0), rgb(255, 255, 255));&quot;&gt;&lt;br&gt;&lt;/span&gt;&lt;/div&gt;&lt;div&gt;&lt;span style=&quot;background-color: light-dark(#ffffff, var(--ge-dark-color, #121212)); color: light-dark(rgb(0, 0, 0), rgb(255, 255, 255));&quot;&gt;&lt;br&gt;&lt;/span&gt;&lt;/div&gt;&lt;div&gt;&lt;span style=&quot;background-color: light-dark(#ffffff, var(--ge-dark-color, #121212)); color: light-dark(rgb(0, 0, 0), rgb(255, 255, 255));&quot;&gt;&lt;br&gt;&lt;/span&gt;&lt;/div&gt;" style="rounded=1;whiteSpace=wrap;html=1;fontFamily=Helvetica;fontSize=11;fontColor=default;labelBackgroundColor=default;labelPosition=center;verticalLabelPosition=middle;align=center;verticalAlign=middle;" vertex="1" parent="MPSzHl6AMQkyP7CY1vwX-159">
          <mxGeometry width="80" height="70" as="geometry" />
        </mxCell>
        <mxCell id="MPSzHl6AMQkyP7CY1vwX-161" value="" style="ellipse;whiteSpace=wrap;html=1;aspect=fixed;" vertex="1" parent="MPSzHl6AMQkyP7CY1vwX-159">
          <mxGeometry x="40" y="23.623333333333257" width="4.374999999999999" height="4.374999999999999" as="geometry" />
        </mxCell>
        <mxCell id="MPSzHl6AMQkyP7CY1vwX-162" value="" style="ellipse;whiteSpace=wrap;html=1;aspect=fixed;" vertex="1" parent="MPSzHl6AMQkyP7CY1vwX-159">
          <mxGeometry x="40" y="53.95333333333325" width="4.374999999999999" height="4.374999999999999" as="geometry" />
        </mxCell>
        <mxCell id="MPSzHl6AMQkyP7CY1vwX-163" value="" style="ellipse;whiteSpace=wrap;html=1;aspect=fixed;" vertex="1" parent="MPSzHl6AMQkyP7CY1vwX-159">
          <mxGeometry x="10" y="42.28333333333325" width="4.374999999999999" height="4.374999999999999" as="geometry" />
        </mxCell>
        <mxCell id="MPSzHl6AMQkyP7CY1vwX-164" value="" style="endArrow=none;html=1;rounded=0;entryX=1;entryY=0.5;entryDx=0;entryDy=0;exitX=0;exitY=1;exitDx=0;exitDy=0;" edge="1" parent="MPSzHl6AMQkyP7CY1vwX-159" source="MPSzHl6AMQkyP7CY1vwX-161" target="MPSzHl6AMQkyP7CY1vwX-163">
          <mxGeometry width="50" height="50" relative="1" as="geometry">
            <mxPoint x="-20" y="58.33333333333325" as="sourcePoint" />
            <mxPoint x="30" y="-7.460698725481052e-14" as="targetPoint" />
          </mxGeometry>
        </mxCell>
        <mxCell id="MPSzHl6AMQkyP7CY1vwX-165" value="" style="endArrow=none;html=1;rounded=0;entryX=1;entryY=0.5;entryDx=0;entryDy=0;exitX=0;exitY=0;exitDx=0;exitDy=0;dashed=1;" edge="1" parent="MPSzHl6AMQkyP7CY1vwX-159" source="MPSzHl6AMQkyP7CY1vwX-162" target="MPSzHl6AMQkyP7CY1vwX-163">
          <mxGeometry width="50" height="50" relative="1" as="geometry">
            <mxPoint x="34" y="39.666666666666586" as="sourcePoint" />
            <mxPoint x="61" y="55.99999999999992" as="targetPoint" />
          </mxGeometry>
        </mxCell>
        <mxCell id="MPSzHl6AMQkyP7CY1vwX-166" value="1" style="text;html=1;align=center;verticalAlign=middle;whiteSpace=wrap;rounded=0;fontSize=8;" vertex="1" parent="MPSzHl6AMQkyP7CY1vwX-159">
          <mxGeometry x="37.19" y="26.999999999999922" width="10" height="11.666666666666666" as="geometry" />
        </mxCell>
        <mxCell id="MPSzHl6AMQkyP7CY1vwX-167" value="0" style="text;html=1;align=center;verticalAlign=middle;whiteSpace=wrap;rounded=0;fontSize=8;" vertex="1" parent="MPSzHl6AMQkyP7CY1vwX-159">
          <mxGeometry x="37.19" y="42.286666666666584" width="10" height="11.666666666666666" as="geometry" />
        </mxCell>
        <mxCell id="MPSzHl6AMQkyP7CY1vwX-168" style="edgeStyle=orthogonalEdgeStyle;rounded=0;orthogonalLoop=1;jettySize=auto;html=1;exitX=1;exitY=0.5;exitDx=0;exitDy=0;strokeColor=default;strokeWidth=2;align=center;verticalAlign=middle;fontFamily=Helvetica;fontSize=11;fontColor=default;labelBackgroundColor=default;startFill=0;endArrow=none;entryX=0;entryY=0.5;entryDx=0;entryDy=0;" edge="1" parent="1" source="MPSzHl6AMQkyP7CY1vwX-154" target="MPSzHl6AMQkyP7CY1vwX-160">
          <mxGeometry relative="1" as="geometry">
            <mxPoint x="780" y="270" as="targetPoint" />
          </mxGeometry>
        </mxCell>
        <mxCell id="MPSzHl6AMQkyP7CY1vwX-169" value="100W PA" style="ellipse;whiteSpace=wrap;html=1;aspect=fixed;fontFamily=Helvetica;fontSize=11;labelBackgroundColor=none;labelPosition=right;verticalLabelPosition=top;align=left;verticalAlign=bottom;strokeWidth=2;fillColor=#f8cecc;strokeColor=#b85450;" vertex="1" parent="1">
          <mxGeometry x="895" y="230" width="20" height="20" as="geometry" />
        </mxCell>
        <mxCell id="MPSzHl6AMQkyP7CY1vwX-170" value="" style="ellipse;whiteSpace=wrap;html=1;aspect=fixed;fontFamily=Helvetica;fontSize=11;labelBackgroundColor=none;labelPosition=right;verticalLabelPosition=middle;align=center;verticalAlign=middle;strokeWidth=2;fillColor=#f8cecc;strokeColor=#b85450;" vertex="1" parent="1">
          <mxGeometry x="925" y="230" width="20" height="20" as="geometry" />
        </mxCell>
        <mxCell id="MPSzHl6AMQkyP7CY1vwX-171" style="edgeStyle=orthogonalEdgeStyle;rounded=0;orthogonalLoop=1;jettySize=auto;html=1;exitX=1;exitY=0.25;exitDx=0;exitDy=0;entryX=0.007;entryY=0.296;entryDx=0;entryDy=0;entryPerimeter=0;strokeColor=default;strokeWidth=2;align=center;verticalAlign=middle;fontFamily=Helvetica;fontSize=11;fontColor=default;labelBackgroundColor=default;startFill=0;endArrow=none;" edge="1" parent="1" source="MPSzHl6AMQkyP7CY1vwX-160" target="MPSzHl6AMQkyP7CY1vwX-169">
          <mxGeometry relative="1" as="geometry" />
        </mxCell>
        <mxCell id="MPSzHl6AMQkyP7CY1vwX-190" value="" style="group" vertex="1" connectable="0" parent="1">
          <mxGeometry x="970" y="190" width="80" height="70" as="geometry" />
        </mxCell>
        <mxCell id="MPSzHl6AMQkyP7CY1vwX-191" value="&lt;div&gt;&lt;span style=&quot;background-color: light-dark(#ffffff, var(--ge-dark-color, #121212)); color: light-dark(rgb(0, 0, 0), rgb(255, 255, 255));&quot;&gt;100W PA&lt;/span&gt;&lt;/div&gt;&lt;div&gt;&lt;span style=&quot;background-color: light-dark(#ffffff, var(--ge-dark-color, #121212)); color: light-dark(rgb(0, 0, 0), rgb(255, 255, 255));&quot;&gt;&lt;br&gt;&lt;/span&gt;&lt;/div&gt;&lt;div&gt;&lt;span style=&quot;background-color: light-dark(#ffffff, var(--ge-dark-color, #121212)); color: light-dark(rgb(0, 0, 0), rgb(255, 255, 255));&quot;&gt;&lt;br&gt;&lt;/span&gt;&lt;/div&gt;&lt;div&gt;&lt;span style=&quot;background-color: light-dark(#ffffff, var(--ge-dark-color, #121212)); color: light-dark(rgb(0, 0, 0), rgb(255, 255, 255));&quot;&gt;&lt;br&gt;&lt;/span&gt;&lt;/div&gt;" style="rounded=1;whiteSpace=wrap;html=1;fontFamily=Helvetica;fontSize=11;fontColor=default;labelBackgroundColor=default;labelPosition=center;verticalLabelPosition=middle;align=center;verticalAlign=middle;" vertex="1" parent="MPSzHl6AMQkyP7CY1vwX-190">
          <mxGeometry width="80" height="70" as="geometry" />
        </mxCell>
        <mxCell id="MPSzHl6AMQkyP7CY1vwX-192" value="" style="ellipse;whiteSpace=wrap;html=1;aspect=fixed;" vertex="1" parent="MPSzHl6AMQkyP7CY1vwX-190">
          <mxGeometry x="40" y="23.623333333333257" width="4.374999999999999" height="4.374999999999999" as="geometry" />
        </mxCell>
        <mxCell id="MPSzHl6AMQkyP7CY1vwX-193" value="" style="ellipse;whiteSpace=wrap;html=1;aspect=fixed;" vertex="1" parent="MPSzHl6AMQkyP7CY1vwX-190">
          <mxGeometry x="40" y="53.95333333333325" width="4.374999999999999" height="4.374999999999999" as="geometry" />
        </mxCell>
        <mxCell id="MPSzHl6AMQkyP7CY1vwX-194" value="" style="ellipse;whiteSpace=wrap;html=1;aspect=fixed;" vertex="1" parent="MPSzHl6AMQkyP7CY1vwX-190">
          <mxGeometry x="10" y="42.28333333333325" width="4.374999999999999" height="4.374999999999999" as="geometry" />
        </mxCell>
        <mxCell id="MPSzHl6AMQkyP7CY1vwX-195" value="" style="endArrow=none;html=1;rounded=0;entryX=1;entryY=0.5;entryDx=0;entryDy=0;exitX=0;exitY=1;exitDx=0;exitDy=0;" edge="1" parent="MPSzHl6AMQkyP7CY1vwX-190" source="MPSzHl6AMQkyP7CY1vwX-192" target="MPSzHl6AMQkyP7CY1vwX-194">
          <mxGeometry width="50" height="50" relative="1" as="geometry">
            <mxPoint x="-20" y="58.33333333333325" as="sourcePoint" />
            <mxPoint x="30" y="-7.460698725481052e-14" as="targetPoint" />
          </mxGeometry>
        </mxCell>
        <mxCell id="MPSzHl6AMQkyP7CY1vwX-196" value="" style="endArrow=none;html=1;rounded=0;entryX=1;entryY=0.5;entryDx=0;entryDy=0;exitX=0;exitY=0;exitDx=0;exitDy=0;dashed=1;" edge="1" parent="MPSzHl6AMQkyP7CY1vwX-190" source="MPSzHl6AMQkyP7CY1vwX-193" target="MPSzHl6AMQkyP7CY1vwX-194">
          <mxGeometry width="50" height="50" relative="1" as="geometry">
            <mxPoint x="34" y="39.666666666666586" as="sourcePoint" />
            <mxPoint x="61" y="55.99999999999992" as="targetPoint" />
          </mxGeometry>
        </mxCell>
        <mxCell id="MPSzHl6AMQkyP7CY1vwX-197" value="1" style="text;html=1;align=center;verticalAlign=middle;whiteSpace=wrap;rounded=0;fontSize=8;" vertex="1" parent="MPSzHl6AMQkyP7CY1vwX-190">
          <mxGeometry x="37.19" y="26.999999999999922" width="10" height="11.666666666666666" as="geometry" />
        </mxCell>
        <mxCell id="MPSzHl6AMQkyP7CY1vwX-198" value="0" style="text;html=1;align=center;verticalAlign=middle;whiteSpace=wrap;rounded=0;fontSize=8;" vertex="1" parent="MPSzHl6AMQkyP7CY1vwX-190">
          <mxGeometry x="37.19" y="42.286666666666584" width="10" height="11.666666666666666" as="geometry" />
        </mxCell>
        <mxCell id="MPSzHl6AMQkyP7CY1vwX-199" style="edgeStyle=orthogonalEdgeStyle;rounded=0;orthogonalLoop=1;jettySize=auto;html=1;exitX=1;exitY=0.5;exitDx=0;exitDy=0;entryX=-0.009;entryY=0.603;entryDx=0;entryDy=0;entryPerimeter=0;strokeColor=default;strokeWidth=2;align=center;verticalAlign=middle;fontFamily=Helvetica;fontSize=11;fontColor=default;labelBackgroundColor=default;startFill=0;endArrow=none;" edge="1" parent="1" source="MPSzHl6AMQkyP7CY1vwX-170" target="MPSzHl6AMQkyP7CY1vwX-191">
          <mxGeometry relative="1" as="geometry" />
        </mxCell>
        <mxCell id="MPSzHl6AMQkyP7CY1vwX-206" style="edgeStyle=orthogonalEdgeStyle;rounded=0;orthogonalLoop=1;jettySize=auto;html=1;exitX=1;exitY=0.5;exitDx=0;exitDy=0;entryX=0;entryY=0.5;entryDx=0;entryDy=0;strokeColor=default;strokeWidth=2;align=center;verticalAlign=middle;fontFamily=Helvetica;fontSize=11;fontColor=default;labelBackgroundColor=default;startFill=0;endArrow=none;" edge="1" parent="1" source="MPSzHl6AMQkyP7CY1vwX-219" target="MPSzHl6AMQkyP7CY1vwX-205">
          <mxGeometry relative="1" as="geometry">
            <mxPoint x="975.0000000000114" y="330" as="sourcePoint" />
          </mxGeometry>
        </mxCell>
        <mxCell id="MPSzHl6AMQkyP7CY1vwX-203" style="edgeStyle=orthogonalEdgeStyle;rounded=0;orthogonalLoop=1;jettySize=auto;html=1;exitX=1;exitY=0.75;exitDx=0;exitDy=0;entryX=0.5;entryY=0;entryDx=0;entryDy=0;strokeColor=default;strokeWidth=2;align=center;verticalAlign=middle;fontFamily=Helvetica;fontSize=11;fontColor=default;labelBackgroundColor=default;startFill=0;endArrow=none;" edge="1" parent="1" source="MPSzHl6AMQkyP7CY1vwX-160" target="MPSzHl6AMQkyP7CY1vwX-219">
          <mxGeometry relative="1" as="geometry">
            <mxPoint x="935" y="320" as="targetPoint" />
          </mxGeometry>
        </mxCell>
        <mxCell id="MPSzHl6AMQkyP7CY1vwX-204" style="edgeStyle=orthogonalEdgeStyle;rounded=0;orthogonalLoop=1;jettySize=auto;html=1;exitX=1;exitY=0.25;exitDx=0;exitDy=0;entryX=0.5;entryY=0;entryDx=0;entryDy=0;strokeColor=default;strokeWidth=2;align=center;verticalAlign=middle;fontFamily=Helvetica;fontSize=11;fontColor=default;labelBackgroundColor=default;startFill=0;endArrow=none;" edge="1" parent="1" source="MPSzHl6AMQkyP7CY1vwX-191" target="MPSzHl6AMQkyP7CY1vwX-219">
          <mxGeometry relative="1" as="geometry">
            <mxPoint x="935" y="320" as="targetPoint" />
            <Array as="points">
              <mxPoint x="1070" y="207" />
              <mxPoint x="1070" y="280" />
              <mxPoint x="935" y="280" />
            </Array>
          </mxGeometry>
        </mxCell>
        <mxCell id="MPSzHl6AMQkyP7CY1vwX-207" style="edgeStyle=orthogonalEdgeStyle;rounded=0;orthogonalLoop=1;jettySize=auto;html=1;exitX=1;exitY=0.5;exitDx=0;exitDy=0;entryX=0;entryY=0.75;entryDx=0;entryDy=0;strokeColor=default;strokeWidth=2;align=center;verticalAlign=middle;fontFamily=Helvetica;fontSize=11;fontColor=default;labelBackgroundColor=default;startFill=0;endArrow=none;" edge="1" parent="1" source="MPSzHl6AMQkyP7CY1vwX-205" target="MPSzHl6AMQkyP7CY1vwX-67">
          <mxGeometry relative="1" as="geometry" />
        </mxCell>
        <mxCell id="MPSzHl6AMQkyP7CY1vwX-205" value="SWR Bridge" style="rounded=1;whiteSpace=wrap;html=1;fontFamily=Helvetica;fontSize=11;fontColor=default;labelBackgroundColor=default;" vertex="1" parent="1">
          <mxGeometry x="1009.75" y="320" width="80" height="40" as="geometry" />
        </mxCell>
        <mxCell id="nqcRDhzoilnJjKWwHqof-128" value="&lt;span style=&quot;color: rgb(0, 0, 0); font-family: Helvetica; font-size: 11px; font-style: normal; font-variant-ligatures: normal; font-variant-caps: normal; font-weight: 400; letter-spacing: normal; orphans: 2; text-align: center; text-indent: 0px; text-transform: none; widows: 2; word-spacing: 0px; -webkit-text-stroke-width: 0px; white-space: nowrap; background-color: rgb(255, 255, 255); text-decoration-thickness: initial; text-decoration-style: initial; text-decoration-color: initial; display: inline !important; float: none;&quot;&gt;GPA/0: HI=BPF select&lt;/span&gt;" style="edgeStyle=orthogonalEdgeStyle;rounded=0;orthogonalLoop=1;jettySize=auto;html=1;exitX=0;exitY=0.5;exitDx=0;exitDy=0;strokeColor=light-dark(#787878, #ededed);strokeWidth=2;align=center;verticalAlign=middle;fontFamily=Helvetica;fontSize=11;fontColor=default;labelBackgroundColor=default;startArrow=none;startFill=0;endArrow=block;endFill=0;entryX=0.5;entryY=1;entryDx=0;entryDy=0;" parent="1" source="nqcRDhzoilnJjKWwHqof-41" target="MPSzHl6AMQkyP7CY1vwX-2" edge="1">
          <mxGeometry x="-0.4545" relative="1" as="geometry">
            <mxPoint as="offset" />
            <mxPoint x="170" y="390" as="targetPoint" />
          </mxGeometry>
        </mxCell>
        <mxCell id="MPSzHl6AMQkyP7CY1vwX-212" style="edgeStyle=orthogonalEdgeStyle;rounded=0;orthogonalLoop=1;jettySize=auto;html=1;exitX=0.5;exitY=0;exitDx=0;exitDy=0;entryX=0.5;entryY=1;entryDx=0;entryDy=0;strokeColor=light-dark(#787878, #ededed);strokeWidth=2;align=center;verticalAlign=middle;fontFamily=Helvetica;fontSize=11;fontColor=default;labelBackgroundColor=default;startArrow=none;startFill=0;endArrow=block;endFill=0;" edge="1" parent="1" source="nqcRDhzoilnJjKWwHqof-41" target="MPSzHl6AMQkyP7CY1vwX-160">
          <mxGeometry relative="1" as="geometry">
            <Array as="points">
              <mxPoint x="571" y="370" />
              <mxPoint x="837" y="370" />
            </Array>
          </mxGeometry>
        </mxCell>
        <mxCell id="MPSzHl6AMQkyP7CY1vwX-213" value="GPB/7&lt;div&gt;HI=100W&lt;/div&gt;" style="edgeLabel;html=1;align=center;verticalAlign=middle;resizable=0;points=[];" vertex="1" connectable="0" parent="MPSzHl6AMQkyP7CY1vwX-212">
          <mxGeometry x="-0.7524" y="1" relative="1" as="geometry">
            <mxPoint x="11" y="-27" as="offset" />
          </mxGeometry>
        </mxCell>
        <mxCell id="MPSzHl6AMQkyP7CY1vwX-217" style="edgeStyle=orthogonalEdgeStyle;rounded=0;orthogonalLoop=1;jettySize=auto;html=1;exitX=1;exitY=1;exitDx=0;exitDy=0;entryX=0.75;entryY=1;entryDx=0;entryDy=0;strokeColor=light-dark(#787878, #ededed);strokeWidth=2;align=center;verticalAlign=middle;fontFamily=Helvetica;fontSize=11;fontColor=default;labelBackgroundColor=default;startArrow=block;startFill=0;endArrow=none;endFill=0;" edge="1" parent="1" source="MPSzHl6AMQkyP7CY1vwX-215" target="MPSzHl6AMQkyP7CY1vwX-205">
          <mxGeometry relative="1" as="geometry">
            <Array as="points">
              <mxPoint x="1070" y="470" />
            </Array>
          </mxGeometry>
        </mxCell>
        <mxCell id="MPSzHl6AMQkyP7CY1vwX-218" value="Analog For/Ref" style="edgeLabel;html=1;align=center;verticalAlign=middle;resizable=0;points=[];" vertex="1" connectable="0" parent="MPSzHl6AMQkyP7CY1vwX-217">
          <mxGeometry x="-0.5017" y="2" relative="1" as="geometry">
            <mxPoint as="offset" />
          </mxGeometry>
        </mxCell>
        <mxCell id="MPSzHl6AMQkyP7CY1vwX-219" value="Low pass filter board" style="rounded=1;whiteSpace=wrap;html=1;fontFamily=Helvetica;fontSize=11;fontColor=default;labelBackgroundColor=default;" vertex="1" parent="1">
          <mxGeometry x="895" y="320" width="80" height="40" as="geometry" />
        </mxCell>
        <mxCell id="MPSzHl6AMQkyP7CY1vwX-226" value="ADC read of For/Ref" style="edgeStyle=orthogonalEdgeStyle;rounded=0;orthogonalLoop=1;jettySize=auto;html=1;exitX=0;exitY=1;exitDx=0;exitDy=0;entryX=0.25;entryY=1;entryDx=0;entryDy=0;strokeColor=light-dark(#787878, #ededed);strokeWidth=2;align=center;verticalAlign=middle;fontFamily=Helvetica;fontSize=11;fontColor=default;labelBackgroundColor=default;startArrow=block;startFill=0;endArrow=block;endFill=0;" edge="1" parent="1" source="nqcRDhzoilnJjKWwHqof-273" target="MPSzHl6AMQkyP7CY1vwX-205">
          <mxGeometry relative="1" as="geometry">
            <Array as="points">
              <mxPoint x="650" y="490" />
              <mxPoint x="650" y="440" />
              <mxPoint x="1030" y="440" />
            </Array>
          </mxGeometry>
        </mxCell>
        <mxCell id="nqcRDhzoilnJjKWwHqof-127" value="I2C" style="edgeStyle=orthogonalEdgeStyle;rounded=0;orthogonalLoop=1;jettySize=auto;html=1;exitX=0;exitY=1;exitDx=0;exitDy=0;entryX=1;entryY=0.5;entryDx=0;entryDy=0;endArrow=block;startFill=0;startArrow=block;strokeColor=light-dark(#787878, #ededed);strokeWidth=2;align=center;verticalAlign=middle;fontFamily=Helvetica;fontSize=11;fontColor=default;labelBackgroundColor=default;endFill=0;" parent="1" source="nqcRDhzoilnJjKWwHqof-273" target="nqcRDhzoilnJjKWwHqof-41" edge="1">
          <mxGeometry x="-0.2836" relative="1" as="geometry">
            <Array as="points">
              <mxPoint x="680" y="490" />
              <mxPoint x="680" y="490" />
            </Array>
            <mxPoint x="427" y="742" as="sourcePoint" />
            <mxPoint x="210" y="565" as="targetPoint" />
            <mxPoint as="offset" />
          </mxGeometry>
        </mxCell>
        <mxCell id="nqcRDhzoilnJjKWwHqof-129" value="&lt;span style=&quot;color: rgb(0, 0, 0); font-family: Helvetica; font-size: 11px; font-style: normal; font-variant-ligatures: normal; font-variant-caps: normal; font-weight: 400; letter-spacing: normal; orphans: 2; text-align: center; text-indent: 0px; text-transform: none; widows: 2; word-spacing: 0px; -webkit-text-stroke-width: 0px; white-space: nowrap; background-color: rgb(255, 255, 255); text-decoration-thickness: initial; text-decoration-style: initial; text-decoration-color: initial; display: inline !important; float: none;&quot;&gt;GPB/6&lt;/span&gt;&lt;div&gt;&lt;span style=&quot;color: rgb(0, 0, 0); font-family: Helvetica; font-size: 11px; font-style: normal; font-variant-ligatures: normal; font-variant-caps: normal; font-weight: 400; letter-spacing: normal; orphans: 2; text-align: center; text-indent: 0px; text-transform: none; widows: 2; word-spacing: 0px; -webkit-text-stroke-width: 0px; white-space: nowrap; background-color: rgb(255, 255, 255); text-decoration-thickness: initial; text-decoration-style: initial; text-decoration-color: initial; display: inline !important; float: none;&quot;&gt;LO=XVTR&lt;/span&gt;&lt;/div&gt;" style="edgeStyle=orthogonalEdgeStyle;rounded=0;orthogonalLoop=1;jettySize=auto;html=1;exitX=0.25;exitY=0;exitDx=0;exitDy=0;strokeColor=light-dark(#787878, #ededed);strokeWidth=2;align=center;verticalAlign=middle;fontFamily=Helvetica;fontSize=11;fontColor=default;labelBackgroundColor=default;startArrow=none;startFill=0;endArrow=block;endFill=0;entryX=0.5;entryY=1;entryDx=0;entryDy=0;" parent="1" source="nqcRDhzoilnJjKWwHqof-41" target="MPSzHl6AMQkyP7CY1vwX-140" edge="1">
          <mxGeometry x="-0.756" y="8" relative="1" as="geometry">
            <mxPoint as="offset" />
            <mxPoint x="660" y="380" as="targetPoint" />
            <Array as="points">
              <mxPoint x="548" y="340" />
              <mxPoint x="570" y="340" />
            </Array>
          </mxGeometry>
        </mxCell>
        <mxCell id="MPSzHl6AMQkyP7CY1vwX-231" value="&lt;h1 style=&quot;margin-top: 0px;&quot;&gt;Timing / ordering&lt;/h1&gt;&lt;p&gt;How the changes need to be scheduled in time.&lt;/p&gt;&lt;p&gt;CW transmit to receive:&lt;br&gt;1) Turn CW off with CWOff()&lt;br&gt;2) Disable CW clock with DisableCWVFOOutput()&lt;br&gt;3) TX BPF to LO&lt;br&gt;4) XVTR to LO&lt;br&gt;5) 100W PA to LO&lt;br&gt;6) RX BPF to HI&lt;br&gt;7) TXRX to LO&lt;/p&gt;&lt;p&gt;SSB transmit to receive:&lt;br&gt;1) TX attenuator to max&lt;br&gt;2) CAL to HI&lt;br&gt;3) TX BPF to LO&lt;br&gt;4) XVTR to LO&lt;br&gt;5) 100W PA to LO&lt;br&gt;6) RX BPF to HI&lt;br&gt;7) TXRX to LO&lt;br&gt;8) TX attenuator to band setting&lt;br&gt;9) CAL to LO&lt;/p&gt;&lt;p&gt;Receive to transmit:&lt;br&gt;--Same but in reverse order?&lt;/p&gt;" style="text;html=1;whiteSpace=wrap;overflow=hidden;rounded=0;" vertex="1" parent="1">
          <mxGeometry x="740" y="615" width="280" height="385" as="geometry" />
        </mxCell>
        <mxCell id="MPSzHl6AMQkyP7CY1vwX-241" value="" style="group;flipV=1;" vertex="1" connectable="0" parent="1">
          <mxGeometry x="470" y="927" width="80" height="70" as="geometry" />
        </mxCell>
        <mxCell id="MPSzHl6AMQkyP7CY1vwX-242" value="&lt;div&gt;&lt;span style=&quot;background-color: light-dark(#ffffff, var(--ge-dark-color, #121212)); color: light-dark(rgb(0, 0, 0), rgb(255, 255, 255));&quot;&gt;100W PA&lt;/span&gt;&lt;/div&gt;&lt;div&gt;&lt;span style=&quot;background-color: light-dark(#ffffff, var(--ge-dark-color, #121212)); color: light-dark(rgb(0, 0, 0), rgb(255, 255, 255));&quot;&gt;&lt;br&gt;&lt;/span&gt;&lt;/div&gt;&lt;div&gt;&lt;span style=&quot;background-color: light-dark(#ffffff, var(--ge-dark-color, #121212)); color: light-dark(rgb(0, 0, 0), rgb(255, 255, 255));&quot;&gt;&lt;br&gt;&lt;/span&gt;&lt;/div&gt;&lt;div&gt;&lt;span style=&quot;background-color: light-dark(#ffffff, var(--ge-dark-color, #121212)); color: light-dark(rgb(0, 0, 0), rgb(255, 255, 255));&quot;&gt;&lt;br&gt;&lt;/span&gt;&lt;/div&gt;" style="rounded=1;whiteSpace=wrap;html=1;fontFamily=Helvetica;fontSize=11;fontColor=default;labelBackgroundColor=default;labelPosition=center;verticalLabelPosition=middle;align=center;verticalAlign=middle;" vertex="1" parent="MPSzHl6AMQkyP7CY1vwX-241">
          <mxGeometry width="80" height="70" as="geometry" />
        </mxCell>
        <mxCell id="MPSzHl6AMQkyP7CY1vwX-243" value="" style="ellipse;whiteSpace=wrap;html=1;aspect=fixed;" vertex="1" parent="MPSzHl6AMQkyP7CY1vwX-241">
          <mxGeometry x="40" y="60.33166666666674" width="4.374999999999999" height="4.374999999999999" as="geometry" />
        </mxCell>
        <mxCell id="MPSzHl6AMQkyP7CY1vwX-244" value="" style="ellipse;whiteSpace=wrap;html=1;aspect=fixed;" vertex="1" parent="MPSzHl6AMQkyP7CY1vwX-241">
          <mxGeometry x="40" y="30.00166666666675" width="4.374999999999999" height="4.374999999999999" as="geometry" />
        </mxCell>
        <mxCell id="MPSzHl6AMQkyP7CY1vwX-245" value="" style="ellipse;whiteSpace=wrap;html=1;aspect=fixed;" vertex="1" parent="MPSzHl6AMQkyP7CY1vwX-241">
          <mxGeometry x="10" y="41.671666666666745" width="4.374999999999999" height="4.374999999999999" as="geometry" />
        </mxCell>
        <mxCell id="MPSzHl6AMQkyP7CY1vwX-246" value="" style="endArrow=none;html=1;rounded=0;entryX=1;entryY=0.5;entryDx=0;entryDy=0;exitX=0;exitY=0;exitDx=0;exitDy=0;" edge="1" parent="MPSzHl6AMQkyP7CY1vwX-241" source="MPSzHl6AMQkyP7CY1vwX-243" target="MPSzHl6AMQkyP7CY1vwX-245">
          <mxGeometry width="50" height="50" relative="1" as="geometry">
            <mxPoint x="-20" y="29.996666666666748" as="sourcePoint" />
            <mxPoint x="30" y="88.33000000000007" as="targetPoint" />
          </mxGeometry>
        </mxCell>
        <mxCell id="MPSzHl6AMQkyP7CY1vwX-247" value="" style="endArrow=none;html=1;rounded=0;entryX=1;entryY=0.5;entryDx=0;entryDy=0;exitX=0;exitY=1;exitDx=0;exitDy=0;dashed=1;" edge="1" parent="MPSzHl6AMQkyP7CY1vwX-241" source="MPSzHl6AMQkyP7CY1vwX-244" target="MPSzHl6AMQkyP7CY1vwX-245">
          <mxGeometry width="50" height="50" relative="1" as="geometry">
            <mxPoint x="34" y="48.66333333333341" as="sourcePoint" />
            <mxPoint x="61" y="32.33000000000008" as="targetPoint" />
          </mxGeometry>
        </mxCell>
        <mxCell id="MPSzHl6AMQkyP7CY1vwX-248" value="1" style="text;html=1;align=center;verticalAlign=middle;whiteSpace=wrap;rounded=0;fontSize=8;" vertex="1" parent="MPSzHl6AMQkyP7CY1vwX-241">
          <mxGeometry x="37.19" y="49.66333333333341" width="10" height="11.666666666666666" as="geometry" />
        </mxCell>
        <mxCell id="MPSzHl6AMQkyP7CY1vwX-249" value="0" style="text;html=1;align=center;verticalAlign=middle;whiteSpace=wrap;rounded=0;fontSize=8;" vertex="1" parent="MPSzHl6AMQkyP7CY1vwX-241">
          <mxGeometry x="37.19" y="34.37666666666675" width="10" height="11.666666666666666" as="geometry" />
        </mxCell>
        <mxCell id="MPSzHl6AMQkyP7CY1vwX-250" value="100W PA control functions" style="swimlane;fontStyle=0;childLayout=stackLayout;horizontal=1;startSize=30;horizontalStack=0;resizeParent=1;resizeParentMax=0;resizeLast=0;collapsible=1;marginBottom=0;whiteSpace=wrap;html=1;" vertex="1" parent="1">
          <mxGeometry x="30" y="964" width="200" height="90" as="geometry" />
        </mxCell>
        <mxCell id="MPSzHl6AMQkyP7CY1vwX-251" value="Select100WPA()" style="text;strokeColor=none;fillColor=none;align=left;verticalAlign=middle;spacingLeft=4;spacingRight=4;overflow=hidden;points=[[0,0.5],[1,0.5]];portConstraint=eastwest;rotatable=0;whiteSpace=wrap;html=1;fontFamily=Courier New;fontSize=10;fontStyle=1" vertex="1" parent="MPSzHl6AMQkyP7CY1vwX-250">
          <mxGeometry y="30" width="200" height="20" as="geometry" />
        </mxCell>
        <mxCell id="MPSzHl6AMQkyP7CY1vwX-252" value="&lt;span style=&quot;font-family: &amp;quot;Courier New&amp;quot;; font-size: 10px; font-weight: 700;&quot;&gt;Bypass100WPA()&lt;/span&gt;" style="text;strokeColor=none;fillColor=none;align=left;verticalAlign=middle;spacingLeft=4;spacingRight=4;overflow=hidden;points=[[0,0.5],[1,0.5]];portConstraint=eastwest;rotatable=0;whiteSpace=wrap;html=1;" vertex="1" parent="MPSzHl6AMQkyP7CY1vwX-250">
          <mxGeometry y="50" width="200" height="20" as="geometry" />
        </mxCell>
        <mxCell id="MPSzHl6AMQkyP7CY1vwX-253" value="&lt;span style=&quot;font-family: &amp;quot;Courier New&amp;quot;; font-size: 10px; font-weight: 700;&quot;&gt;Init100WPAControl()&lt;/span&gt;" style="text;strokeColor=none;fillColor=none;align=left;verticalAlign=middle;spacingLeft=4;spacingRight=4;overflow=hidden;points=[[0,0.5],[1,0.5]];portConstraint=eastwest;rotatable=0;whiteSpace=wrap;html=1;" vertex="1" parent="MPSzHl6AMQkyP7CY1vwX-250">
          <mxGeometry y="70" width="200" height="20" as="geometry" />
        </mxCell>
        <mxCell id="MPSzHl6AMQkyP7CY1vwX-254" value="HI=100W&lt;div&gt;LO=bypass&lt;/div&gt;" style="edgeStyle=orthogonalEdgeStyle;rounded=0;orthogonalLoop=1;jettySize=auto;html=1;exitX=1;exitY=0.5;exitDx=0;exitDy=0;entryX=0.5;entryY=1;entryDx=0;entryDy=0;" edge="1" source="MPSzHl6AMQkyP7CY1vwX-255" target="MPSzHl6AMQkyP7CY1vwX-242" parent="1">
          <mxGeometry relative="1" as="geometry">
            <mxPoint x="510" y="997.0000000000002" as="targetPoint" />
          </mxGeometry>
        </mxCell>
        <mxCell id="MPSzHl6AMQkyP7CY1vwX-255" value="bool 100W_state" style="text;html=1;align=center;verticalAlign=middle;whiteSpace=wrap;rounded=0;fontFamily=Courier New;fontStyle=1;strokeColor=default;" vertex="1" parent="1">
          <mxGeometry x="280" y="1004" width="120" height="30" as="geometry" />
        </mxCell>
        <mxCell id="MPSzHl6AMQkyP7CY1vwX-256" value="HI" style="rounded=0;orthogonalLoop=1;jettySize=auto;html=1;exitX=1;exitY=0.5;exitDx=0;exitDy=0;entryX=0;entryY=0.25;entryDx=0;entryDy=0;" edge="1" source="MPSzHl6AMQkyP7CY1vwX-251" target="MPSzHl6AMQkyP7CY1vwX-255" parent="1">
          <mxGeometry relative="1" as="geometry" />
        </mxCell>
        <mxCell id="MPSzHl6AMQkyP7CY1vwX-257" value="LO" style="rounded=0;orthogonalLoop=1;jettySize=auto;html=1;exitX=1;exitY=0.5;exitDx=0;exitDy=0;entryX=0;entryY=0.75;entryDx=0;entryDy=0;" edge="1" source="MPSzHl6AMQkyP7CY1vwX-252" target="MPSzHl6AMQkyP7CY1vwX-255" parent="1">
          <mxGeometry relative="1" as="geometry" />
        </mxCell>
        <mxCell id="MPSzHl6AMQkyP7CY1vwX-258" value="LPF control functions" style="swimlane;fontStyle=0;childLayout=stackLayout;horizontal=1;startSize=30;horizontalStack=0;resizeParent=1;resizeParentMax=0;resizeLast=0;collapsible=1;marginBottom=0;whiteSpace=wrap;html=1;" vertex="1" parent="1">
          <mxGeometry x="30" y="1080" width="200" height="70" as="geometry" />
        </mxCell>
        <mxCell id="MPSzHl6AMQkyP7CY1vwX-259" value="SelectLPFBand(int32_t band)" style="text;strokeColor=none;fillColor=none;align=left;verticalAlign=middle;spacingLeft=4;spacingRight=4;overflow=hidden;points=[[0,0.5],[1,0.5]];portConstraint=eastwest;rotatable=0;whiteSpace=wrap;html=1;fontFamily=Courier New;fontSize=10;fontStyle=1" vertex="1" parent="MPSzHl6AMQkyP7CY1vwX-258">
          <mxGeometry y="30" width="200" height="20" as="geometry" />
        </mxCell>
        <mxCell id="MPSzHl6AMQkyP7CY1vwX-263" value="&lt;span style=&quot;font-family: &amp;quot;Courier New&amp;quot;; font-size: 10px; font-weight: 700;&quot;&gt;InitLPFControl()&lt;/span&gt;" style="text;strokeColor=none;fillColor=none;align=left;verticalAlign=middle;spacingLeft=4;spacingRight=4;overflow=hidden;points=[[0,0.5],[1,0.5]];portConstraint=eastwest;rotatable=0;whiteSpace=wrap;html=1;" vertex="1" parent="MPSzHl6AMQkyP7CY1vwX-258">
          <mxGeometry y="50" width="200" height="20" as="geometry" />
        </mxCell>
        <mxCell id="MPSzHl6AMQkyP7CY1vwX-267" style="edgeStyle=orthogonalEdgeStyle;rounded=0;orthogonalLoop=1;jettySize=auto;html=1;exitX=1;exitY=0.5;exitDx=0;exitDy=0;entryX=0;entryY=0.5;entryDx=0;entryDy=0;" edge="1" parent="1" source="MPSzHl6AMQkyP7CY1vwX-264" target="MPSzHl6AMQkyP7CY1vwX-266">
          <mxGeometry relative="1" as="geometry" />
        </mxCell>
        <mxCell id="MPSzHl6AMQkyP7CY1vwX-264" value="uint8_t band" style="text;html=1;align=center;verticalAlign=middle;whiteSpace=wrap;rounded=0;fontFamily=Courier New;fontStyle=1;strokeColor=default;" vertex="1" parent="1">
          <mxGeometry x="280" y="1110" width="120" height="30" as="geometry" />
        </mxCell>
        <mxCell id="MPSzHl6AMQkyP7CY1vwX-265" style="rounded=0;orthogonalLoop=1;jettySize=auto;html=1;exitX=1;exitY=0.5;exitDx=0;exitDy=0;entryX=0;entryY=0.5;entryDx=0;entryDy=0;strokeColor=default;align=center;verticalAlign=middle;fontFamily=Helvetica;fontSize=11;fontColor=default;labelBackgroundColor=default;endArrow=classic;" edge="1" parent="1" source="MPSzHl6AMQkyP7CY1vwX-259" target="MPSzHl6AMQkyP7CY1vwX-264">
          <mxGeometry relative="1" as="geometry" />
        </mxCell>
        <mxCell id="MPSzHl6AMQkyP7CY1vwX-266" value="Low pass filter board" style="rounded=1;whiteSpace=wrap;html=1;fontFamily=Helvetica;fontSize=11;fontColor=default;labelBackgroundColor=default;" vertex="1" parent="1">
          <mxGeometry x="470" y="1105" width="80" height="40" as="geometry" />
        </mxCell>
        <mxCell id="MPSzHl6AMQkyP7CY1vwX-268" value="Antenna control functions" style="swimlane;fontStyle=0;childLayout=stackLayout;horizontal=1;startSize=30;horizontalStack=0;resizeParent=1;resizeParentMax=0;resizeLast=0;collapsible=1;marginBottom=0;whiteSpace=wrap;html=1;" vertex="1" parent="1">
          <mxGeometry x="30" y="1180" width="200" height="70" as="geometry" />
        </mxCell>
        <mxCell id="MPSzHl6AMQkyP7CY1vwX-269" value="SelectAntenna(uint8_t antenna)" style="text;strokeColor=none;fillColor=none;align=left;verticalAlign=middle;spacingLeft=4;spacingRight=4;overflow=hidden;points=[[0,0.5],[1,0.5]];portConstraint=eastwest;rotatable=0;whiteSpace=wrap;html=1;fontFamily=Courier New;fontSize=10;fontStyle=1" vertex="1" parent="MPSzHl6AMQkyP7CY1vwX-268">
          <mxGeometry y="30" width="200" height="20" as="geometry" />
        </mxCell>
        <mxCell id="MPSzHl6AMQkyP7CY1vwX-270" value="&lt;span style=&quot;font-family: &amp;quot;Courier New&amp;quot;; font-size: 10px; font-weight: 700;&quot;&gt;InitAntennaControl()&lt;/span&gt;" style="text;strokeColor=none;fillColor=none;align=left;verticalAlign=middle;spacingLeft=4;spacingRight=4;overflow=hidden;points=[[0,0.5],[1,0.5]];portConstraint=eastwest;rotatable=0;whiteSpace=wrap;html=1;" vertex="1" parent="MPSzHl6AMQkyP7CY1vwX-268">
          <mxGeometry y="50" width="200" height="20" as="geometry" />
        </mxCell>
        <mxCell id="MPSzHl6AMQkyP7CY1vwX-310" style="edgeStyle=orthogonalEdgeStyle;rounded=0;orthogonalLoop=1;jettySize=auto;html=1;exitX=1;exitY=0.5;exitDx=0;exitDy=0;entryX=0;entryY=0.75;entryDx=0;entryDy=0;" edge="1" parent="1" source="MPSzHl6AMQkyP7CY1vwX-271" target="MPSzHl6AMQkyP7CY1vwX-274">
          <mxGeometry relative="1" as="geometry" />
        </mxCell>
        <mxCell id="MPSzHl6AMQkyP7CY1vwX-271" value="uint8_t antenna" style="text;html=1;align=center;verticalAlign=middle;whiteSpace=wrap;rounded=0;fontFamily=Courier New;fontStyle=1;strokeColor=default;" vertex="1" parent="1">
          <mxGeometry x="280" y="1205" width="120" height="30" as="geometry" />
        </mxCell>
        <mxCell id="MPSzHl6AMQkyP7CY1vwX-272" style="rounded=0;orthogonalLoop=1;jettySize=auto;html=1;exitX=1;exitY=0.5;exitDx=0;exitDy=0;entryX=0;entryY=0.5;entryDx=0;entryDy=0;" edge="1" parent="1" source="MPSzHl6AMQkyP7CY1vwX-269" target="MPSzHl6AMQkyP7CY1vwX-271">
          <mxGeometry relative="1" as="geometry" />
        </mxCell>
        <mxCell id="MPSzHl6AMQkyP7CY1vwX-273" value="" style="group" vertex="1" connectable="0" parent="1">
          <mxGeometry x="450.62" y="1168" width="118.75999999999999" height="200.6199999999999" as="geometry" />
        </mxCell>
        <mxCell id="MPSzHl6AMQkyP7CY1vwX-274" value="&lt;div&gt;ANT1&lt;/div&gt;&lt;div&gt;&lt;span style=&quot;background-color: light-dark(#ffffff, var(--ge-dark-color, #121212)); color: light-dark(rgb(0, 0, 0), rgb(255, 255, 255));&quot;&gt;&lt;br&gt;&lt;/span&gt;&lt;/div&gt;&lt;div&gt;&lt;span style=&quot;background-color: light-dark(#ffffff, var(--ge-dark-color, #121212)); color: light-dark(rgb(0, 0, 0), rgb(255, 255, 255));&quot;&gt;&lt;br&gt;&lt;/span&gt;&lt;/div&gt;&lt;div&gt;&lt;span style=&quot;background-color: light-dark(#ffffff, var(--ge-dark-color, #121212)); color: light-dark(rgb(0, 0, 0), rgb(255, 255, 255));&quot;&gt;&lt;br&gt;&lt;/span&gt;&lt;/div&gt;" style="rounded=1;whiteSpace=wrap;html=1;fontFamily=Helvetica;fontSize=11;fontColor=default;labelBackgroundColor=default;labelPosition=center;verticalLabelPosition=middle;align=center;verticalAlign=middle;" vertex="1" parent="MPSzHl6AMQkyP7CY1vwX-273">
          <mxGeometry width="80" height="70" as="geometry" />
        </mxCell>
        <mxCell id="MPSzHl6AMQkyP7CY1vwX-275" value="" style="ellipse;whiteSpace=wrap;html=1;aspect=fixed;" vertex="1" parent="MPSzHl6AMQkyP7CY1vwX-273">
          <mxGeometry x="40" y="23.623333333333257" width="4.374999999999999" height="4.374999999999999" as="geometry" />
        </mxCell>
        <mxCell id="MPSzHl6AMQkyP7CY1vwX-276" value="" style="ellipse;whiteSpace=wrap;html=1;aspect=fixed;" vertex="1" parent="MPSzHl6AMQkyP7CY1vwX-273">
          <mxGeometry x="40" y="53.95333333333325" width="4.374999999999999" height="4.374999999999999" as="geometry" />
        </mxCell>
        <mxCell id="MPSzHl6AMQkyP7CY1vwX-277" value="" style="ellipse;whiteSpace=wrap;html=1;aspect=fixed;" vertex="1" parent="MPSzHl6AMQkyP7CY1vwX-273">
          <mxGeometry x="10" y="42.28333333333325" width="4.374999999999999" height="4.374999999999999" as="geometry" />
        </mxCell>
        <mxCell id="MPSzHl6AMQkyP7CY1vwX-278" value="" style="endArrow=none;html=1;rounded=0;entryX=1;entryY=0.5;entryDx=0;entryDy=0;exitX=0;exitY=1;exitDx=0;exitDy=0;" edge="1" parent="MPSzHl6AMQkyP7CY1vwX-273" source="MPSzHl6AMQkyP7CY1vwX-275" target="MPSzHl6AMQkyP7CY1vwX-277">
          <mxGeometry width="50" height="50" relative="1" as="geometry">
            <mxPoint x="-20" y="58.33333333333325" as="sourcePoint" />
            <mxPoint x="30" y="-7.460698725481052e-14" as="targetPoint" />
          </mxGeometry>
        </mxCell>
        <mxCell id="MPSzHl6AMQkyP7CY1vwX-279" value="" style="endArrow=none;html=1;rounded=0;entryX=1;entryY=0.5;entryDx=0;entryDy=0;exitX=0;exitY=0;exitDx=0;exitDy=0;dashed=1;" edge="1" parent="MPSzHl6AMQkyP7CY1vwX-273" source="MPSzHl6AMQkyP7CY1vwX-276" target="MPSzHl6AMQkyP7CY1vwX-277">
          <mxGeometry width="50" height="50" relative="1" as="geometry">
            <mxPoint x="34" y="39.666666666666586" as="sourcePoint" />
            <mxPoint x="61" y="55.99999999999992" as="targetPoint" />
          </mxGeometry>
        </mxCell>
        <mxCell id="MPSzHl6AMQkyP7CY1vwX-280" value="1" style="text;html=1;align=center;verticalAlign=middle;whiteSpace=wrap;rounded=0;fontSize=8;" vertex="1" parent="MPSzHl6AMQkyP7CY1vwX-273">
          <mxGeometry x="37.19" y="26.999999999999922" width="10" height="11.666666666666666" as="geometry" />
        </mxCell>
        <mxCell id="MPSzHl6AMQkyP7CY1vwX-281" value="0" style="text;html=1;align=center;verticalAlign=middle;whiteSpace=wrap;rounded=0;fontSize=8;" vertex="1" parent="MPSzHl6AMQkyP7CY1vwX-273">
          <mxGeometry x="37.19" y="42.286666666666584" width="10" height="11.666666666666666" as="geometry" />
        </mxCell>
        <mxCell id="MPSzHl6AMQkyP7CY1vwX-282" value="" style="group" vertex="1" connectable="0" parent="MPSzHl6AMQkyP7CY1vwX-273">
          <mxGeometry x="10" y="27" width="108.75999999999999" height="173.6199999999999" as="geometry" />
        </mxCell>
        <mxCell id="MPSzHl6AMQkyP7CY1vwX-283" value="&lt;div&gt;ANT2&lt;/div&gt;&lt;div&gt;&lt;span style=&quot;background-color: light-dark(#ffffff, var(--ge-dark-color, #121212)); color: light-dark(rgb(0, 0, 0), rgb(255, 255, 255));&quot;&gt;&lt;br&gt;&lt;/span&gt;&lt;/div&gt;&lt;div&gt;&lt;span style=&quot;background-color: light-dark(#ffffff, var(--ge-dark-color, #121212)); color: light-dark(rgb(0, 0, 0), rgb(255, 255, 255));&quot;&gt;&lt;br&gt;&lt;/span&gt;&lt;/div&gt;&lt;div&gt;&lt;span style=&quot;background-color: light-dark(#ffffff, var(--ge-dark-color, #121212)); color: light-dark(rgb(0, 0, 0), rgb(255, 255, 255));&quot;&gt;&lt;br&gt;&lt;/span&gt;&lt;/div&gt;" style="rounded=1;whiteSpace=wrap;html=1;fontFamily=Helvetica;fontSize=11;fontColor=default;labelBackgroundColor=default;labelPosition=center;verticalLabelPosition=middle;align=center;verticalAlign=middle;" vertex="1" parent="MPSzHl6AMQkyP7CY1vwX-282">
          <mxGeometry width="80" height="70" as="geometry" />
        </mxCell>
        <mxCell id="MPSzHl6AMQkyP7CY1vwX-284" value="" style="ellipse;whiteSpace=wrap;html=1;aspect=fixed;" vertex="1" parent="MPSzHl6AMQkyP7CY1vwX-282">
          <mxGeometry x="40" y="23.623333333333257" width="4.374999999999999" height="4.374999999999999" as="geometry" />
        </mxCell>
        <mxCell id="MPSzHl6AMQkyP7CY1vwX-285" value="" style="ellipse;whiteSpace=wrap;html=1;aspect=fixed;" vertex="1" parent="MPSzHl6AMQkyP7CY1vwX-282">
          <mxGeometry x="40" y="53.95333333333325" width="4.374999999999999" height="4.374999999999999" as="geometry" />
        </mxCell>
        <mxCell id="MPSzHl6AMQkyP7CY1vwX-286" value="" style="ellipse;whiteSpace=wrap;html=1;aspect=fixed;" vertex="1" parent="MPSzHl6AMQkyP7CY1vwX-282">
          <mxGeometry x="10" y="42.28333333333325" width="4.374999999999999" height="4.374999999999999" as="geometry" />
        </mxCell>
        <mxCell id="MPSzHl6AMQkyP7CY1vwX-287" value="" style="endArrow=none;html=1;rounded=0;entryX=1;entryY=0.5;entryDx=0;entryDy=0;exitX=0;exitY=1;exitDx=0;exitDy=0;" edge="1" parent="MPSzHl6AMQkyP7CY1vwX-282" source="MPSzHl6AMQkyP7CY1vwX-284" target="MPSzHl6AMQkyP7CY1vwX-286">
          <mxGeometry width="50" height="50" relative="1" as="geometry">
            <mxPoint x="-20" y="58.33333333333325" as="sourcePoint" />
            <mxPoint x="30" y="-7.460698725481052e-14" as="targetPoint" />
          </mxGeometry>
        </mxCell>
        <mxCell id="MPSzHl6AMQkyP7CY1vwX-288" value="" style="endArrow=none;html=1;rounded=0;entryX=1;entryY=0.5;entryDx=0;entryDy=0;exitX=0;exitY=0;exitDx=0;exitDy=0;dashed=1;" edge="1" parent="MPSzHl6AMQkyP7CY1vwX-282" source="MPSzHl6AMQkyP7CY1vwX-285" target="MPSzHl6AMQkyP7CY1vwX-286">
          <mxGeometry width="50" height="50" relative="1" as="geometry">
            <mxPoint x="34" y="39.666666666666586" as="sourcePoint" />
            <mxPoint x="61" y="55.99999999999992" as="targetPoint" />
          </mxGeometry>
        </mxCell>
        <mxCell id="MPSzHl6AMQkyP7CY1vwX-289" value="1" style="text;html=1;align=center;verticalAlign=middle;whiteSpace=wrap;rounded=0;fontSize=8;" vertex="1" parent="MPSzHl6AMQkyP7CY1vwX-282">
          <mxGeometry x="37.19" y="26.999999999999922" width="10" height="11.666666666666666" as="geometry" />
        </mxCell>
        <mxCell id="MPSzHl6AMQkyP7CY1vwX-290" value="0" style="text;html=1;align=center;verticalAlign=middle;whiteSpace=wrap;rounded=0;fontSize=8;" vertex="1" parent="MPSzHl6AMQkyP7CY1vwX-282">
          <mxGeometry x="37.19" y="42.286666666666584" width="10" height="11.666666666666666" as="geometry" />
        </mxCell>
        <mxCell id="MPSzHl6AMQkyP7CY1vwX-292" value="" style="group" vertex="1" connectable="0" parent="MPSzHl6AMQkyP7CY1vwX-282">
          <mxGeometry x="14.379999999999995" y="23.61999999999989" width="94.38" height="93.62" as="geometry" />
        </mxCell>
        <mxCell id="MPSzHl6AMQkyP7CY1vwX-293" value="&lt;div&gt;ANT3&lt;/div&gt;&lt;div&gt;&lt;span style=&quot;background-color: light-dark(#ffffff, var(--ge-dark-color, #121212)); color: light-dark(rgb(0, 0, 0), rgb(255, 255, 255));&quot;&gt;&lt;br&gt;&lt;/span&gt;&lt;/div&gt;&lt;div&gt;&lt;span style=&quot;background-color: light-dark(#ffffff, var(--ge-dark-color, #121212)); color: light-dark(rgb(0, 0, 0), rgb(255, 255, 255));&quot;&gt;&lt;br&gt;&lt;/span&gt;&lt;/div&gt;&lt;div&gt;&lt;span style=&quot;background-color: light-dark(#ffffff, var(--ge-dark-color, #121212)); color: light-dark(rgb(0, 0, 0), rgb(255, 255, 255));&quot;&gt;&lt;br&gt;&lt;/span&gt;&lt;/div&gt;" style="rounded=1;whiteSpace=wrap;html=1;fontFamily=Helvetica;fontSize=11;fontColor=default;labelBackgroundColor=default;labelPosition=center;verticalLabelPosition=middle;align=center;verticalAlign=middle;" vertex="1" parent="MPSzHl6AMQkyP7CY1vwX-292">
          <mxGeometry width="80" height="70" as="geometry" />
        </mxCell>
        <mxCell id="MPSzHl6AMQkyP7CY1vwX-294" value="" style="ellipse;whiteSpace=wrap;html=1;aspect=fixed;" vertex="1" parent="MPSzHl6AMQkyP7CY1vwX-292">
          <mxGeometry x="40" y="23.623333333333257" width="4.374999999999999" height="4.374999999999999" as="geometry" />
        </mxCell>
        <mxCell id="MPSzHl6AMQkyP7CY1vwX-295" value="" style="ellipse;whiteSpace=wrap;html=1;aspect=fixed;" vertex="1" parent="MPSzHl6AMQkyP7CY1vwX-292">
          <mxGeometry x="40" y="53.95333333333325" width="4.374999999999999" height="4.374999999999999" as="geometry" />
        </mxCell>
        <mxCell id="MPSzHl6AMQkyP7CY1vwX-296" value="" style="ellipse;whiteSpace=wrap;html=1;aspect=fixed;" vertex="1" parent="MPSzHl6AMQkyP7CY1vwX-292">
          <mxGeometry x="10" y="42.28333333333325" width="4.374999999999999" height="4.374999999999999" as="geometry" />
        </mxCell>
        <mxCell id="MPSzHl6AMQkyP7CY1vwX-297" value="" style="endArrow=none;html=1;rounded=0;entryX=1;entryY=0.5;entryDx=0;entryDy=0;exitX=0;exitY=1;exitDx=0;exitDy=0;" edge="1" parent="MPSzHl6AMQkyP7CY1vwX-292" source="MPSzHl6AMQkyP7CY1vwX-294" target="MPSzHl6AMQkyP7CY1vwX-296">
          <mxGeometry width="50" height="50" relative="1" as="geometry">
            <mxPoint x="-20" y="58.33333333333325" as="sourcePoint" />
            <mxPoint x="30" y="-7.460698725481052e-14" as="targetPoint" />
          </mxGeometry>
        </mxCell>
        <mxCell id="MPSzHl6AMQkyP7CY1vwX-298" value="" style="endArrow=none;html=1;rounded=0;entryX=1;entryY=0.5;entryDx=0;entryDy=0;exitX=0;exitY=0;exitDx=0;exitDy=0;dashed=1;" edge="1" parent="MPSzHl6AMQkyP7CY1vwX-292" source="MPSzHl6AMQkyP7CY1vwX-295" target="MPSzHl6AMQkyP7CY1vwX-296">
          <mxGeometry width="50" height="50" relative="1" as="geometry">
            <mxPoint x="34" y="39.666666666666586" as="sourcePoint" />
            <mxPoint x="61" y="55.99999999999992" as="targetPoint" />
          </mxGeometry>
        </mxCell>
        <mxCell id="MPSzHl6AMQkyP7CY1vwX-299" value="1" style="text;html=1;align=center;verticalAlign=middle;whiteSpace=wrap;rounded=0;fontSize=8;" vertex="1" parent="MPSzHl6AMQkyP7CY1vwX-292">
          <mxGeometry x="37.19" y="26.999999999999922" width="10" height="11.666666666666666" as="geometry" />
        </mxCell>
        <mxCell id="MPSzHl6AMQkyP7CY1vwX-300" value="0" style="text;html=1;align=center;verticalAlign=middle;whiteSpace=wrap;rounded=0;fontSize=8;" vertex="1" parent="MPSzHl6AMQkyP7CY1vwX-292">
          <mxGeometry x="37.19" y="42.286666666666584" width="10" height="11.666666666666666" as="geometry" />
        </mxCell>
        <mxCell id="MPSzHl6AMQkyP7CY1vwX-301" value="" style="group" vertex="1" connectable="0" parent="MPSzHl6AMQkyP7CY1vwX-292">
          <mxGeometry x="14.380000000000003" y="23.619999999999997" width="80" height="70" as="geometry" />
        </mxCell>
        <mxCell id="MPSzHl6AMQkyP7CY1vwX-302" value="&lt;div&gt;ANT4&lt;/div&gt;&lt;div&gt;&lt;span style=&quot;background-color: light-dark(#ffffff, var(--ge-dark-color, #121212)); color: light-dark(rgb(0, 0, 0), rgb(255, 255, 255));&quot;&gt;&lt;br&gt;&lt;/span&gt;&lt;/div&gt;&lt;div&gt;&lt;span style=&quot;background-color: light-dark(#ffffff, var(--ge-dark-color, #121212)); color: light-dark(rgb(0, 0, 0), rgb(255, 255, 255));&quot;&gt;&lt;br&gt;&lt;/span&gt;&lt;/div&gt;&lt;div&gt;&lt;span style=&quot;background-color: light-dark(#ffffff, var(--ge-dark-color, #121212)); color: light-dark(rgb(0, 0, 0), rgb(255, 255, 255));&quot;&gt;&lt;br&gt;&lt;/span&gt;&lt;/div&gt;" style="rounded=1;whiteSpace=wrap;html=1;fontFamily=Helvetica;fontSize=11;fontColor=default;labelBackgroundColor=default;labelPosition=center;verticalLabelPosition=middle;align=center;verticalAlign=middle;" vertex="1" parent="MPSzHl6AMQkyP7CY1vwX-301">
          <mxGeometry width="80" height="70" as="geometry" />
        </mxCell>
        <mxCell id="MPSzHl6AMQkyP7CY1vwX-303" value="" style="ellipse;whiteSpace=wrap;html=1;aspect=fixed;" vertex="1" parent="MPSzHl6AMQkyP7CY1vwX-301">
          <mxGeometry x="40" y="23.623333333333257" width="4.374999999999999" height="4.374999999999999" as="geometry" />
        </mxCell>
        <mxCell id="MPSzHl6AMQkyP7CY1vwX-304" value="" style="ellipse;whiteSpace=wrap;html=1;aspect=fixed;" vertex="1" parent="MPSzHl6AMQkyP7CY1vwX-301">
          <mxGeometry x="40" y="53.95333333333325" width="4.374999999999999" height="4.374999999999999" as="geometry" />
        </mxCell>
        <mxCell id="MPSzHl6AMQkyP7CY1vwX-305" value="" style="ellipse;whiteSpace=wrap;html=1;aspect=fixed;" vertex="1" parent="MPSzHl6AMQkyP7CY1vwX-301">
          <mxGeometry x="10" y="42.28333333333325" width="4.374999999999999" height="4.374999999999999" as="geometry" />
        </mxCell>
        <mxCell id="MPSzHl6AMQkyP7CY1vwX-306" value="" style="endArrow=none;html=1;rounded=0;entryX=1;entryY=0.5;entryDx=0;entryDy=0;exitX=0;exitY=1;exitDx=0;exitDy=0;" edge="1" parent="MPSzHl6AMQkyP7CY1vwX-301" source="MPSzHl6AMQkyP7CY1vwX-303" target="MPSzHl6AMQkyP7CY1vwX-305">
          <mxGeometry width="50" height="50" relative="1" as="geometry">
            <mxPoint x="-20" y="58.33333333333325" as="sourcePoint" />
            <mxPoint x="30" y="-7.460698725481052e-14" as="targetPoint" />
          </mxGeometry>
        </mxCell>
        <mxCell id="MPSzHl6AMQkyP7CY1vwX-307" value="" style="endArrow=none;html=1;rounded=0;entryX=1;entryY=0.5;entryDx=0;entryDy=0;exitX=0;exitY=0;exitDx=0;exitDy=0;dashed=1;" edge="1" parent="MPSzHl6AMQkyP7CY1vwX-301" source="MPSzHl6AMQkyP7CY1vwX-304" target="MPSzHl6AMQkyP7CY1vwX-305">
          <mxGeometry width="50" height="50" relative="1" as="geometry">
            <mxPoint x="34" y="39.666666666666586" as="sourcePoint" />
            <mxPoint x="61" y="55.99999999999992" as="targetPoint" />
          </mxGeometry>
        </mxCell>
        <mxCell id="MPSzHl6AMQkyP7CY1vwX-308" value="1" style="text;html=1;align=center;verticalAlign=middle;whiteSpace=wrap;rounded=0;fontSize=8;" vertex="1" parent="MPSzHl6AMQkyP7CY1vwX-301">
          <mxGeometry x="37.19" y="26.999999999999922" width="10" height="11.666666666666666" as="geometry" />
        </mxCell>
        <mxCell id="MPSzHl6AMQkyP7CY1vwX-309" value="0" style="text;html=1;align=center;verticalAlign=middle;whiteSpace=wrap;rounded=0;fontSize=8;" vertex="1" parent="MPSzHl6AMQkyP7CY1vwX-301">
          <mxGeometry x="37.19" y="42.286666666666584" width="10" height="11.666666666666666" as="geometry" />
        </mxCell>
        <mxCell id="MPSzHl6AMQkyP7CY1vwX-311" value="" style="group;flipV=1;" vertex="1" connectable="0" parent="1">
          <mxGeometry x="480" y="1560" width="80" height="70" as="geometry" />
        </mxCell>
        <mxCell id="MPSzHl6AMQkyP7CY1vwX-312" value="&lt;div&gt;TR Switch&lt;/div&gt;&lt;div&gt;&lt;span style=&quot;background-color: light-dark(#ffffff, var(--ge-dark-color, #121212)); color: light-dark(rgb(0, 0, 0), rgb(255, 255, 255));&quot;&gt;&lt;br&gt;&lt;/span&gt;&lt;/div&gt;&lt;div&gt;&lt;span style=&quot;background-color: light-dark(#ffffff, var(--ge-dark-color, #121212)); color: light-dark(rgb(0, 0, 0), rgb(255, 255, 255));&quot;&gt;&lt;br&gt;&lt;/span&gt;&lt;/div&gt;&lt;div&gt;&lt;span style=&quot;background-color: light-dark(#ffffff, var(--ge-dark-color, #121212)); color: light-dark(rgb(0, 0, 0), rgb(255, 255, 255));&quot;&gt;&lt;br&gt;&lt;/span&gt;&lt;/div&gt;" style="rounded=1;whiteSpace=wrap;html=1;fontFamily=Helvetica;fontSize=11;fontColor=default;labelBackgroundColor=default;labelPosition=center;verticalLabelPosition=middle;align=center;verticalAlign=middle;" vertex="1" parent="MPSzHl6AMQkyP7CY1vwX-311">
          <mxGeometry y="5.21" width="80" height="70" as="geometry" />
        </mxCell>
        <mxCell id="MPSzHl6AMQkyP7CY1vwX-313" value="1" style="text;html=1;align=center;verticalAlign=middle;whiteSpace=wrap;rounded=0;fontSize=8;" vertex="1" parent="MPSzHl6AMQkyP7CY1vwX-311">
          <mxGeometry x="10" y="48.66" width="10" height="9.67" as="geometry" />
        </mxCell>
        <mxCell id="MPSzHl6AMQkyP7CY1vwX-314" value="0" style="text;html=1;align=center;verticalAlign=middle;whiteSpace=wrap;rounded=0;fontSize=8;" vertex="1" parent="MPSzHl6AMQkyP7CY1vwX-311">
          <mxGeometry x="9.999999999999998" y="34.37666666666675" width="10" height="11.666666666666666" as="geometry" />
        </mxCell>
        <mxCell id="MPSzHl6AMQkyP7CY1vwX-315" value="" style="ellipse;whiteSpace=wrap;html=1;aspect=fixed;" vertex="1" parent="MPSzHl6AMQkyP7CY1vwX-311">
          <mxGeometry x="12.81" y="60.33166666666674" width="4.374999999999999" height="4.374999999999999" as="geometry" />
        </mxCell>
        <mxCell id="MPSzHl6AMQkyP7CY1vwX-316" value="" style="ellipse;whiteSpace=wrap;html=1;aspect=fixed;" vertex="1" parent="MPSzHl6AMQkyP7CY1vwX-311">
          <mxGeometry x="12.81" y="30.00166666666675" width="4.374999999999999" height="4.374999999999999" as="geometry" />
        </mxCell>
        <mxCell id="MPSzHl6AMQkyP7CY1vwX-317" value="" style="ellipse;whiteSpace=wrap;html=1;aspect=fixed;" vertex="1" parent="MPSzHl6AMQkyP7CY1vwX-311">
          <mxGeometry x="42.81" y="41.671666666666745" width="4.374999999999999" height="4.374999999999999" as="geometry" />
        </mxCell>
        <mxCell id="MPSzHl6AMQkyP7CY1vwX-318" value="" style="endArrow=none;html=1;rounded=0;entryX=0;entryY=0.5;entryDx=0;entryDy=0;exitX=1;exitY=0;exitDx=0;exitDy=0;" edge="1" parent="MPSzHl6AMQkyP7CY1vwX-311" source="MPSzHl6AMQkyP7CY1vwX-315" target="MPSzHl6AMQkyP7CY1vwX-317">
          <mxGeometry width="50" height="50" relative="1" as="geometry">
            <mxPoint x="77.185" y="29.996666666666748" as="sourcePoint" />
            <mxPoint x="27.185" y="88.33000000000007" as="targetPoint" />
          </mxGeometry>
        </mxCell>
        <mxCell id="MPSzHl6AMQkyP7CY1vwX-319" value="" style="endArrow=none;html=1;rounded=0;exitX=1;exitY=1;exitDx=0;exitDy=0;dashed=1;entryX=0;entryY=0.5;entryDx=0;entryDy=0;" edge="1" parent="MPSzHl6AMQkyP7CY1vwX-311" source="MPSzHl6AMQkyP7CY1vwX-316" target="MPSzHl6AMQkyP7CY1vwX-317">
          <mxGeometry width="50" height="50" relative="1" as="geometry">
            <mxPoint x="403.81" y="23.33" as="sourcePoint" />
            <mxPoint x="42.81" y="48.33" as="targetPoint" />
          </mxGeometry>
        </mxCell>
        <mxCell id="MPSzHl6AMQkyP7CY1vwX-320" value="SWR bridge functions" style="swimlane;fontStyle=0;childLayout=stackLayout;horizontal=1;startSize=30;horizontalStack=0;resizeParent=1;resizeParentMax=0;resizeLast=0;collapsible=1;marginBottom=0;whiteSpace=wrap;html=1;" vertex="1" parent="1">
          <mxGeometry x="30" y="1330" width="200" height="110" as="geometry" />
        </mxCell>
        <mxCell id="MPSzHl6AMQkyP7CY1vwX-321" value="float32_t ReadSWR()" style="text;strokeColor=none;fillColor=none;align=left;verticalAlign=middle;spacingLeft=4;spacingRight=4;overflow=hidden;points=[[0,0.5],[1,0.5]];portConstraint=eastwest;rotatable=0;whiteSpace=wrap;html=1;fontFamily=Courier New;fontSize=10;fontStyle=1" vertex="1" parent="MPSzHl6AMQkyP7CY1vwX-320">
          <mxGeometry y="30" width="200" height="20" as="geometry" />
        </mxCell>
        <mxCell id="MPSzHl6AMQkyP7CY1vwX-322" value="&lt;span style=&quot;font-family: &amp;quot;Courier New&amp;quot;; font-size: 10px; font-weight: 700;&quot;&gt;float&lt;/span&gt;&lt;span style=&quot;font-family: &amp;quot;Courier New&amp;quot;; font-size: 10px; font-weight: 700;&quot;&gt;32_t&lt;/span&gt;&lt;span style=&quot;font-family: &amp;quot;Courier New&amp;quot;; font-size: 10px; font-weight: 700;&quot;&gt;&amp;nbsp;ReadForwardPower()&lt;/span&gt;" style="text;strokeColor=none;fillColor=none;align=left;verticalAlign=middle;spacingLeft=4;spacingRight=4;overflow=hidden;points=[[0,0.5],[1,0.5]];portConstraint=eastwest;rotatable=0;whiteSpace=wrap;html=1;" vertex="1" parent="MPSzHl6AMQkyP7CY1vwX-320">
          <mxGeometry y="50" width="200" height="20" as="geometry" />
        </mxCell>
        <mxCell id="MPSzHl6AMQkyP7CY1vwX-323" value="&lt;span style=&quot;font-family: &amp;quot;Courier New&amp;quot;; font-size: 10px; font-weight: 700;&quot;&gt;float&lt;/span&gt;&lt;span style=&quot;font-family: &amp;quot;Courier New&amp;quot;; font-size: 10px; font-weight: 700;&quot;&gt;32_t&lt;/span&gt;&lt;span style=&quot;font-family: &amp;quot;Courier New&amp;quot;; font-size: 10px; font-weight: 700;&quot;&gt;&amp;nbsp;ReadReflectedPower()&lt;/span&gt;" style="text;strokeColor=none;fillColor=none;align=left;verticalAlign=middle;spacingLeft=4;spacingRight=4;overflow=hidden;points=[[0,0.5],[1,0.5]];portConstraint=eastwest;rotatable=0;whiteSpace=wrap;html=1;" vertex="1" parent="MPSzHl6AMQkyP7CY1vwX-320">
          <mxGeometry y="70" width="200" height="20" as="geometry" />
        </mxCell>
        <mxCell id="MPSzHl6AMQkyP7CY1vwX-325" value="&lt;span style=&quot;font-family: &amp;quot;Courier New&amp;quot;; font-size: 10px; font-weight: 700;&quot;&gt;InitSWRControl()&lt;/span&gt;" style="text;strokeColor=none;fillColor=none;align=left;verticalAlign=middle;spacingLeft=4;spacingRight=4;overflow=hidden;points=[[0,0.5],[1,0.5]];portConstraint=eastwest;rotatable=0;whiteSpace=wrap;html=1;" vertex="1" parent="MPSzHl6AMQkyP7CY1vwX-320">
          <mxGeometry y="90" width="200" height="20" as="geometry" />
        </mxCell>
        <mxCell id="MPSzHl6AMQkyP7CY1vwX-330" style="rounded=0;orthogonalLoop=1;jettySize=auto;html=1;exitX=0;exitY=0.5;exitDx=0;exitDy=0;entryX=1;entryY=0.5;entryDx=0;entryDy=0;" edge="1" parent="1" source="MPSzHl6AMQkyP7CY1vwX-326" target="MPSzHl6AMQkyP7CY1vwX-327">
          <mxGeometry relative="1" as="geometry" />
        </mxCell>
        <mxCell id="MPSzHl6AMQkyP7CY1vwX-334" style="rounded=0;orthogonalLoop=1;jettySize=auto;html=1;exitX=0;exitY=0.5;exitDx=0;exitDy=0;entryX=1;entryY=0.5;entryDx=0;entryDy=0;" edge="1" parent="1" source="MPSzHl6AMQkyP7CY1vwX-326" target="MPSzHl6AMQkyP7CY1vwX-328">
          <mxGeometry relative="1" as="geometry" />
        </mxCell>
        <mxCell id="MPSzHl6AMQkyP7CY1vwX-335" style="rounded=0;orthogonalLoop=1;jettySize=auto;html=1;exitX=0;exitY=0.5;exitDx=0;exitDy=0;entryX=1;entryY=0.5;entryDx=0;entryDy=0;" edge="1" parent="1" source="MPSzHl6AMQkyP7CY1vwX-326" target="MPSzHl6AMQkyP7CY1vwX-329">
          <mxGeometry relative="1" as="geometry" />
        </mxCell>
        <mxCell id="MPSzHl6AMQkyP7CY1vwX-326" value="SWR Bridge" style="rounded=1;whiteSpace=wrap;html=1;fontFamily=Helvetica;fontSize=11;fontColor=default;labelBackgroundColor=default;" vertex="1" parent="1">
          <mxGeometry x="443.75" y="1380" width="80" height="40" as="geometry" />
        </mxCell>
        <mxCell id="MPSzHl6AMQkyP7CY1vwX-331" style="rounded=0;orthogonalLoop=1;jettySize=auto;html=1;exitX=0;exitY=0.5;exitDx=0;exitDy=0;entryX=1;entryY=0.5;entryDx=0;entryDy=0;" edge="1" parent="1" source="MPSzHl6AMQkyP7CY1vwX-327" target="MPSzHl6AMQkyP7CY1vwX-321">
          <mxGeometry relative="1" as="geometry" />
        </mxCell>
        <mxCell id="MPSzHl6AMQkyP7CY1vwX-327" value="float32_t swr" style="text;html=1;align=center;verticalAlign=middle;whiteSpace=wrap;rounded=0;fontFamily=Courier New;fontStyle=1;strokeColor=default;" vertex="1" parent="1">
          <mxGeometry x="280" y="1350" width="120" height="30" as="geometry" />
        </mxCell>
        <mxCell id="MPSzHl6AMQkyP7CY1vwX-332" style="rounded=0;orthogonalLoop=1;jettySize=auto;html=1;exitX=0;exitY=0.5;exitDx=0;exitDy=0;entryX=1;entryY=0.5;entryDx=0;entryDy=0;" edge="1" parent="1" source="MPSzHl6AMQkyP7CY1vwX-328" target="MPSzHl6AMQkyP7CY1vwX-322">
          <mxGeometry relative="1" as="geometry" />
        </mxCell>
        <mxCell id="MPSzHl6AMQkyP7CY1vwX-328" value="float32_t Pf_W" style="text;html=1;align=center;verticalAlign=middle;whiteSpace=wrap;rounded=0;fontFamily=Courier New;fontStyle=1;strokeColor=default;" vertex="1" parent="1">
          <mxGeometry x="280" y="1380" width="120" height="30" as="geometry" />
        </mxCell>
        <mxCell id="MPSzHl6AMQkyP7CY1vwX-333" style="rounded=0;orthogonalLoop=1;jettySize=auto;html=1;exitX=0;exitY=0.5;exitDx=0;exitDy=0;entryX=1;entryY=0.5;entryDx=0;entryDy=0;" edge="1" parent="1" source="MPSzHl6AMQkyP7CY1vwX-329" target="MPSzHl6AMQkyP7CY1vwX-323">
          <mxGeometry relative="1" as="geometry" />
        </mxCell>
        <mxCell id="MPSzHl6AMQkyP7CY1vwX-329" value="float32_t Pr_W" style="text;html=1;align=center;verticalAlign=middle;whiteSpace=wrap;rounded=0;fontFamily=Courier New;fontStyle=1;strokeColor=default;" vertex="1" parent="1">
          <mxGeometry x="280" y="1410" width="120" height="30" as="geometry" />
        </mxCell>
        <mxCell id="MPSzHl6AMQkyP7CY1vwX-336" value="Shared with RF Control" style="text;html=1;align=center;verticalAlign=middle;whiteSpace=wrap;rounded=0;" vertex="1" parent="1">
          <mxGeometry x="240" y="1510" width="200" height="30" as="geometry" />
        </mxCell>
        <mxCell id="MPSzHl6AMQkyP7CY1vwX-337" value="" style="group" vertex="1" connectable="0" parent="1">
          <mxGeometry x="1160" y="1040" width="160" height="20" as="geometry" />
        </mxCell>
        <mxCell id="MPSzHl6AMQkyP7CY1vwX-338" value="7" style="rounded=0;whiteSpace=wrap;html=1;strokeColor=default;align=center;verticalAlign=middle;fontFamily=Helvetica;fontSize=12;fontColor=default;fillColor=default;" vertex="1" parent="MPSzHl6AMQkyP7CY1vwX-337">
          <mxGeometry width="20" height="20" as="geometry" />
        </mxCell>
        <mxCell id="MPSzHl6AMQkyP7CY1vwX-339" value="6" style="rounded=0;whiteSpace=wrap;html=1;strokeColor=default;align=center;verticalAlign=middle;fontFamily=Helvetica;fontSize=12;fontColor=default;fillColor=default;" vertex="1" parent="MPSzHl6AMQkyP7CY1vwX-337">
          <mxGeometry x="20" width="20" height="20" as="geometry" />
        </mxCell>
        <mxCell id="MPSzHl6AMQkyP7CY1vwX-340" value="5" style="rounded=0;whiteSpace=wrap;html=1;fontColor=default;fillColor=default;strokeColor=default;align=center;verticalAlign=middle;fontFamily=Helvetica;fontSize=12;" vertex="1" parent="MPSzHl6AMQkyP7CY1vwX-337">
          <mxGeometry x="40" width="20" height="20" as="geometry" />
        </mxCell>
        <mxCell id="MPSzHl6AMQkyP7CY1vwX-341" value="4" style="rounded=0;whiteSpace=wrap;html=1;" vertex="1" parent="MPSzHl6AMQkyP7CY1vwX-337">
          <mxGeometry x="60" width="20" height="20" as="geometry" />
        </mxCell>
        <mxCell id="MPSzHl6AMQkyP7CY1vwX-342" value="3" style="rounded=0;whiteSpace=wrap;html=1;" vertex="1" parent="MPSzHl6AMQkyP7CY1vwX-337">
          <mxGeometry x="80" width="20" height="20" as="geometry" />
        </mxCell>
        <mxCell id="MPSzHl6AMQkyP7CY1vwX-343" value="2" style="rounded=0;whiteSpace=wrap;html=1;" vertex="1" parent="MPSzHl6AMQkyP7CY1vwX-337">
          <mxGeometry x="100" width="20" height="20" as="geometry" />
        </mxCell>
        <mxCell id="MPSzHl6AMQkyP7CY1vwX-344" value="1" style="rounded=0;whiteSpace=wrap;html=1;" vertex="1" parent="MPSzHl6AMQkyP7CY1vwX-337">
          <mxGeometry x="120" width="20" height="20" as="geometry" />
        </mxCell>
        <mxCell id="MPSzHl6AMQkyP7CY1vwX-345" value="0" style="rounded=0;whiteSpace=wrap;html=1;" vertex="1" parent="MPSzHl6AMQkyP7CY1vwX-337">
          <mxGeometry x="140" width="20" height="20" as="geometry" />
        </mxCell>
        <mxCell id="MPSzHl6AMQkyP7CY1vwX-346" value="BAND0" style="text;html=1;align=center;verticalAlign=middle;whiteSpace=wrap;rounded=0;direction=west;horizontal=0;" vertex="1" parent="1">
          <mxGeometry x="1300" y="1062" width="20" height="38" as="geometry" />
        </mxCell>
        <mxCell id="MPSzHl6AMQkyP7CY1vwX-352" value="BAND1" style="text;html=1;align=center;verticalAlign=middle;whiteSpace=wrap;rounded=0;direction=west;horizontal=0;" vertex="1" parent="1">
          <mxGeometry x="1280" y="1062" width="20" height="38" as="geometry" />
        </mxCell>
        <mxCell id="MPSzHl6AMQkyP7CY1vwX-353" value="BAND2" style="text;html=1;align=center;verticalAlign=middle;whiteSpace=wrap;rounded=0;direction=west;horizontal=0;" vertex="1" parent="1">
          <mxGeometry x="1260" y="1062" width="20" height="38" as="geometry" />
        </mxCell>
        <mxCell id="MPSzHl6AMQkyP7CY1vwX-355" value="BAND3" style="text;html=1;align=center;verticalAlign=middle;whiteSpace=wrap;rounded=0;direction=west;horizontal=0;" vertex="1" parent="1">
          <mxGeometry x="1240" y="1062" width="20" height="38" as="geometry" />
        </mxCell>
        <mxCell id="MPSzHl6AMQkyP7CY1vwX-356" value="ANT0" style="text;html=1;align=center;verticalAlign=middle;whiteSpace=wrap;rounded=0;direction=west;horizontal=0;" vertex="1" parent="1">
          <mxGeometry x="1220" y="1062" width="20" height="38" as="geometry" />
        </mxCell>
        <mxCell id="MPSzHl6AMQkyP7CY1vwX-357" value="ANT1" style="text;html=1;align=center;verticalAlign=middle;whiteSpace=wrap;rounded=0;direction=west;horizontal=0;" vertex="1" parent="1">
          <mxGeometry x="1200" y="1062" width="20" height="38" as="geometry" />
        </mxCell>
        <mxCell id="MPSzHl6AMQkyP7CY1vwX-358" value="XVTR" style="text;html=1;align=center;verticalAlign=middle;whiteSpace=wrap;rounded=0;direction=west;horizontal=0;" vertex="1" parent="1">
          <mxGeometry x="1180" y="1062" width="20" height="38" as="geometry" />
        </mxCell>
        <mxCell id="MPSzHl6AMQkyP7CY1vwX-359" value="100W" style="text;html=1;align=center;verticalAlign=middle;whiteSpace=wrap;rounded=0;direction=west;horizontal=0;" vertex="1" parent="1">
          <mxGeometry x="1160" y="1062" width="20" height="38" as="geometry" />
        </mxCell>
        <mxCell id="MPSzHl6AMQkyP7CY1vwX-360" value="" style="group" vertex="1" connectable="0" parent="1">
          <mxGeometry x="990" y="1040" width="160" height="20" as="geometry" />
        </mxCell>
        <mxCell id="MPSzHl6AMQkyP7CY1vwX-361" value="15" style="rounded=0;whiteSpace=wrap;html=1;strokeColor=default;align=center;verticalAlign=middle;fontFamily=Helvetica;fontSize=12;fontColor=#B3B3B3;fillColor=#E6E6E6;" vertex="1" parent="MPSzHl6AMQkyP7CY1vwX-360">
          <mxGeometry width="20" height="20" as="geometry" />
        </mxCell>
        <mxCell id="MPSzHl6AMQkyP7CY1vwX-362" value="14" style="rounded=0;whiteSpace=wrap;html=1;strokeColor=default;align=center;verticalAlign=middle;fontFamily=Helvetica;fontSize=12;fontColor=#B3B3B3;fillColor=#E6E6E6;" vertex="1" parent="MPSzHl6AMQkyP7CY1vwX-360">
          <mxGeometry x="20" width="20" height="20" as="geometry" />
        </mxCell>
        <mxCell id="MPSzHl6AMQkyP7CY1vwX-363" value="13" style="rounded=0;whiteSpace=wrap;html=1;fontColor=#B3B3B3;fillColor=#E6E6E6;strokeColor=default;align=center;verticalAlign=middle;fontFamily=Helvetica;fontSize=12;" vertex="1" parent="MPSzHl6AMQkyP7CY1vwX-360">
          <mxGeometry x="40" width="20" height="20" as="geometry" />
        </mxCell>
        <mxCell id="MPSzHl6AMQkyP7CY1vwX-364" value="12" style="rounded=0;whiteSpace=wrap;html=1;strokeColor=default;align=center;verticalAlign=middle;fontFamily=Helvetica;fontSize=12;fontColor=#B3B3B3;fillColor=#E6E6E6;" vertex="1" parent="MPSzHl6AMQkyP7CY1vwX-360">
          <mxGeometry x="60" width="20" height="20" as="geometry" />
        </mxCell>
        <mxCell id="MPSzHl6AMQkyP7CY1vwX-365" value="11" style="rounded=0;whiteSpace=wrap;html=1;strokeColor=default;align=center;verticalAlign=middle;fontFamily=Helvetica;fontSize=12;fontColor=#B3B3B3;fillColor=#E6E6E6;" vertex="1" parent="MPSzHl6AMQkyP7CY1vwX-360">
          <mxGeometry x="80" width="20" height="20" as="geometry" />
        </mxCell>
        <mxCell id="MPSzHl6AMQkyP7CY1vwX-366" value="10" style="rounded=0;whiteSpace=wrap;html=1;strokeColor=default;align=center;verticalAlign=middle;fontFamily=Helvetica;fontSize=12;fontColor=#B3B3B3;fillColor=#E6E6E6;" vertex="1" parent="MPSzHl6AMQkyP7CY1vwX-360">
          <mxGeometry x="100" width="20" height="20" as="geometry" />
        </mxCell>
        <mxCell id="MPSzHl6AMQkyP7CY1vwX-367" value="9" style="rounded=0;whiteSpace=wrap;html=1;" vertex="1" parent="MPSzHl6AMQkyP7CY1vwX-360">
          <mxGeometry x="120" width="20" height="20" as="geometry" />
        </mxCell>
        <mxCell id="MPSzHl6AMQkyP7CY1vwX-368" value="8" style="rounded=0;whiteSpace=wrap;html=1;" vertex="1" parent="MPSzHl6AMQkyP7CY1vwX-360">
          <mxGeometry x="140" width="20" height="20" as="geometry" />
        </mxCell>
        <mxCell id="MPSzHl6AMQkyP7CY1vwX-369" value="TXBPF" style="text;html=1;align=center;verticalAlign=middle;whiteSpace=wrap;rounded=0;direction=west;horizontal=0;" vertex="1" parent="1">
          <mxGeometry x="1130" y="1062" width="20" height="38" as="geometry" />
        </mxCell>
        <mxCell id="MPSzHl6AMQkyP7CY1vwX-370" value="RXBPF" style="text;html=1;align=center;verticalAlign=middle;whiteSpace=wrap;rounded=0;direction=west;horizontal=0;" vertex="1" parent="1">
          <mxGeometry x="1110" y="1062" width="20" height="38" as="geometry" />
        </mxCell>
      </root>
    </mxGraphModel>
  </diagram>
</mxfile>
